<?xml version="1.0" encoding="utf-8" standalone="no"?>
<!DOCTYPE svg PUBLIC "-//W3C//DTD SVG 1.1//EN"
  "http://www.w3.org/Graphics/SVG/1.1/DTD/svg11.dtd">
<!-- Created with matplotlib (https://matplotlib.org/) -->
<svg height="288pt" version="1.1" viewBox="0 0 432 288" width="432pt" xmlns="http://www.w3.org/2000/svg" xmlns:xlink="http://www.w3.org/1999/xlink">
 <defs>
  <style type="text/css">
*{stroke-linecap:butt;stroke-linejoin:round;}
  </style>
 </defs>
 <g id="figure_1">
  <g id="patch_1">
   <path d="M 0 288 
L 432 288 
L 432 0 
L 0 0 
z
" style="fill:#ffffff;"/>
  </g>
  <g id="axes_1">
   <g id="patch_2">
    <path d="M 54 252 
L 388.8 252 
L 388.8 34.56 
L 54 34.56 
z
" style="fill:#eee8d5;"/>
   </g>
   <g id="matplotlib.axis_1">
    <g id="xtick_1">
     <g id="line2d_1">
      <path clip-path="url(#pf6de28aded)" d="M 90.638703 252 
L 90.638703 34.56 
" style="fill:none;stroke:#fdf6e3;"/>
     </g>
     <g id="text_1">
      <!-- −1.5 -->
      <defs>
       <path d="M 52.828125 31.203125 
L 5.5625 31.203125 
L 5.5625 39.40625 
L 52.828125 39.40625 
z
" id="ArialMT-8722"/>
       <path d="M 37.25 0 
L 28.46875 0 
L 28.46875 56 
Q 25.296875 52.984375 20.140625 49.953125 
Q 14.984375 46.921875 10.890625 45.40625 
L 10.890625 53.90625 
Q 18.265625 57.375 23.78125 62.296875 
Q 29.296875 67.234375 31.59375 71.875 
L 37.25 71.875 
z
" id="ArialMT-49"/>
       <path d="M 9.078125 0 
L 9.078125 10.015625 
L 19.09375 10.015625 
L 19.09375 0 
z
" id="ArialMT-46"/>
       <path d="M 4.15625 18.75 
L 13.375 19.53125 
Q 14.40625 12.796875 18.140625 9.390625 
Q 21.875 6 27.15625 6 
Q 33.5 6 37.890625 10.78125 
Q 42.28125 15.578125 42.28125 23.484375 
Q 42.28125 31 38.0625 35.34375 
Q 33.84375 39.703125 27 39.703125 
Q 22.75 39.703125 19.328125 37.765625 
Q 15.921875 35.84375 13.96875 32.765625 
L 5.71875 33.84375 
L 12.640625 70.609375 
L 48.25 70.609375 
L 48.25 62.203125 
L 19.671875 62.203125 
L 15.828125 42.96875 
Q 22.265625 47.46875 29.34375 47.46875 
Q 38.71875 47.46875 45.15625 40.96875 
Q 51.609375 34.46875 51.609375 24.265625 
Q 51.609375 14.546875 45.953125 7.46875 
Q 39.0625 -1.21875 27.15625 -1.21875 
Q 17.390625 -1.21875 11.203125 4.25 
Q 5.03125 9.71875 4.15625 18.75 
z
" id="ArialMT-53"/>
      </defs>
      <g style="fill:#657b83;" transform="translate(79.781359 269.373594)scale(0.11 -0.11)">
       <use xlink:href="#ArialMT-8722"/>
       <use x="58.398438" xlink:href="#ArialMT-49"/>
       <use x="114.013672" xlink:href="#ArialMT-46"/>
       <use x="141.796875" xlink:href="#ArialMT-53"/>
      </g>
     </g>
    </g>
    <g id="xtick_2">
     <g id="line2d_2">
      <path clip-path="url(#pf6de28aded)" d="M 133.47181 252 
L 133.47181 34.56 
" style="fill:none;stroke:#fdf6e3;"/>
     </g>
     <g id="text_2">
      <!-- −1.0 -->
      <defs>
       <path d="M 4.15625 35.296875 
Q 4.15625 48 6.765625 55.734375 
Q 9.375 63.484375 14.515625 67.671875 
Q 19.671875 71.875 27.484375 71.875 
Q 33.25 71.875 37.59375 69.546875 
Q 41.9375 67.234375 44.765625 62.859375 
Q 47.609375 58.5 49.21875 52.21875 
Q 50.828125 45.953125 50.828125 35.296875 
Q 50.828125 22.703125 48.234375 14.96875 
Q 45.65625 7.234375 40.5 3 
Q 35.359375 -1.21875 27.484375 -1.21875 
Q 17.140625 -1.21875 11.234375 6.203125 
Q 4.15625 15.140625 4.15625 35.296875 
z
M 13.1875 35.296875 
Q 13.1875 17.671875 17.3125 11.828125 
Q 21.4375 6 27.484375 6 
Q 33.546875 6 37.671875 11.859375 
Q 41.796875 17.71875 41.796875 35.296875 
Q 41.796875 52.984375 37.671875 58.78125 
Q 33.546875 64.59375 27.390625 64.59375 
Q 21.34375 64.59375 17.71875 59.46875 
Q 13.1875 52.9375 13.1875 35.296875 
z
" id="ArialMT-48"/>
      </defs>
      <g style="fill:#657b83;" transform="translate(122.614466 269.373594)scale(0.11 -0.11)">
       <use xlink:href="#ArialMT-8722"/>
       <use x="58.398438" xlink:href="#ArialMT-49"/>
       <use x="114.013672" xlink:href="#ArialMT-46"/>
       <use x="141.796875" xlink:href="#ArialMT-48"/>
      </g>
     </g>
    </g>
    <g id="xtick_3">
     <g id="line2d_3">
      <path clip-path="url(#pf6de28aded)" d="M 176.304917 252 
L 176.304917 34.56 
" style="fill:none;stroke:#fdf6e3;"/>
     </g>
     <g id="text_3">
      <!-- −0.5 -->
      <g style="fill:#657b83;" transform="translate(165.447573 269.373594)scale(0.11 -0.11)">
       <use xlink:href="#ArialMT-8722"/>
       <use x="58.398438" xlink:href="#ArialMT-48"/>
       <use x="114.013672" xlink:href="#ArialMT-46"/>
       <use x="141.796875" xlink:href="#ArialMT-53"/>
      </g>
     </g>
    </g>
    <g id="xtick_4">
     <g id="line2d_4">
      <path clip-path="url(#pf6de28aded)" d="M 219.138024 252 
L 219.138024 34.56 
" style="fill:none;stroke:#fdf6e3;"/>
     </g>
     <g id="text_4">
      <!-- 0.0 -->
      <g style="fill:#657b83;" transform="translate(211.493024 269.373594)scale(0.11 -0.11)">
       <use xlink:href="#ArialMT-48"/>
       <use x="55.615234" xlink:href="#ArialMT-46"/>
       <use x="83.398438" xlink:href="#ArialMT-48"/>
      </g>
     </g>
    </g>
    <g id="xtick_5">
     <g id="line2d_5">
      <path clip-path="url(#pf6de28aded)" d="M 261.971131 252 
L 261.971131 34.56 
" style="fill:none;stroke:#fdf6e3;"/>
     </g>
     <g id="text_5">
      <!-- 0.5 -->
      <g style="fill:#657b83;" transform="translate(254.326131 269.373594)scale(0.11 -0.11)">
       <use xlink:href="#ArialMT-48"/>
       <use x="55.615234" xlink:href="#ArialMT-46"/>
       <use x="83.398438" xlink:href="#ArialMT-53"/>
      </g>
     </g>
    </g>
    <g id="xtick_6">
     <g id="line2d_6">
      <path clip-path="url(#pf6de28aded)" d="M 304.804238 252 
L 304.804238 34.56 
" style="fill:none;stroke:#fdf6e3;"/>
     </g>
     <g id="text_6">
      <!-- 1.0 -->
      <g style="fill:#657b83;" transform="translate(297.159238 269.373594)scale(0.11 -0.11)">
       <use xlink:href="#ArialMT-49"/>
       <use x="55.615234" xlink:href="#ArialMT-46"/>
       <use x="83.398438" xlink:href="#ArialMT-48"/>
      </g>
     </g>
    </g>
    <g id="xtick_7">
     <g id="line2d_7">
      <path clip-path="url(#pf6de28aded)" d="M 347.637346 252 
L 347.637346 34.56 
" style="fill:none;stroke:#fdf6e3;"/>
     </g>
     <g id="text_7">
      <!-- 1.5 -->
      <g style="fill:#657b83;" transform="translate(339.992346 269.373594)scale(0.11 -0.11)">
       <use xlink:href="#ArialMT-49"/>
       <use x="55.615234" xlink:href="#ArialMT-46"/>
       <use x="83.398438" xlink:href="#ArialMT-53"/>
      </g>
     </g>
    </g>
    <g id="text_8">
     <!-- $\frac{x}{L}$ -->
     <defs>
      <path d="M 60.015625 54.6875 
L 34.90625 27.875 
L 50.296875 0 
L 39.984375 0 
L 28.421875 21.6875 
L 8.296875 0 
L -2.59375 0 
L 24.3125 28.8125 
L 10.015625 54.6875 
L 20.3125 54.6875 
L 30.8125 34.90625 
L 49.125 54.6875 
z
" id="DejaVuSans-Oblique-120"/>
      <path d="M 16.796875 72.90625 
L 26.703125 72.90625 
L 14.203125 8.203125 
L 49.703125 8.203125 
L 48.09375 0 
L 2.6875 0 
z
" id="DejaVuSans-Oblique-76"/>
     </defs>
     <g style="fill:#657b83;" transform="translate(216 292.159844)scale(0.2 -0.2)">
      <use transform="translate(0 44.71875)scale(0.7)" xlink:href="#DejaVuSans-Oblique-120"/>
      <use transform="translate(1 -37.565625)scale(0.7)" xlink:href="#DejaVuSans-Oblique-76"/>
      <path d="M 0 19.71875 
L 0 25.96875 
L 41.425781 25.96875 
L 41.425781 19.71875 
L 0 19.71875 
z
"/>
     </g>
    </g>
   </g>
   <g id="matplotlib.axis_2">
    <g id="ytick_1">
     <g id="line2d_8">
      <path clip-path="url(#pf6de28aded)" d="M 54 252 
L 388.8 252 
" style="fill:none;stroke:#fdf6e3;"/>
     </g>
     <g id="text_9">
      <!-- 0.0 -->
      <g style="fill:#657b83;" transform="translate(29.21 255.936797)scale(0.11 -0.11)">
       <use xlink:href="#ArialMT-48"/>
       <use x="55.615234" xlink:href="#ArialMT-46"/>
       <use x="83.398438" xlink:href="#ArialMT-48"/>
      </g>
     </g>
    </g>
    <g id="ytick_2">
     <g id="line2d_9">
      <path clip-path="url(#pf6de28aded)" d="M 54 224.57333 
L 388.8 224.57333 
" style="fill:none;stroke:#fdf6e3;"/>
     </g>
     <g id="text_10">
      <!-- 0.2 -->
      <defs>
       <path d="M 50.34375 8.453125 
L 50.34375 0 
L 3.03125 0 
Q 2.9375 3.171875 4.046875 6.109375 
Q 5.859375 10.9375 9.828125 15.625 
Q 13.8125 20.3125 21.34375 26.46875 
Q 33.015625 36.03125 37.109375 41.625 
Q 41.21875 47.21875 41.21875 52.203125 
Q 41.21875 57.421875 37.46875 61 
Q 33.734375 64.59375 27.734375 64.59375 
Q 21.390625 64.59375 17.578125 60.78125 
Q 13.765625 56.984375 13.71875 50.25 
L 4.6875 51.171875 
Q 5.609375 61.28125 11.65625 66.578125 
Q 17.71875 71.875 27.9375 71.875 
Q 38.234375 71.875 44.234375 66.15625 
Q 50.25 60.453125 50.25 52 
Q 50.25 47.703125 48.484375 43.546875 
Q 46.734375 39.40625 42.65625 34.8125 
Q 38.578125 30.21875 29.109375 22.21875 
Q 21.1875 15.578125 18.9375 13.203125 
Q 16.703125 10.84375 15.234375 8.453125 
z
" id="ArialMT-50"/>
      </defs>
      <g style="fill:#657b83;" transform="translate(29.21 228.510127)scale(0.11 -0.11)">
       <use xlink:href="#ArialMT-48"/>
       <use x="55.615234" xlink:href="#ArialMT-46"/>
       <use x="83.398438" xlink:href="#ArialMT-50"/>
      </g>
     </g>
    </g>
    <g id="ytick_3">
     <g id="line2d_10">
      <path clip-path="url(#pf6de28aded)" d="M 54 197.146661 
L 388.8 197.146661 
" style="fill:none;stroke:#fdf6e3;"/>
     </g>
     <g id="text_11">
      <!-- 0.4 -->
      <defs>
       <path d="M 32.328125 0 
L 32.328125 17.140625 
L 1.265625 17.140625 
L 1.265625 25.203125 
L 33.9375 71.578125 
L 41.109375 71.578125 
L 41.109375 25.203125 
L 50.78125 25.203125 
L 50.78125 17.140625 
L 41.109375 17.140625 
L 41.109375 0 
z
M 32.328125 25.203125 
L 32.328125 57.46875 
L 9.90625 25.203125 
z
" id="ArialMT-52"/>
      </defs>
      <g style="fill:#657b83;" transform="translate(29.21 201.083458)scale(0.11 -0.11)">
       <use xlink:href="#ArialMT-48"/>
       <use x="55.615234" xlink:href="#ArialMT-46"/>
       <use x="83.398438" xlink:href="#ArialMT-52"/>
      </g>
     </g>
    </g>
    <g id="ytick_4">
     <g id="line2d_11">
      <path clip-path="url(#pf6de28aded)" d="M 54 169.719991 
L 388.8 169.719991 
" style="fill:none;stroke:#fdf6e3;"/>
     </g>
     <g id="text_12">
      <!-- 0.6 -->
      <defs>
       <path d="M 49.75 54.046875 
L 41.015625 53.375 
Q 39.84375 58.546875 37.703125 60.890625 
Q 34.125 64.65625 28.90625 64.65625 
Q 24.703125 64.65625 21.53125 62.3125 
Q 17.390625 59.28125 14.984375 53.46875 
Q 12.59375 47.65625 12.5 36.921875 
Q 15.671875 41.75 20.265625 44.09375 
Q 24.859375 46.4375 29.890625 46.4375 
Q 38.671875 46.4375 44.84375 39.96875 
Q 51.03125 33.5 51.03125 23.25 
Q 51.03125 16.5 48.125 10.71875 
Q 45.21875 4.9375 40.140625 1.859375 
Q 35.0625 -1.21875 28.609375 -1.21875 
Q 17.625 -1.21875 10.6875 6.859375 
Q 3.765625 14.9375 3.765625 33.5 
Q 3.765625 54.25 11.421875 63.671875 
Q 18.109375 71.875 29.4375 71.875 
Q 37.890625 71.875 43.28125 67.140625 
Q 48.6875 62.40625 49.75 54.046875 
z
M 13.875 23.1875 
Q 13.875 18.65625 15.796875 14.5 
Q 17.71875 10.359375 21.1875 8.171875 
Q 24.65625 6 28.46875 6 
Q 34.03125 6 38.03125 10.484375 
Q 42.046875 14.984375 42.046875 22.703125 
Q 42.046875 30.125 38.078125 34.390625 
Q 34.125 38.671875 28.125 38.671875 
Q 22.171875 38.671875 18.015625 34.390625 
Q 13.875 30.125 13.875 23.1875 
z
" id="ArialMT-54"/>
      </defs>
      <g style="fill:#657b83;" transform="translate(29.21 173.656788)scale(0.11 -0.11)">
       <use xlink:href="#ArialMT-48"/>
       <use x="55.615234" xlink:href="#ArialMT-46"/>
       <use x="83.398438" xlink:href="#ArialMT-54"/>
      </g>
     </g>
    </g>
    <g id="ytick_5">
     <g id="line2d_12">
      <path clip-path="url(#pf6de28aded)" d="M 54 142.293322 
L 388.8 142.293322 
" style="fill:none;stroke:#fdf6e3;"/>
     </g>
     <g id="text_13">
      <!-- 0.8 -->
      <defs>
       <path d="M 17.671875 38.8125 
Q 12.203125 40.828125 9.5625 44.53125 
Q 6.9375 48.25 6.9375 53.421875 
Q 6.9375 61.234375 12.546875 66.546875 
Q 18.171875 71.875 27.484375 71.875 
Q 36.859375 71.875 42.578125 66.421875 
Q 48.296875 60.984375 48.296875 53.171875 
Q 48.296875 48.1875 45.671875 44.5 
Q 43.0625 40.828125 37.75 38.8125 
Q 44.34375 36.671875 47.78125 31.875 
Q 51.21875 27.09375 51.21875 20.453125 
Q 51.21875 11.28125 44.71875 5.03125 
Q 38.234375 -1.21875 27.640625 -1.21875 
Q 17.046875 -1.21875 10.546875 5.046875 
Q 4.046875 11.328125 4.046875 20.703125 
Q 4.046875 27.6875 7.59375 32.390625 
Q 11.140625 37.109375 17.671875 38.8125 
z
M 15.921875 53.71875 
Q 15.921875 48.640625 19.1875 45.40625 
Q 22.46875 42.1875 27.6875 42.1875 
Q 32.765625 42.1875 36.015625 45.375 
Q 39.265625 48.578125 39.265625 53.21875 
Q 39.265625 58.0625 35.90625 61.359375 
Q 32.5625 64.65625 27.59375 64.65625 
Q 22.5625 64.65625 19.234375 61.421875 
Q 15.921875 58.203125 15.921875 53.71875 
z
M 13.09375 20.65625 
Q 13.09375 16.890625 14.875 13.375 
Q 16.65625 9.859375 20.171875 7.921875 
Q 23.6875 6 27.734375 6 
Q 34.03125 6 38.125 10.046875 
Q 42.234375 14.109375 42.234375 20.359375 
Q 42.234375 26.703125 38.015625 30.859375 
Q 33.796875 35.015625 27.4375 35.015625 
Q 21.234375 35.015625 17.15625 30.90625 
Q 13.09375 26.8125 13.09375 20.65625 
z
" id="ArialMT-56"/>
      </defs>
      <g style="fill:#657b83;" transform="translate(29.21 146.230119)scale(0.11 -0.11)">
       <use xlink:href="#ArialMT-48"/>
       <use x="55.615234" xlink:href="#ArialMT-46"/>
       <use x="83.398438" xlink:href="#ArialMT-56"/>
      </g>
     </g>
    </g>
    <g id="ytick_6">
     <g id="line2d_13">
      <path clip-path="url(#pf6de28aded)" d="M 54 114.866652 
L 388.8 114.866652 
" style="fill:none;stroke:#fdf6e3;"/>
     </g>
     <g id="text_14">
      <!-- 1.0 -->
      <g style="fill:#657b83;" transform="translate(29.21 118.803449)scale(0.11 -0.11)">
       <use xlink:href="#ArialMT-49"/>
       <use x="55.615234" xlink:href="#ArialMT-46"/>
       <use x="83.398438" xlink:href="#ArialMT-48"/>
      </g>
     </g>
    </g>
    <g id="ytick_7">
     <g id="line2d_14">
      <path clip-path="url(#pf6de28aded)" d="M 54 87.439983 
L 388.8 87.439983 
" style="fill:none;stroke:#fdf6e3;"/>
     </g>
     <g id="text_15">
      <!-- 1.2 -->
      <g style="fill:#657b83;" transform="translate(29.21 91.376779)scale(0.11 -0.11)">
       <use xlink:href="#ArialMT-49"/>
       <use x="55.615234" xlink:href="#ArialMT-46"/>
       <use x="83.398438" xlink:href="#ArialMT-50"/>
      </g>
     </g>
    </g>
    <g id="ytick_8">
     <g id="line2d_15">
      <path clip-path="url(#pf6de28aded)" d="M 54 60.013313 
L 388.8 60.013313 
" style="fill:none;stroke:#fdf6e3;"/>
     </g>
     <g id="text_16">
      <!-- 1.4 -->
      <g style="fill:#657b83;" transform="translate(29.21 63.95011)scale(0.11 -0.11)">
       <use xlink:href="#ArialMT-49"/>
       <use x="55.615234" xlink:href="#ArialMT-46"/>
       <use x="83.398438" xlink:href="#ArialMT-52"/>
      </g>
     </g>
    </g>
    <g id="text_17">
     <!-- Density -->
     <defs>
      <path d="M 7.71875 0 
L 7.71875 71.578125 
L 32.375 71.578125 
Q 40.71875 71.578125 45.125 70.5625 
Q 51.265625 69.140625 55.609375 65.4375 
Q 61.28125 60.640625 64.078125 53.1875 
Q 66.890625 45.75 66.890625 36.1875 
Q 66.890625 28.03125 64.984375 21.734375 
Q 63.09375 15.4375 60.109375 11.296875 
Q 57.125 7.171875 53.578125 4.796875 
Q 50.046875 2.4375 45.046875 1.21875 
Q 40.046875 0 33.546875 0 
z
M 17.1875 8.453125 
L 32.46875 8.453125 
Q 39.546875 8.453125 43.578125 9.765625 
Q 47.609375 11.078125 50 13.484375 
Q 53.375 16.84375 55.25 22.53125 
Q 57.125 28.21875 57.125 36.328125 
Q 57.125 47.5625 53.4375 53.59375 
Q 49.75 59.625 44.484375 61.671875 
Q 40.671875 63.140625 32.234375 63.140625 
L 17.1875 63.140625 
z
" id="ArialMT-68"/>
      <path d="M 42.09375 16.703125 
L 51.171875 15.578125 
Q 49.03125 7.625 43.21875 3.21875 
Q 37.40625 -1.171875 28.375 -1.171875 
Q 17 -1.171875 10.328125 5.828125 
Q 3.65625 12.84375 3.65625 25.484375 
Q 3.65625 38.578125 10.390625 45.796875 
Q 17.140625 53.03125 27.875 53.03125 
Q 38.28125 53.03125 44.875 45.953125 
Q 51.46875 38.875 51.46875 26.03125 
Q 51.46875 25.25 51.421875 23.6875 
L 12.75 23.6875 
Q 13.234375 15.140625 17.578125 10.59375 
Q 21.921875 6.0625 28.421875 6.0625 
Q 33.25 6.0625 36.671875 8.59375 
Q 40.09375 11.140625 42.09375 16.703125 
z
M 13.234375 30.90625 
L 42.1875 30.90625 
Q 41.609375 37.453125 38.875 40.71875 
Q 34.671875 45.796875 27.984375 45.796875 
Q 21.921875 45.796875 17.796875 41.75 
Q 13.671875 37.703125 13.234375 30.90625 
z
" id="ArialMT-101"/>
      <path d="M 6.59375 0 
L 6.59375 51.859375 
L 14.5 51.859375 
L 14.5 44.484375 
Q 20.21875 53.03125 31 53.03125 
Q 35.6875 53.03125 39.625 51.34375 
Q 43.5625 49.65625 45.515625 46.921875 
Q 47.46875 44.1875 48.25 40.4375 
Q 48.734375 37.984375 48.734375 31.890625 
L 48.734375 0 
L 39.9375 0 
L 39.9375 31.546875 
Q 39.9375 36.921875 38.90625 39.578125 
Q 37.890625 42.234375 35.28125 43.8125 
Q 32.671875 45.40625 29.15625 45.40625 
Q 23.53125 45.40625 19.453125 41.84375 
Q 15.375 38.28125 15.375 28.328125 
L 15.375 0 
z
" id="ArialMT-110"/>
      <path d="M 3.078125 15.484375 
L 11.765625 16.84375 
Q 12.5 11.625 15.84375 8.84375 
Q 19.1875 6.0625 25.203125 6.0625 
Q 31.25 6.0625 34.171875 8.515625 
Q 37.109375 10.984375 37.109375 14.3125 
Q 37.109375 17.28125 34.515625 19 
Q 32.71875 20.171875 25.53125 21.96875 
Q 15.875 24.421875 12.140625 26.203125 
Q 8.40625 27.984375 6.46875 31.125 
Q 4.546875 34.28125 4.546875 38.09375 
Q 4.546875 41.546875 6.125 44.5 
Q 7.71875 47.46875 10.453125 49.421875 
Q 12.5 50.921875 16.03125 51.96875 
Q 19.578125 53.03125 23.640625 53.03125 
Q 29.734375 53.03125 34.34375 51.265625 
Q 38.96875 49.515625 41.15625 46.5 
Q 43.359375 43.5 44.1875 38.484375 
L 35.59375 37.3125 
Q 35.015625 41.3125 32.203125 43.546875 
Q 29.390625 45.796875 24.265625 45.796875 
Q 18.21875 45.796875 15.625 43.796875 
Q 13.03125 41.796875 13.03125 39.109375 
Q 13.03125 37.40625 14.109375 36.03125 
Q 15.1875 34.625 17.484375 33.6875 
Q 18.796875 33.203125 25.25 31.453125 
Q 34.578125 28.953125 38.25 27.359375 
Q 41.9375 25.78125 44.03125 22.75 
Q 46.140625 19.734375 46.140625 15.234375 
Q 46.140625 10.84375 43.578125 6.953125 
Q 41.015625 3.078125 36.171875 0.953125 
Q 31.34375 -1.171875 25.25 -1.171875 
Q 15.140625 -1.171875 9.84375 3.03125 
Q 4.546875 7.234375 3.078125 15.484375 
z
" id="ArialMT-115"/>
      <path d="M 6.640625 61.46875 
L 6.640625 71.578125 
L 15.4375 71.578125 
L 15.4375 61.46875 
z
M 6.640625 0 
L 6.640625 51.859375 
L 15.4375 51.859375 
L 15.4375 0 
z
" id="ArialMT-105"/>
      <path d="M 25.78125 7.859375 
L 27.046875 0.09375 
Q 23.34375 -0.6875 20.40625 -0.6875 
Q 15.625 -0.6875 12.984375 0.828125 
Q 10.359375 2.34375 9.28125 4.8125 
Q 8.203125 7.28125 8.203125 15.1875 
L 8.203125 45.015625 
L 1.765625 45.015625 
L 1.765625 51.859375 
L 8.203125 51.859375 
L 8.203125 64.703125 
L 16.9375 69.96875 
L 16.9375 51.859375 
L 25.78125 51.859375 
L 25.78125 45.015625 
L 16.9375 45.015625 
L 16.9375 14.703125 
Q 16.9375 10.9375 17.40625 9.859375 
Q 17.875 8.796875 18.921875 8.15625 
Q 19.96875 7.515625 21.921875 7.515625 
Q 23.390625 7.515625 25.78125 7.859375 
z
" id="ArialMT-116"/>
      <path d="M 6.203125 -19.96875 
L 5.21875 -11.71875 
Q 8.109375 -12.5 10.25 -12.5 
Q 13.1875 -12.5 14.9375 -11.515625 
Q 16.703125 -10.546875 17.828125 -8.796875 
Q 18.65625 -7.46875 20.515625 -2.25 
Q 20.75 -1.515625 21.296875 -0.09375 
L 1.609375 51.859375 
L 11.078125 51.859375 
L 21.875 21.828125 
Q 23.96875 16.109375 25.640625 9.8125 
Q 27.15625 15.875 29.25 21.625 
L 40.328125 51.859375 
L 49.125 51.859375 
L 29.390625 -0.875 
Q 26.21875 -9.421875 24.46875 -12.640625 
Q 22.125 -17 19.09375 -19.015625 
Q 16.0625 -21.046875 11.859375 -21.046875 
Q 9.328125 -21.046875 6.203125 -19.96875 
z
" id="ArialMT-121"/>
     </defs>
     <g style="fill:#657b83;" transform="translate(22.052969 168.287813)rotate(-90)scale(0.15 -0.15)">
      <use xlink:href="#ArialMT-68"/>
      <use x="72.216797" xlink:href="#ArialMT-101"/>
      <use x="127.832031" xlink:href="#ArialMT-110"/>
      <use x="183.447266" xlink:href="#ArialMT-115"/>
      <use x="233.447266" xlink:href="#ArialMT-105"/>
      <use x="255.664062" xlink:href="#ArialMT-116"/>
      <use x="283.447266" xlink:href="#ArialMT-121"/>
     </g>
    </g>
   </g>
   <g id="PolyCollection_1">
    <defs>
     <path d="M 109.083487 -36.002651 
L 109.083487 -36 
L 111.257501 -36 
L 113.431515 -36 
L 115.60553 -36 
L 117.779544 -36 
L 119.953558 -36 
L 122.127572 -36 
L 124.301587 -36 
L 126.475601 -36 
L 128.649615 -36 
L 130.82363 -36 
L 132.997644 -36 
L 135.171658 -36 
L 137.345672 -36 
L 139.519687 -36 
L 141.693701 -36 
L 143.867715 -36 
L 146.04173 -36 
L 148.215744 -36 
L 150.389758 -36 
L 152.563772 -36 
L 154.737787 -36 
L 156.911801 -36 
L 159.085815 -36 
L 161.259829 -36 
L 163.433844 -36 
L 165.607858 -36 
L 167.781872 -36 
L 169.955887 -36 
L 172.129901 -36 
L 174.303915 -36 
L 176.477929 -36 
L 178.651944 -36 
L 180.825958 -36 
L 182.999972 -36 
L 185.173986 -36 
L 187.348001 -36 
L 189.522015 -36 
L 191.696029 -36 
L 193.870044 -36 
L 196.044058 -36 
L 198.218072 -36 
L 200.392086 -36 
L 202.566101 -36 
L 204.740115 -36 
L 206.914129 -36 
L 209.088143 -36 
L 211.262158 -36 
L 213.436172 -36 
L 215.610186 -36 
L 217.784201 -36 
L 219.958215 -36 
L 222.132229 -36 
L 224.306243 -36 
L 226.480258 -36 
L 228.654272 -36 
L 230.828286 -36 
L 233.0023 -36 
L 235.176315 -36 
L 237.350329 -36 
L 239.524343 -36 
L 241.698358 -36 
L 243.872372 -36 
L 246.046386 -36 
L 248.2204 -36 
L 250.394415 -36 
L 252.568429 -36 
L 254.742443 -36 
L 256.916457 -36 
L 259.090472 -36 
L 261.264486 -36 
L 263.4385 -36 
L 265.612515 -36 
L 267.786529 -36 
L 269.960543 -36 
L 272.134557 -36 
L 274.308572 -36 
L 276.482586 -36 
L 278.6566 -36 
L 280.830614 -36 
L 283.004629 -36 
L 285.178643 -36 
L 287.352657 -36 
L 289.526672 -36 
L 291.700686 -36 
L 293.8747 -36 
L 296.048714 -36 
L 298.222729 -36 
L 300.396743 -36 
L 302.570757 -36 
L 304.744771 -36 
L 306.918786 -36 
L 309.0928 -36 
L 311.266814 -36 
L 313.440829 -36 
L 315.614843 -36 
L 317.788857 -36 
L 319.962871 -36 
L 322.136886 -36 
L 324.3109 -36 
L 324.3109 -36.001333 
L 324.3109 -36.001333 
L 322.136886 -36.006036 
L 319.962871 -36.020397 
L 317.788857 -36.051927 
L 315.614843 -36.101333 
L 313.440829 -36.156345 
L 311.266814 -36.201553 
L 309.0928 -36.240337 
L 306.918786 -36.310229 
L 304.744771 -36.478252 
L 302.570757 -36.807794 
L 300.396743 -37.308242 
L 298.222729 -37.906488 
L 296.048714 -38.484914 
L 293.8747 -39.00239 
L 291.700686 -39.589668 
L 289.526672 -40.448987 
L 287.352657 -41.665439 
L 285.178643 -43.224874 
L 283.004629 -45.170199 
L 280.830614 -47.566883 
L 278.6566 -50.305725 
L 276.482586 -53.086104 
L 274.308572 -55.671784 
L 272.134557 -58.1442 
L 269.960543 -60.850789 
L 267.786529 -64.049994 
L 265.612515 -67.728189 
L 263.4385 -71.938477 
L 261.264486 -77.058337 
L 259.090472 -83.285181 
L 256.916457 -89.983877 
L 254.742443 -96.008211 
L 252.568429 -100.897429 
L 250.394415 -105.580494 
L 248.2204 -111.558123 
L 246.046386 -119.267034 
L 243.872372 -127.576996 
L 241.698358 -135.207206 
L 239.524343 -142.323747 
L 237.350329 -150.268092 
L 235.176315 -159.95827 
L 233.0023 -171.221473 
L 230.828286 -183.574557 
L 228.654272 -196.781513 
L 226.480258 -210.429265 
L 224.306243 -223.465326 
L 222.132229 -234.255759 
L 219.958215 -241.087567 
L 217.784201 -243.085714 
L 215.610186 -240.931994 
L 213.436172 -236.470502 
L 211.262158 -231.341193 
L 209.088143 -225.946766 
L 206.914129 -219.679248 
L 204.740115 -211.839681 
L 202.566101 -202.293174 
L 200.392086 -191.528825 
L 198.218072 -180.138607 
L 196.044058 -168.370153 
L 193.870044 -156.475367 
L 191.696029 -145.104759 
L 189.522015 -134.762268 
L 187.348001 -125.200304 
L 185.173986 -115.860568 
L 182.999972 -106.592705 
L 180.825958 -97.646259 
L 178.651944 -89.30582 
L 176.477929 -81.740796 
L 174.303915 -75.040342 
L 172.129901 -69.271813 
L 169.955887 -64.42694 
L 167.781872 -60.291133 
L 165.607858 -56.496276 
L 163.433844 -52.814867 
L 161.259829 -49.362595 
L 159.085815 -46.428753 
L 156.911801 -44.170305 
L 154.737787 -42.542845 
L 152.563772 -41.400935 
L 150.389758 -40.559956 
L 148.215744 -39.855165 
L 146.04173 -39.228159 
L 143.867715 -38.725434 
L 141.693701 -38.377123 
L 139.519687 -38.104593 
L 137.345672 -37.784979 
L 135.171658 -37.384624 
L 132.997644 -36.991066 
L 130.82363 -36.720639 
L 128.649615 -36.609391 
L 126.475601 -36.593115 
L 124.301587 -36.578403 
L 122.127572 -36.509951 
L 119.953558 -36.384302 
L 117.779544 -36.237206 
L 115.60553 -36.115735 
L 113.431515 -36.043506 
L 111.257501 -36.012395 
L 109.083487 -36.002651 
z
" id="m09dcd6475d" style="stroke:#ffffff;stroke-opacity:0.25;"/>
    </defs>
    <g clip-path="url(#pf6de28aded)">
     <use style="fill:#268bd2;fill-opacity:0.25;stroke:#ffffff;stroke-opacity:0.25;" x="0" xlink:href="#m09dcd6475d" y="288"/>
    </g>
   </g>
   <g id="PolyCollection_2">
    <defs>
     <path d="M 69.218182 -36.001032 
L 69.218182 -36 
L 72.292562 -36 
L 75.366942 -36 
L 78.441322 -36 
L 81.515702 -36 
L 84.590083 -36 
L 87.664463 -36 
L 90.738843 -36 
L 93.813223 -36 
L 96.887603 -36 
L 99.961983 -36 
L 103.036364 -36 
L 106.110744 -36 
L 109.185124 -36 
L 112.259504 -36 
L 115.333884 -36 
L 118.408264 -36 
L 121.482645 -36 
L 124.557025 -36 
L 127.631405 -36 
L 130.705785 -36 
L 133.780165 -36 
L 136.854545 -36 
L 139.928926 -36 
L 143.003306 -36 
L 146.077686 -36 
L 149.152066 -36 
L 152.226446 -36 
L 155.300826 -36 
L 158.375207 -36 
L 161.449587 -36 
L 164.523967 -36 
L 167.598347 -36 
L 170.672727 -36 
L 173.747107 -36 
L 176.821488 -36 
L 179.895868 -36 
L 182.970248 -36 
L 186.044628 -36 
L 189.119008 -36 
L 192.193388 -36 
L 195.267769 -36 
L 198.342149 -36 
L 201.416529 -36 
L 204.490909 -36 
L 207.565289 -36 
L 210.639669 -36 
L 213.71405 -36 
L 216.78843 -36 
L 219.86281 -36 
L 222.93719 -36 
L 226.01157 -36 
L 229.08595 -36 
L 232.160331 -36 
L 235.234711 -36 
L 238.309091 -36 
L 241.383471 -36 
L 244.457851 -36 
L 247.532231 -36 
L 250.606612 -36 
L 253.680992 -36 
L 256.755372 -36 
L 259.829752 -36 
L 262.904132 -36 
L 265.978512 -36 
L 269.052893 -36 
L 272.127273 -36 
L 275.201653 -36 
L 278.276033 -36 
L 281.350413 -36 
L 284.424793 -36 
L 287.499174 -36 
L 290.573554 -36 
L 293.647934 -36 
L 296.722314 -36 
L 299.796694 -36 
L 302.871074 -36 
L 305.945455 -36 
L 309.019835 -36 
L 312.094215 -36 
L 315.168595 -36 
L 318.242975 -36 
L 321.317355 -36 
L 324.391736 -36 
L 327.466116 -36 
L 330.540496 -36 
L 333.614876 -36 
L 336.689256 -36 
L 339.763636 -36 
L 342.838017 -36 
L 345.912397 -36 
L 348.986777 -36 
L 352.061157 -36 
L 355.135537 -36 
L 358.209917 -36 
L 361.284298 -36 
L 364.358678 -36 
L 367.433058 -36 
L 370.507438 -36 
L 373.581818 -36 
L 373.581818 -36.000925 
L 373.581818 -36.000925 
L 370.507438 -36.004101 
L 367.433058 -36.013527 
L 364.358678 -36.033348 
L 361.284298 -36.062423 
L 358.209917 -36.0931 
L 355.135537 -36.124446 
L 352.061157 -36.174193 
L 348.986777 -36.258374 
L 345.912397 -36.356131 
L 342.838017 -36.421919 
L 339.763636 -36.444617 
L 336.689256 -36.472746 
L 333.614876 -36.574245 
L 330.540496 -36.787696 
L 327.466116 -37.117061 
L 324.391736 -37.576607 
L 321.317355 -38.242135 
L 318.242975 -39.228633 
L 315.168595 -40.597129 
L 312.094215 -42.305387 
L 309.019835 -44.235846 
L 305.945455 -46.20849 
L 302.871074 -47.999319 
L 299.796694 -49.476511 
L 296.722314 -50.745606 
L 293.647934 -52.098147 
L 290.573554 -53.839647 
L 287.499174 -56.196132 
L 284.424793 -59.278486 
L 281.350413 -63.006406 
L 278.276033 -67.094228 
L 275.201653 -71.255189 
L 272.127273 -75.480269 
L 269.052893 -80.023795 
L 265.978512 -85.044927 
L 262.904132 -90.352996 
L 259.829752 -95.564809 
L 256.755372 -100.379427 
L 253.680992 -104.652997 
L 250.606612 -108.409739 
L 247.532231 -111.906449 
L 244.457851 -115.597274 
L 241.383471 -119.980022 
L 238.309091 -125.49253 
L 235.234711 -132.506807 
L 232.160331 -141.346808 
L 229.08595 -152.16072 
L 226.01157 -164.415919 
L 222.93719 -176.289628 
L 219.86281 -184.978292 
L 216.78843 -188.367579 
L 213.71405 -186.616748 
L 210.639669 -181.867453 
L 207.565289 -176.467147 
L 204.490909 -171.514158 
L 201.416529 -166.59711 
L 198.342149 -160.581655 
L 195.267769 -152.917859 
L 192.193388 -144.332614 
L 189.119008 -136.040882 
L 186.044628 -128.430517 
L 182.970248 -120.950176 
L 179.895868 -113.083416 
L 176.821488 -104.882871 
L 173.747107 -96.690919 
L 170.672727 -88.843199 
L 167.598347 -81.645892 
L 164.523967 -75.315969 
L 161.449587 -69.847519 
L 158.375207 -65.050589 
L 155.300826 -60.772284 
L 152.226446 -57.050495 
L 149.152066 -53.999055 
L 146.077686 -51.555713 
L 143.003306 -49.473173 
L 139.928926 -47.559883 
L 136.854545 -45.792707 
L 133.780165 -44.231974 
L 130.705785 -42.937093 
L 127.631405 -41.917072 
L 124.557025 -41.108584 
L 121.482645 -40.431399 
L 118.408264 -39.848468 
L 115.333884 -39.328829 
L 112.259504 -38.80132 
L 109.185124 -38.217361 
L 106.110744 -37.624712 
L 103.036364 -37.118551 
L 99.961983 -36.748714 
L 96.887603 -36.507012 
L 93.813223 -36.363249 
L 90.738843 -36.280499 
L 87.664463 -36.219899 
L 84.590083 -36.15744 
L 81.515702 -36.094536 
L 78.441322 -36.04529 
L 75.366942 -36.016848 
L 72.292562 -36.004792 
L 69.218182 -36.001032 
z
" id="m3e9ea6bd1e" style="stroke:#ffffff;stroke-opacity:0.25;"/>
    </defs>
    <g clip-path="url(#pf6de28aded)">
     <use style="fill:#2aa198;fill-opacity:0.25;stroke:#ffffff;stroke-opacity:0.25;" x="0" xlink:href="#m3e9ea6bd1e" y="288"/>
    </g>
   </g>
   <g id="line2d_16">
    <path clip-path="url(#pf6de28aded)" d="M 109.083487 251.997349 
L 111.257501 251.987605 
L 113.431515 251.956494 
L 115.60553 251.884265 
L 117.779544 251.762794 
L 119.953558 251.615698 
L 122.127572 251.490049 
L 124.301587 251.421597 
L 126.475601 251.406885 
L 128.649615 251.390609 
L 130.82363 251.279361 
L 132.997644 251.008934 
L 135.171658 250.615376 
L 137.345672 250.215021 
L 139.519687 249.895407 
L 141.693701 249.622877 
L 143.867715 249.274566 
L 146.04173 248.771841 
L 148.215744 248.144835 
L 150.389758 247.440044 
L 152.563772 246.599065 
L 154.737787 245.457155 
L 156.911801 243.829695 
L 159.085815 241.571247 
L 161.259829 238.637405 
L 163.433844 235.185133 
L 165.607858 231.503724 
L 167.781872 227.708867 
L 169.955887 223.57306 
L 172.129901 218.728187 
L 174.303915 212.959658 
L 176.477929 206.259204 
L 178.651944 198.69418 
L 180.825958 190.353741 
L 182.999972 181.407295 
L 185.173986 172.139432 
L 187.348001 162.799696 
L 189.522015 153.237732 
L 191.696029 142.895241 
L 193.870044 131.524633 
L 196.044058 119.629847 
L 198.218072 107.861393 
L 200.392086 96.471175 
L 202.566101 85.706826 
L 204.740115 76.160319 
L 206.914129 68.320752 
L 209.088143 62.053234 
L 211.262158 56.658807 
L 213.436172 51.529498 
L 215.610186 47.068006 
L 217.784201 44.914286 
L 219.958215 46.912433 
L 222.132229 53.744241 
L 224.306243 64.534674 
L 226.480258 77.570735 
L 228.654272 91.218487 
L 230.828286 104.425443 
L 233.0023 116.778527 
L 235.176315 128.04173 
L 237.350329 137.731908 
L 239.524343 145.676253 
L 241.698358 152.792794 
L 243.872372 160.423004 
L 246.046386 168.732966 
L 248.2204 176.441877 
L 250.394415 182.419506 
L 252.568429 187.102571 
L 254.742443 191.991789 
L 256.916457 198.016123 
L 259.090472 204.714819 
L 261.264486 210.941663 
L 263.4385 216.061523 
L 265.612515 220.271811 
L 267.786529 223.950006 
L 269.960543 227.149211 
L 272.134557 229.8558 
L 274.308572 232.328216 
L 276.482586 234.913896 
L 278.6566 237.694275 
L 280.830614 240.433117 
L 283.004629 242.829801 
L 285.178643 244.775126 
L 287.352657 246.334561 
L 289.526672 247.551013 
L 291.700686 248.410332 
L 293.8747 248.99761 
L 296.048714 249.515086 
L 298.222729 250.093512 
L 300.396743 250.691758 
L 302.570757 251.192206 
L 304.744771 251.521748 
L 306.918786 251.689771 
L 309.0928 251.759663 
L 311.266814 251.798447 
L 313.440829 251.843655 
L 315.614843 251.898667 
L 317.788857 251.948073 
L 319.962871 251.979603 
L 322.136886 251.993964 
L 324.3109 251.998667 
" style="fill:none;stroke:#268bd2;stroke-width:2;"/>
   </g>
   <g id="line2d_17">
    <path clip-path="url(#pf6de28aded)" d="M 69.218182 251.998968 
L 72.292562 251.995208 
L 75.366942 251.983152 
L 78.441322 251.95471 
L 81.515702 251.905464 
L 84.590083 251.84256 
L 87.664463 251.780101 
L 90.738843 251.719501 
L 93.813223 251.636751 
L 96.887603 251.492988 
L 99.961983 251.251286 
L 103.036364 250.881449 
L 106.110744 250.375288 
L 109.185124 249.782639 
L 112.259504 249.19868 
L 115.333884 248.671171 
L 118.408264 248.151532 
L 121.482645 247.568601 
L 124.557025 246.891416 
L 127.631405 246.082928 
L 130.705785 245.062907 
L 133.780165 243.768026 
L 136.854545 242.207293 
L 139.928926 240.440117 
L 143.003306 238.526827 
L 146.077686 236.444287 
L 149.152066 234.000945 
L 152.226446 230.949505 
L 155.300826 227.227716 
L 158.375207 222.949411 
L 161.449587 218.152481 
L 164.523967 212.684031 
L 167.598347 206.354108 
L 170.672727 199.156801 
L 173.747107 191.309081 
L 176.821488 183.117129 
L 179.895868 174.916584 
L 182.970248 167.049824 
L 186.044628 159.569483 
L 189.119008 151.959118 
L 192.193388 143.667386 
L 195.267769 135.082141 
L 198.342149 127.418345 
L 201.416529 121.40289 
L 204.490909 116.485842 
L 207.565289 111.532853 
L 210.639669 106.132547 
L 213.71405 101.383252 
L 216.78843 99.632421 
L 219.86281 103.021708 
L 222.93719 111.710372 
L 226.01157 123.584081 
L 229.08595 135.83928 
L 232.160331 146.653192 
L 235.234711 155.493193 
L 238.309091 162.50747 
L 241.383471 168.019978 
L 244.457851 172.402726 
L 247.532231 176.093551 
L 250.606612 179.590261 
L 253.680992 183.347003 
L 256.755372 187.620573 
L 259.829752 192.435191 
L 262.904132 197.647004 
L 265.978512 202.955073 
L 269.052893 207.976205 
L 272.127273 212.519731 
L 275.201653 216.744811 
L 278.276033 220.905772 
L 281.350413 224.993594 
L 284.424793 228.721514 
L 287.499174 231.803868 
L 290.573554 234.160353 
L 293.647934 235.901853 
L 296.722314 237.254394 
L 299.796694 238.523489 
L 302.871074 240.000681 
L 305.945455 241.79151 
L 309.019835 243.764154 
L 312.094215 245.694613 
L 315.168595 247.402871 
L 318.242975 248.771367 
L 321.317355 249.757865 
L 324.391736 250.423393 
L 327.466116 250.882939 
L 330.540496 251.212304 
L 333.614876 251.425755 
L 336.689256 251.527254 
L 339.763636 251.555383 
L 342.838017 251.578081 
L 345.912397 251.643869 
L 348.986777 251.741626 
L 352.061157 251.825807 
L 355.135537 251.875554 
L 358.209917 251.9069 
L 361.284298 251.937577 
L 364.358678 251.966652 
L 367.433058 251.986473 
L 370.507438 251.995899 
L 373.581818 251.999075 
" style="fill:none;stroke:#2aa198;stroke-width:2;"/>
   </g>
   <g id="patch_3">
    <path d="M 54 252 
L 54 34.56 
" style="fill:none;stroke:#eee8d5;stroke-linecap:square;stroke-linejoin:miter;stroke-width:1.25;"/>
   </g>
   <g id="patch_4">
    <path d="M 388.8 252 
L 388.8 34.56 
" style="fill:none;stroke:#eee8d5;stroke-linecap:square;stroke-linejoin:miter;stroke-width:1.25;"/>
   </g>
   <g id="patch_5">
    <path d="M 54 252 
L 388.8 252 
" style="fill:none;stroke:#eee8d5;stroke-linecap:square;stroke-linejoin:miter;stroke-width:1.25;"/>
   </g>
   <g id="patch_6">
    <path d="M 54 34.56 
L 388.8 34.56 
" style="fill:none;stroke:#eee8d5;stroke-linecap:square;stroke-linejoin:miter;stroke-width:1.25;"/>
   </g>
   <g id="text_18">
    <!-- $\Delta U = 0.5\, \mathrm{k_BT}$ -->
    <defs>
     <path d="M 34.1875 63.1875 
L 14.15625 8.203125 
L 54.25 8.203125 
z
M 0.78125 0 
L 28.609375 72.90625 
L 39.796875 72.90625 
L 67.578125 0 
z
" id="DejaVuSans-916"/>
     <path d="M 15.484375 72.90625 
L 25.390625 72.90625 
L 16.796875 28.609375 
Q 16.265625 25.640625 16.046875 23.703125 
Q 15.828125 21.78125 15.828125 20.3125 
Q 15.828125 13.578125 19.578125 10.078125 
Q 23.34375 6.59375 30.609375 6.59375 
Q 40.046875 6.59375 45.28125 11.765625 
Q 50.53125 16.9375 52.78125 28.609375 
L 61.375 72.90625 
L 71.296875 72.90625 
L 62.5 27.390625 
Q 59.625 12.640625 51.5625 5.609375 
Q 43.5 -1.421875 29.5 -1.421875 
Q 18.5625 -1.421875 12.1875 4.078125 
Q 5.8125 9.578125 5.8125 19 
Q 5.8125 20.703125 6.046875 22.828125 
Q 6.296875 24.953125 6.78125 27.390625 
z
" id="DejaVuSans-Oblique-85"/>
     <path d="M 10.59375 45.40625 
L 73.1875 45.40625 
L 73.1875 37.203125 
L 10.59375 37.203125 
z
M 10.59375 25.484375 
L 73.1875 25.484375 
L 73.1875 17.1875 
L 10.59375 17.1875 
z
" id="DejaVuSans-61"/>
     <path d="M 31.78125 66.40625 
Q 24.171875 66.40625 20.328125 58.90625 
Q 16.5 51.421875 16.5 36.375 
Q 16.5 21.390625 20.328125 13.890625 
Q 24.171875 6.390625 31.78125 6.390625 
Q 39.453125 6.390625 43.28125 13.890625 
Q 47.125 21.390625 47.125 36.375 
Q 47.125 51.421875 43.28125 58.90625 
Q 39.453125 66.40625 31.78125 66.40625 
z
M 31.78125 74.21875 
Q 44.046875 74.21875 50.515625 64.515625 
Q 56.984375 54.828125 56.984375 36.375 
Q 56.984375 17.96875 50.515625 8.265625 
Q 44.046875 -1.421875 31.78125 -1.421875 
Q 19.53125 -1.421875 13.0625 8.265625 
Q 6.59375 17.96875 6.59375 36.375 
Q 6.59375 54.828125 13.0625 64.515625 
Q 19.53125 74.21875 31.78125 74.21875 
z
" id="DejaVuSans-48"/>
     <path d="M 10.6875 12.40625 
L 21 12.40625 
L 21 0 
L 10.6875 0 
z
" id="DejaVuSans-46"/>
     <path d="M 10.796875 72.90625 
L 49.515625 72.90625 
L 49.515625 64.59375 
L 19.828125 64.59375 
L 19.828125 46.734375 
Q 21.96875 47.46875 24.109375 47.828125 
Q 26.265625 48.1875 28.421875 48.1875 
Q 40.625 48.1875 47.75 41.5 
Q 54.890625 34.8125 54.890625 23.390625 
Q 54.890625 11.625 47.5625 5.09375 
Q 40.234375 -1.421875 26.90625 -1.421875 
Q 22.3125 -1.421875 17.546875 -0.640625 
Q 12.796875 0.140625 7.71875 1.703125 
L 7.71875 11.625 
Q 12.109375 9.234375 16.796875 8.0625 
Q 21.484375 6.890625 26.703125 6.890625 
Q 35.15625 6.890625 40.078125 11.328125 
Q 45.015625 15.765625 45.015625 23.390625 
Q 45.015625 31 40.078125 35.4375 
Q 35.15625 39.890625 26.703125 39.890625 
Q 22.75 39.890625 18.8125 39.015625 
Q 14.890625 38.140625 10.796875 36.28125 
z
" id="DejaVuSans-53"/>
     <path d="M 9.078125 75.984375 
L 18.109375 75.984375 
L 18.109375 31.109375 
L 44.921875 54.6875 
L 56.390625 54.6875 
L 27.390625 29.109375 
L 57.625 0 
L 45.90625 0 
L 18.109375 26.703125 
L 18.109375 0 
L 9.078125 0 
z
" id="DejaVuSans-107"/>
     <path d="M 19.671875 34.8125 
L 19.671875 8.109375 
L 35.5 8.109375 
Q 43.453125 8.109375 47.28125 11.40625 
Q 51.125 14.703125 51.125 21.484375 
Q 51.125 28.328125 47.28125 31.5625 
Q 43.453125 34.8125 35.5 34.8125 
z
M 19.671875 64.796875 
L 19.671875 42.828125 
L 34.28125 42.828125 
Q 41.5 42.828125 45.03125 45.53125 
Q 48.578125 48.25 48.578125 53.8125 
Q 48.578125 59.328125 45.03125 62.0625 
Q 41.5 64.796875 34.28125 64.796875 
z
M 9.8125 72.90625 
L 35.015625 72.90625 
Q 46.296875 72.90625 52.390625 68.21875 
Q 58.5 63.53125 58.5 54.890625 
Q 58.5 48.1875 55.375 44.234375 
Q 52.25 40.28125 46.1875 39.3125 
Q 53.46875 37.75 57.5 32.78125 
Q 61.53125 27.828125 61.53125 20.40625 
Q 61.53125 10.640625 54.890625 5.3125 
Q 48.25 0 35.984375 0 
L 9.8125 0 
z
" id="DejaVuSans-66"/>
     <path d="M -0.296875 72.90625 
L 61.375 72.90625 
L 61.375 64.59375 
L 35.5 64.59375 
L 35.5 0 
L 25.59375 0 
L 25.59375 64.59375 
L -0.296875 64.59375 
z
" id="DejaVuSans-84"/>
    </defs>
    <g style="fill:#262626;" transform="translate(172.52 28.56)scale(0.16 -0.16)">
     <use transform="translate(0 0.015625)" xlink:href="#DejaVuSans-916"/>
     <use transform="translate(68.408203 0.015625)" xlink:href="#DejaVuSans-Oblique-85"/>
     <use transform="translate(161.083984 0.015625)" xlink:href="#DejaVuSans-61"/>
     <use transform="translate(264.355469 0.015625)" xlink:href="#DejaVuSans-48"/>
     <use transform="translate(327.978516 0.015625)" xlink:href="#DejaVuSans-46"/>
     <use transform="translate(359.765625 0.015625)" xlink:href="#DejaVuSans-53"/>
     <use transform="translate(439.624348 0.015625)" xlink:href="#DejaVuSans-107"/>
     <use transform="translate(498.491536 -16.390625)scale(0.7)" xlink:href="#DejaVuSans-66"/>
     <use transform="translate(549.248372 0.015625)" xlink:href="#DejaVuSans-84"/>
    </g>
   </g>
   <g id="legend_1">
    <g id="patch_7">
     <path d="M 253.8 94.26 
L 378.3 94.26 
Q 381.3 94.26 381.3 91.26 
L 381.3 45.06 
Q 381.3 42.06 378.3 42.06 
L 253.8 42.06 
Q 250.8 42.06 250.8 45.06 
L 250.8 91.26 
Q 250.8 94.26 253.8 94.26 
z
" style="fill:#eee8d5;opacity:0.8;stroke:#cccccc;stroke-linejoin:miter;"/>
    </g>
    <g id="line2d_18">
     <path d="M 256.8 56.17875 
L 286.8 56.17875 
" style="fill:none;stroke:#268bd2;stroke-width:2;"/>
    </g>
    <g id="line2d_19"/>
    <g id="text_19">
     <!-- $\hat t$ = 0.9998s -->
     <defs>
      <path d="M -28.609375 79.984375 
L -21.390625 79.984375 
L -9.421875 61.625 
L -16.21875 61.625 
L -25 73.578125 
L -33.796875 61.625 
L -40.578125 61.625 
z
M -25 56 
z
" id="DejaVuSans-770"/>
      <path d="M 42.28125 54.6875 
L 40.921875 47.703125 
L 23 47.703125 
L 17.1875 18.015625 
Q 16.890625 16.359375 16.75 15.234375 
Q 16.609375 14.109375 16.609375 13.484375 
Q 16.609375 10.359375 18.484375 8.9375 
Q 20.359375 7.515625 24.515625 7.515625 
L 33.59375 7.515625 
L 32.078125 0 
L 23.484375 0 
Q 15.484375 0 11.546875 3.125 
Q 7.625 6.25 7.625 12.59375 
Q 7.625 13.71875 7.765625 15.0625 
Q 7.90625 16.40625 8.203125 18.015625 
L 14.015625 47.703125 
L 6.390625 47.703125 
L 7.8125 54.6875 
L 15.28125 54.6875 
L 18.3125 70.21875 
L 27.296875 70.21875 
L 24.3125 54.6875 
z
" id="DejaVuSans-Oblique-116"/>
      <path id="ArialMT-32"/>
      <path d="M 52.828125 42.09375 
L 5.5625 42.09375 
L 5.5625 50.296875 
L 52.828125 50.296875 
z
M 52.828125 20.359375 
L 5.5625 20.359375 
L 5.5625 28.5625 
L 52.828125 28.5625 
z
" id="ArialMT-61"/>
      <path d="M 5.46875 16.546875 
L 13.921875 17.328125 
Q 14.984375 11.375 18.015625 8.6875 
Q 21.046875 6 25.78125 6 
Q 29.828125 6 32.875 7.859375 
Q 35.9375 9.71875 37.890625 12.8125 
Q 39.84375 15.921875 41.15625 21.1875 
Q 42.484375 26.46875 42.484375 31.9375 
Q 42.484375 32.515625 42.4375 33.6875 
Q 39.796875 29.5 35.234375 26.875 
Q 30.671875 24.265625 25.34375 24.265625 
Q 16.453125 24.265625 10.296875 30.703125 
Q 4.15625 37.15625 4.15625 47.703125 
Q 4.15625 58.59375 10.578125 65.234375 
Q 17 71.875 26.65625 71.875 
Q 33.640625 71.875 39.421875 68.109375 
Q 45.21875 64.359375 48.21875 57.390625 
Q 51.21875 50.4375 51.21875 37.25 
Q 51.21875 23.53125 48.234375 15.40625 
Q 45.265625 7.28125 39.375 3.03125 
Q 33.5 -1.21875 25.59375 -1.21875 
Q 17.1875 -1.21875 11.859375 3.4375 
Q 6.546875 8.109375 5.46875 16.546875 
z
M 41.453125 48.140625 
Q 41.453125 55.71875 37.421875 60.15625 
Q 33.40625 64.59375 27.734375 64.59375 
Q 21.875 64.59375 17.53125 59.8125 
Q 13.1875 55.03125 13.1875 47.40625 
Q 13.1875 40.578125 17.3125 36.296875 
Q 21.4375 32.03125 27.484375 32.03125 
Q 33.59375 32.03125 37.515625 36.296875 
Q 41.453125 40.578125 41.453125 48.140625 
z
" id="ArialMT-57"/>
     </defs>
     <g style="fill:#262626;" transform="translate(298.8 61.42875)scale(0.15 -0.15)">
      <use transform="translate(47.546875 27.015625)" xlink:href="#DejaVuSans-770"/>
      <use transform="translate(0 0.296875)" xlink:href="#DejaVuSans-Oblique-116"/>
      <use transform="translate(39.208984 0.296875)" xlink:href="#ArialMT-32"/>
      <use transform="translate(66.992188 0.296875)" xlink:href="#ArialMT-61"/>
      <use transform="translate(125.390625 0.296875)" xlink:href="#ArialMT-32"/>
      <use transform="translate(153.173828 0.296875)" xlink:href="#ArialMT-48"/>
      <use transform="translate(208.789062 0.296875)" xlink:href="#ArialMT-46"/>
      <use transform="translate(236.572266 0.296875)" xlink:href="#ArialMT-57"/>
      <use transform="translate(292.1875 0.296875)" xlink:href="#ArialMT-57"/>
      <use transform="translate(347.802734 0.296875)" xlink:href="#ArialMT-57"/>
      <use transform="translate(403.417969 0.296875)" xlink:href="#ArialMT-56"/>
      <use transform="translate(459.033203 0.296875)" xlink:href="#ArialMT-115"/>
     </g>
    </g>
    <g id="line2d_20">
     <path d="M 256.8 80.02875 
L 286.8 80.02875 
" style="fill:none;stroke:#2aa198;stroke-width:2;"/>
    </g>
    <g id="line2d_21"/>
    <g id="text_20">
     <!-- $\hat t$ = 1.9999s -->
     <g style="fill:#262626;" transform="translate(298.8 85.27875)scale(0.15 -0.15)">
      <use transform="translate(47.546875 27.015625)" xlink:href="#DejaVuSans-770"/>
      <use transform="translate(0 0.296875)" xlink:href="#DejaVuSans-Oblique-116"/>
      <use transform="translate(39.208984 0.296875)" xlink:href="#ArialMT-32"/>
      <use transform="translate(66.992188 0.296875)" xlink:href="#ArialMT-61"/>
      <use transform="translate(125.390625 0.296875)" xlink:href="#ArialMT-32"/>
      <use transform="translate(153.173828 0.296875)" xlink:href="#ArialMT-49"/>
      <use transform="translate(208.789062 0.296875)" xlink:href="#ArialMT-46"/>
      <use transform="translate(236.572266 0.296875)" xlink:href="#ArialMT-57"/>
      <use transform="translate(292.1875 0.296875)" xlink:href="#ArialMT-57"/>
      <use transform="translate(347.802734 0.296875)" xlink:href="#ArialMT-57"/>
      <use transform="translate(403.417969 0.296875)" xlink:href="#ArialMT-57"/>
      <use transform="translate(459.033203 0.296875)" xlink:href="#ArialMT-115"/>
     </g>
    </g>
   </g>
  </g>
 </g>
 <defs>
  <clipPath id="pf6de28aded">
   <rect height="217.44" width="334.8" x="54" y="34.56"/>
  </clipPath>
 </defs>
</svg>
