<?xml version="1.0" encoding="utf-8" standalone="no"?>
<!DOCTYPE svg PUBLIC "-//W3C//DTD SVG 1.1//EN"
  "http://www.w3.org/Graphics/SVG/1.1/DTD/svg11.dtd">
<!-- Created with matplotlib (https://matplotlib.org/) -->
<svg height="288pt" version="1.1" viewBox="0 0 432 288" width="432pt" xmlns="http://www.w3.org/2000/svg" xmlns:xlink="http://www.w3.org/1999/xlink">
 <defs>
  <style type="text/css">
*{stroke-linecap:butt;stroke-linejoin:round;}
  </style>
 </defs>
 <g id="figure_1">
  <g id="patch_1">
   <path d="M 0 288 
L 432 288 
L 432 0 
L 0 0 
z
" style="fill:#ffffff;"/>
  </g>
  <g id="axes_1">
   <g id="patch_2">
    <path d="M 54 252 
L 388.8 252 
L 388.8 34.56 
L 54 34.56 
z
" style="fill:#eee8d5;"/>
   </g>
   <g id="matplotlib.axis_1">
    <g id="xtick_1">
     <g id="line2d_1">
      <path clip-path="url(#pe6694f8b3b)" d="M 95.278103 252 
L 95.278103 34.56 
" style="fill:none;stroke:#fdf6e3;"/>
     </g>
     <g id="text_1">
      <!-- −1.5 -->
      <defs>
       <path d="M 52.828125 31.203125 
L 5.5625 31.203125 
L 5.5625 39.40625 
L 52.828125 39.40625 
z
" id="ArialMT-8722"/>
       <path d="M 37.25 0 
L 28.46875 0 
L 28.46875 56 
Q 25.296875 52.984375 20.140625 49.953125 
Q 14.984375 46.921875 10.890625 45.40625 
L 10.890625 53.90625 
Q 18.265625 57.375 23.78125 62.296875 
Q 29.296875 67.234375 31.59375 71.875 
L 37.25 71.875 
z
" id="ArialMT-49"/>
       <path d="M 9.078125 0 
L 9.078125 10.015625 
L 19.09375 10.015625 
L 19.09375 0 
z
" id="ArialMT-46"/>
       <path d="M 4.15625 18.75 
L 13.375 19.53125 
Q 14.40625 12.796875 18.140625 9.390625 
Q 21.875 6 27.15625 6 
Q 33.5 6 37.890625 10.78125 
Q 42.28125 15.578125 42.28125 23.484375 
Q 42.28125 31 38.0625 35.34375 
Q 33.84375 39.703125 27 39.703125 
Q 22.75 39.703125 19.328125 37.765625 
Q 15.921875 35.84375 13.96875 32.765625 
L 5.71875 33.84375 
L 12.640625 70.609375 
L 48.25 70.609375 
L 48.25 62.203125 
L 19.671875 62.203125 
L 15.828125 42.96875 
Q 22.265625 47.46875 29.34375 47.46875 
Q 38.71875 47.46875 45.15625 40.96875 
Q 51.609375 34.46875 51.609375 24.265625 
Q 51.609375 14.546875 45.953125 7.46875 
Q 39.0625 -1.21875 27.15625 -1.21875 
Q 17.390625 -1.21875 11.203125 4.25 
Q 5.03125 9.71875 4.15625 18.75 
z
" id="ArialMT-53"/>
      </defs>
      <g style="fill:#657b83;" transform="translate(84.420759 269.373594)scale(0.11 -0.11)">
       <use xlink:href="#ArialMT-8722"/>
       <use x="58.398438" xlink:href="#ArialMT-49"/>
       <use x="114.013672" xlink:href="#ArialMT-46"/>
       <use x="141.796875" xlink:href="#ArialMT-53"/>
      </g>
     </g>
    </g>
    <g id="xtick_2">
     <g id="line2d_2">
      <path clip-path="url(#pe6694f8b3b)" d="M 140.528218 252 
L 140.528218 34.56 
" style="fill:none;stroke:#fdf6e3;"/>
     </g>
     <g id="text_2">
      <!-- −1.0 -->
      <defs>
       <path d="M 4.15625 35.296875 
Q 4.15625 48 6.765625 55.734375 
Q 9.375 63.484375 14.515625 67.671875 
Q 19.671875 71.875 27.484375 71.875 
Q 33.25 71.875 37.59375 69.546875 
Q 41.9375 67.234375 44.765625 62.859375 
Q 47.609375 58.5 49.21875 52.21875 
Q 50.828125 45.953125 50.828125 35.296875 
Q 50.828125 22.703125 48.234375 14.96875 
Q 45.65625 7.234375 40.5 3 
Q 35.359375 -1.21875 27.484375 -1.21875 
Q 17.140625 -1.21875 11.234375 6.203125 
Q 4.15625 15.140625 4.15625 35.296875 
z
M 13.1875 35.296875 
Q 13.1875 17.671875 17.3125 11.828125 
Q 21.4375 6 27.484375 6 
Q 33.546875 6 37.671875 11.859375 
Q 41.796875 17.71875 41.796875 35.296875 
Q 41.796875 52.984375 37.671875 58.78125 
Q 33.546875 64.59375 27.390625 64.59375 
Q 21.34375 64.59375 17.71875 59.46875 
Q 13.1875 52.9375 13.1875 35.296875 
z
" id="ArialMT-48"/>
      </defs>
      <g style="fill:#657b83;" transform="translate(129.670875 269.373594)scale(0.11 -0.11)">
       <use xlink:href="#ArialMT-8722"/>
       <use x="58.398438" xlink:href="#ArialMT-49"/>
       <use x="114.013672" xlink:href="#ArialMT-46"/>
       <use x="141.796875" xlink:href="#ArialMT-48"/>
      </g>
     </g>
    </g>
    <g id="xtick_3">
     <g id="line2d_3">
      <path clip-path="url(#pe6694f8b3b)" d="M 185.778334 252 
L 185.778334 34.56 
" style="fill:none;stroke:#fdf6e3;"/>
     </g>
     <g id="text_3">
      <!-- −0.5 -->
      <g style="fill:#657b83;" transform="translate(174.92099 269.373594)scale(0.11 -0.11)">
       <use xlink:href="#ArialMT-8722"/>
       <use x="58.398438" xlink:href="#ArialMT-48"/>
       <use x="114.013672" xlink:href="#ArialMT-46"/>
       <use x="141.796875" xlink:href="#ArialMT-53"/>
      </g>
     </g>
    </g>
    <g id="xtick_4">
     <g id="line2d_4">
      <path clip-path="url(#pe6694f8b3b)" d="M 231.02845 252 
L 231.02845 34.56 
" style="fill:none;stroke:#fdf6e3;"/>
     </g>
     <g id="text_4">
      <!-- 0.0 -->
      <g style="fill:#657b83;" transform="translate(223.38345 269.373594)scale(0.11 -0.11)">
       <use xlink:href="#ArialMT-48"/>
       <use x="55.615234" xlink:href="#ArialMT-46"/>
       <use x="83.398438" xlink:href="#ArialMT-48"/>
      </g>
     </g>
    </g>
    <g id="xtick_5">
     <g id="line2d_5">
      <path clip-path="url(#pe6694f8b3b)" d="M 276.278565 252 
L 276.278565 34.56 
" style="fill:none;stroke:#fdf6e3;"/>
     </g>
     <g id="text_5">
      <!-- 0.5 -->
      <g style="fill:#657b83;" transform="translate(268.633565 269.373594)scale(0.11 -0.11)">
       <use xlink:href="#ArialMT-48"/>
       <use x="55.615234" xlink:href="#ArialMT-46"/>
       <use x="83.398438" xlink:href="#ArialMT-53"/>
      </g>
     </g>
    </g>
    <g id="xtick_6">
     <g id="line2d_6">
      <path clip-path="url(#pe6694f8b3b)" d="M 321.528681 252 
L 321.528681 34.56 
" style="fill:none;stroke:#fdf6e3;"/>
     </g>
     <g id="text_6">
      <!-- 1.0 -->
      <g style="fill:#657b83;" transform="translate(313.883681 269.373594)scale(0.11 -0.11)">
       <use xlink:href="#ArialMT-49"/>
       <use x="55.615234" xlink:href="#ArialMT-46"/>
       <use x="83.398438" xlink:href="#ArialMT-48"/>
      </g>
     </g>
    </g>
    <g id="xtick_7">
     <g id="line2d_7">
      <path clip-path="url(#pe6694f8b3b)" d="M 366.778797 252 
L 366.778797 34.56 
" style="fill:none;stroke:#fdf6e3;"/>
     </g>
     <g id="text_7">
      <!-- 1.5 -->
      <g style="fill:#657b83;" transform="translate(359.133797 269.373594)scale(0.11 -0.11)">
       <use xlink:href="#ArialMT-49"/>
       <use x="55.615234" xlink:href="#ArialMT-46"/>
       <use x="83.398438" xlink:href="#ArialMT-53"/>
      </g>
     </g>
    </g>
    <g id="text_8">
     <!-- $\frac{x}{L}$ -->
     <defs>
      <path d="M 60.015625 54.6875 
L 34.90625 27.875 
L 50.296875 0 
L 39.984375 0 
L 28.421875 21.6875 
L 8.296875 0 
L -2.59375 0 
L 24.3125 28.8125 
L 10.015625 54.6875 
L 20.3125 54.6875 
L 30.8125 34.90625 
L 49.125 54.6875 
z
" id="DejaVuSans-Oblique-120"/>
      <path d="M 16.796875 72.90625 
L 26.703125 72.90625 
L 14.203125 8.203125 
L 49.703125 8.203125 
L 48.09375 0 
L 2.6875 0 
z
" id="DejaVuSans-Oblique-76"/>
     </defs>
     <g style="fill:#657b83;" transform="translate(216 292.159844)scale(0.2 -0.2)">
      <use transform="translate(0 44.71875)scale(0.7)" xlink:href="#DejaVuSans-Oblique-120"/>
      <use transform="translate(1 -37.565625)scale(0.7)" xlink:href="#DejaVuSans-Oblique-76"/>
      <path d="M 0 19.71875 
L 0 25.96875 
L 41.425781 25.96875 
L 41.425781 19.71875 
L 0 19.71875 
z
"/>
     </g>
    </g>
   </g>
   <g id="matplotlib.axis_2">
    <g id="ytick_1">
     <g id="line2d_8">
      <path clip-path="url(#pe6694f8b3b)" d="M 54 252 
L 388.8 252 
" style="fill:none;stroke:#fdf6e3;"/>
     </g>
     <g id="text_9">
      <!-- 0.0 -->
      <g style="fill:#657b83;" transform="translate(29.21 255.936797)scale(0.11 -0.11)">
       <use xlink:href="#ArialMT-48"/>
       <use x="55.615234" xlink:href="#ArialMT-46"/>
       <use x="83.398438" xlink:href="#ArialMT-48"/>
      </g>
     </g>
    </g>
    <g id="ytick_2">
     <g id="line2d_9">
      <path clip-path="url(#pe6694f8b3b)" d="M 54 221.099398 
L 388.8 221.099398 
" style="fill:none;stroke:#fdf6e3;"/>
     </g>
     <g id="text_10">
      <!-- 0.2 -->
      <defs>
       <path d="M 50.34375 8.453125 
L 50.34375 0 
L 3.03125 0 
Q 2.9375 3.171875 4.046875 6.109375 
Q 5.859375 10.9375 9.828125 15.625 
Q 13.8125 20.3125 21.34375 26.46875 
Q 33.015625 36.03125 37.109375 41.625 
Q 41.21875 47.21875 41.21875 52.203125 
Q 41.21875 57.421875 37.46875 61 
Q 33.734375 64.59375 27.734375 64.59375 
Q 21.390625 64.59375 17.578125 60.78125 
Q 13.765625 56.984375 13.71875 50.25 
L 4.6875 51.171875 
Q 5.609375 61.28125 11.65625 66.578125 
Q 17.71875 71.875 27.9375 71.875 
Q 38.234375 71.875 44.234375 66.15625 
Q 50.25 60.453125 50.25 52 
Q 50.25 47.703125 48.484375 43.546875 
Q 46.734375 39.40625 42.65625 34.8125 
Q 38.578125 30.21875 29.109375 22.21875 
Q 21.1875 15.578125 18.9375 13.203125 
Q 16.703125 10.84375 15.234375 8.453125 
z
" id="ArialMT-50"/>
      </defs>
      <g style="fill:#657b83;" transform="translate(29.21 225.036194)scale(0.11 -0.11)">
       <use xlink:href="#ArialMT-48"/>
       <use x="55.615234" xlink:href="#ArialMT-46"/>
       <use x="83.398438" xlink:href="#ArialMT-50"/>
      </g>
     </g>
    </g>
    <g id="ytick_3">
     <g id="line2d_10">
      <path clip-path="url(#pe6694f8b3b)" d="M 54 190.198795 
L 388.8 190.198795 
" style="fill:none;stroke:#fdf6e3;"/>
     </g>
     <g id="text_11">
      <!-- 0.4 -->
      <defs>
       <path d="M 32.328125 0 
L 32.328125 17.140625 
L 1.265625 17.140625 
L 1.265625 25.203125 
L 33.9375 71.578125 
L 41.109375 71.578125 
L 41.109375 25.203125 
L 50.78125 25.203125 
L 50.78125 17.140625 
L 41.109375 17.140625 
L 41.109375 0 
z
M 32.328125 25.203125 
L 32.328125 57.46875 
L 9.90625 25.203125 
z
" id="ArialMT-52"/>
      </defs>
      <g style="fill:#657b83;" transform="translate(29.21 194.135592)scale(0.11 -0.11)">
       <use xlink:href="#ArialMT-48"/>
       <use x="55.615234" xlink:href="#ArialMT-46"/>
       <use x="83.398438" xlink:href="#ArialMT-52"/>
      </g>
     </g>
    </g>
    <g id="ytick_4">
     <g id="line2d_11">
      <path clip-path="url(#pe6694f8b3b)" d="M 54 159.298193 
L 388.8 159.298193 
" style="fill:none;stroke:#fdf6e3;"/>
     </g>
     <g id="text_12">
      <!-- 0.6 -->
      <defs>
       <path d="M 49.75 54.046875 
L 41.015625 53.375 
Q 39.84375 58.546875 37.703125 60.890625 
Q 34.125 64.65625 28.90625 64.65625 
Q 24.703125 64.65625 21.53125 62.3125 
Q 17.390625 59.28125 14.984375 53.46875 
Q 12.59375 47.65625 12.5 36.921875 
Q 15.671875 41.75 20.265625 44.09375 
Q 24.859375 46.4375 29.890625 46.4375 
Q 38.671875 46.4375 44.84375 39.96875 
Q 51.03125 33.5 51.03125 23.25 
Q 51.03125 16.5 48.125 10.71875 
Q 45.21875 4.9375 40.140625 1.859375 
Q 35.0625 -1.21875 28.609375 -1.21875 
Q 17.625 -1.21875 10.6875 6.859375 
Q 3.765625 14.9375 3.765625 33.5 
Q 3.765625 54.25 11.421875 63.671875 
Q 18.109375 71.875 29.4375 71.875 
Q 37.890625 71.875 43.28125 67.140625 
Q 48.6875 62.40625 49.75 54.046875 
z
M 13.875 23.1875 
Q 13.875 18.65625 15.796875 14.5 
Q 17.71875 10.359375 21.1875 8.171875 
Q 24.65625 6 28.46875 6 
Q 34.03125 6 38.03125 10.484375 
Q 42.046875 14.984375 42.046875 22.703125 
Q 42.046875 30.125 38.078125 34.390625 
Q 34.125 38.671875 28.125 38.671875 
Q 22.171875 38.671875 18.015625 34.390625 
Q 13.875 30.125 13.875 23.1875 
z
" id="ArialMT-54"/>
      </defs>
      <g style="fill:#657b83;" transform="translate(29.21 163.23499)scale(0.11 -0.11)">
       <use xlink:href="#ArialMT-48"/>
       <use x="55.615234" xlink:href="#ArialMT-46"/>
       <use x="83.398438" xlink:href="#ArialMT-54"/>
      </g>
     </g>
    </g>
    <g id="ytick_5">
     <g id="line2d_12">
      <path clip-path="url(#pe6694f8b3b)" d="M 54 128.39759 
L 388.8 128.39759 
" style="fill:none;stroke:#fdf6e3;"/>
     </g>
     <g id="text_13">
      <!-- 0.8 -->
      <defs>
       <path d="M 17.671875 38.8125 
Q 12.203125 40.828125 9.5625 44.53125 
Q 6.9375 48.25 6.9375 53.421875 
Q 6.9375 61.234375 12.546875 66.546875 
Q 18.171875 71.875 27.484375 71.875 
Q 36.859375 71.875 42.578125 66.421875 
Q 48.296875 60.984375 48.296875 53.171875 
Q 48.296875 48.1875 45.671875 44.5 
Q 43.0625 40.828125 37.75 38.8125 
Q 44.34375 36.671875 47.78125 31.875 
Q 51.21875 27.09375 51.21875 20.453125 
Q 51.21875 11.28125 44.71875 5.03125 
Q 38.234375 -1.21875 27.640625 -1.21875 
Q 17.046875 -1.21875 10.546875 5.046875 
Q 4.046875 11.328125 4.046875 20.703125 
Q 4.046875 27.6875 7.59375 32.390625 
Q 11.140625 37.109375 17.671875 38.8125 
z
M 15.921875 53.71875 
Q 15.921875 48.640625 19.1875 45.40625 
Q 22.46875 42.1875 27.6875 42.1875 
Q 32.765625 42.1875 36.015625 45.375 
Q 39.265625 48.578125 39.265625 53.21875 
Q 39.265625 58.0625 35.90625 61.359375 
Q 32.5625 64.65625 27.59375 64.65625 
Q 22.5625 64.65625 19.234375 61.421875 
Q 15.921875 58.203125 15.921875 53.71875 
z
M 13.09375 20.65625 
Q 13.09375 16.890625 14.875 13.375 
Q 16.65625 9.859375 20.171875 7.921875 
Q 23.6875 6 27.734375 6 
Q 34.03125 6 38.125 10.046875 
Q 42.234375 14.109375 42.234375 20.359375 
Q 42.234375 26.703125 38.015625 30.859375 
Q 33.796875 35.015625 27.4375 35.015625 
Q 21.234375 35.015625 17.15625 30.90625 
Q 13.09375 26.8125 13.09375 20.65625 
z
" id="ArialMT-56"/>
      </defs>
      <g style="fill:#657b83;" transform="translate(29.21 132.334387)scale(0.11 -0.11)">
       <use xlink:href="#ArialMT-48"/>
       <use x="55.615234" xlink:href="#ArialMT-46"/>
       <use x="83.398438" xlink:href="#ArialMT-56"/>
      </g>
     </g>
    </g>
    <g id="ytick_6">
     <g id="line2d_13">
      <path clip-path="url(#pe6694f8b3b)" d="M 54 97.496988 
L 388.8 97.496988 
" style="fill:none;stroke:#fdf6e3;"/>
     </g>
     <g id="text_14">
      <!-- 1.0 -->
      <g style="fill:#657b83;" transform="translate(29.21 101.433785)scale(0.11 -0.11)">
       <use xlink:href="#ArialMT-49"/>
       <use x="55.615234" xlink:href="#ArialMT-46"/>
       <use x="83.398438" xlink:href="#ArialMT-48"/>
      </g>
     </g>
    </g>
    <g id="ytick_7">
     <g id="line2d_14">
      <path clip-path="url(#pe6694f8b3b)" d="M 54 66.596386 
L 388.8 66.596386 
" style="fill:none;stroke:#fdf6e3;"/>
     </g>
     <g id="text_15">
      <!-- 1.2 -->
      <g style="fill:#657b83;" transform="translate(29.21 70.533182)scale(0.11 -0.11)">
       <use xlink:href="#ArialMT-49"/>
       <use x="55.615234" xlink:href="#ArialMT-46"/>
       <use x="83.398438" xlink:href="#ArialMT-50"/>
      </g>
     </g>
    </g>
    <g id="ytick_8">
     <g id="line2d_15">
      <path clip-path="url(#pe6694f8b3b)" d="M 54 35.695783 
L 388.8 35.695783 
" style="fill:none;stroke:#fdf6e3;"/>
     </g>
     <g id="text_16">
      <!-- 1.4 -->
      <g style="fill:#657b83;" transform="translate(29.21 39.63258)scale(0.11 -0.11)">
       <use xlink:href="#ArialMT-49"/>
       <use x="55.615234" xlink:href="#ArialMT-46"/>
       <use x="83.398438" xlink:href="#ArialMT-52"/>
      </g>
     </g>
    </g>
    <g id="text_17">
     <!-- Density -->
     <defs>
      <path d="M 7.71875 0 
L 7.71875 71.578125 
L 32.375 71.578125 
Q 40.71875 71.578125 45.125 70.5625 
Q 51.265625 69.140625 55.609375 65.4375 
Q 61.28125 60.640625 64.078125 53.1875 
Q 66.890625 45.75 66.890625 36.1875 
Q 66.890625 28.03125 64.984375 21.734375 
Q 63.09375 15.4375 60.109375 11.296875 
Q 57.125 7.171875 53.578125 4.796875 
Q 50.046875 2.4375 45.046875 1.21875 
Q 40.046875 0 33.546875 0 
z
M 17.1875 8.453125 
L 32.46875 8.453125 
Q 39.546875 8.453125 43.578125 9.765625 
Q 47.609375 11.078125 50 13.484375 
Q 53.375 16.84375 55.25 22.53125 
Q 57.125 28.21875 57.125 36.328125 
Q 57.125 47.5625 53.4375 53.59375 
Q 49.75 59.625 44.484375 61.671875 
Q 40.671875 63.140625 32.234375 63.140625 
L 17.1875 63.140625 
z
" id="ArialMT-68"/>
      <path d="M 42.09375 16.703125 
L 51.171875 15.578125 
Q 49.03125 7.625 43.21875 3.21875 
Q 37.40625 -1.171875 28.375 -1.171875 
Q 17 -1.171875 10.328125 5.828125 
Q 3.65625 12.84375 3.65625 25.484375 
Q 3.65625 38.578125 10.390625 45.796875 
Q 17.140625 53.03125 27.875 53.03125 
Q 38.28125 53.03125 44.875 45.953125 
Q 51.46875 38.875 51.46875 26.03125 
Q 51.46875 25.25 51.421875 23.6875 
L 12.75 23.6875 
Q 13.234375 15.140625 17.578125 10.59375 
Q 21.921875 6.0625 28.421875 6.0625 
Q 33.25 6.0625 36.671875 8.59375 
Q 40.09375 11.140625 42.09375 16.703125 
z
M 13.234375 30.90625 
L 42.1875 30.90625 
Q 41.609375 37.453125 38.875 40.71875 
Q 34.671875 45.796875 27.984375 45.796875 
Q 21.921875 45.796875 17.796875 41.75 
Q 13.671875 37.703125 13.234375 30.90625 
z
" id="ArialMT-101"/>
      <path d="M 6.59375 0 
L 6.59375 51.859375 
L 14.5 51.859375 
L 14.5 44.484375 
Q 20.21875 53.03125 31 53.03125 
Q 35.6875 53.03125 39.625 51.34375 
Q 43.5625 49.65625 45.515625 46.921875 
Q 47.46875 44.1875 48.25 40.4375 
Q 48.734375 37.984375 48.734375 31.890625 
L 48.734375 0 
L 39.9375 0 
L 39.9375 31.546875 
Q 39.9375 36.921875 38.90625 39.578125 
Q 37.890625 42.234375 35.28125 43.8125 
Q 32.671875 45.40625 29.15625 45.40625 
Q 23.53125 45.40625 19.453125 41.84375 
Q 15.375 38.28125 15.375 28.328125 
L 15.375 0 
z
" id="ArialMT-110"/>
      <path d="M 3.078125 15.484375 
L 11.765625 16.84375 
Q 12.5 11.625 15.84375 8.84375 
Q 19.1875 6.0625 25.203125 6.0625 
Q 31.25 6.0625 34.171875 8.515625 
Q 37.109375 10.984375 37.109375 14.3125 
Q 37.109375 17.28125 34.515625 19 
Q 32.71875 20.171875 25.53125 21.96875 
Q 15.875 24.421875 12.140625 26.203125 
Q 8.40625 27.984375 6.46875 31.125 
Q 4.546875 34.28125 4.546875 38.09375 
Q 4.546875 41.546875 6.125 44.5 
Q 7.71875 47.46875 10.453125 49.421875 
Q 12.5 50.921875 16.03125 51.96875 
Q 19.578125 53.03125 23.640625 53.03125 
Q 29.734375 53.03125 34.34375 51.265625 
Q 38.96875 49.515625 41.15625 46.5 
Q 43.359375 43.5 44.1875 38.484375 
L 35.59375 37.3125 
Q 35.015625 41.3125 32.203125 43.546875 
Q 29.390625 45.796875 24.265625 45.796875 
Q 18.21875 45.796875 15.625 43.796875 
Q 13.03125 41.796875 13.03125 39.109375 
Q 13.03125 37.40625 14.109375 36.03125 
Q 15.1875 34.625 17.484375 33.6875 
Q 18.796875 33.203125 25.25 31.453125 
Q 34.578125 28.953125 38.25 27.359375 
Q 41.9375 25.78125 44.03125 22.75 
Q 46.140625 19.734375 46.140625 15.234375 
Q 46.140625 10.84375 43.578125 6.953125 
Q 41.015625 3.078125 36.171875 0.953125 
Q 31.34375 -1.171875 25.25 -1.171875 
Q 15.140625 -1.171875 9.84375 3.03125 
Q 4.546875 7.234375 3.078125 15.484375 
z
" id="ArialMT-115"/>
      <path d="M 6.640625 61.46875 
L 6.640625 71.578125 
L 15.4375 71.578125 
L 15.4375 61.46875 
z
M 6.640625 0 
L 6.640625 51.859375 
L 15.4375 51.859375 
L 15.4375 0 
z
" id="ArialMT-105"/>
      <path d="M 25.78125 7.859375 
L 27.046875 0.09375 
Q 23.34375 -0.6875 20.40625 -0.6875 
Q 15.625 -0.6875 12.984375 0.828125 
Q 10.359375 2.34375 9.28125 4.8125 
Q 8.203125 7.28125 8.203125 15.1875 
L 8.203125 45.015625 
L 1.765625 45.015625 
L 1.765625 51.859375 
L 8.203125 51.859375 
L 8.203125 64.703125 
L 16.9375 69.96875 
L 16.9375 51.859375 
L 25.78125 51.859375 
L 25.78125 45.015625 
L 16.9375 45.015625 
L 16.9375 14.703125 
Q 16.9375 10.9375 17.40625 9.859375 
Q 17.875 8.796875 18.921875 8.15625 
Q 19.96875 7.515625 21.921875 7.515625 
Q 23.390625 7.515625 25.78125 7.859375 
z
" id="ArialMT-116"/>
      <path d="M 6.203125 -19.96875 
L 5.21875 -11.71875 
Q 8.109375 -12.5 10.25 -12.5 
Q 13.1875 -12.5 14.9375 -11.515625 
Q 16.703125 -10.546875 17.828125 -8.796875 
Q 18.65625 -7.46875 20.515625 -2.25 
Q 20.75 -1.515625 21.296875 -0.09375 
L 1.609375 51.859375 
L 11.078125 51.859375 
L 21.875 21.828125 
Q 23.96875 16.109375 25.640625 9.8125 
Q 27.15625 15.875 29.25 21.625 
L 40.328125 51.859375 
L 49.125 51.859375 
L 29.390625 -0.875 
Q 26.21875 -9.421875 24.46875 -12.640625 
Q 22.125 -17 19.09375 -19.015625 
Q 16.0625 -21.046875 11.859375 -21.046875 
Q 9.328125 -21.046875 6.203125 -19.96875 
z
" id="ArialMT-121"/>
     </defs>
     <g style="fill:#657b83;" transform="translate(22.052969 168.287813)rotate(-90)scale(0.15 -0.15)">
      <use xlink:href="#ArialMT-68"/>
      <use x="72.216797" xlink:href="#ArialMT-101"/>
      <use x="127.832031" xlink:href="#ArialMT-110"/>
      <use x="183.447266" xlink:href="#ArialMT-115"/>
      <use x="233.447266" xlink:href="#ArialMT-105"/>
      <use x="255.664062" xlink:href="#ArialMT-116"/>
      <use x="283.447266" xlink:href="#ArialMT-121"/>
     </g>
    </g>
   </g>
   <g id="PolyCollection_1">
    <defs>
     <path d="M 118.660362 -36.001463 
L 118.660362 -36 
L 121.021361 -36 
L 123.38236 -36 
L 125.74336 -36 
L 128.104359 -36 
L 130.465358 -36 
L 132.826358 -36 
L 135.187357 -36 
L 137.548356 -36 
L 139.909355 -36 
L 142.270355 -36 
L 144.631354 -36 
L 146.992353 -36 
L 149.353353 -36 
L 151.714352 -36 
L 154.075351 -36 
L 156.43635 -36 
L 158.79735 -36 
L 161.158349 -36 
L 163.519348 -36 
L 165.880348 -36 
L 168.241347 -36 
L 170.602346 -36 
L 172.963346 -36 
L 175.324345 -36 
L 177.685344 -36 
L 180.046343 -36 
L 182.407343 -36 
L 184.768342 -36 
L 187.129341 -36 
L 189.490341 -36 
L 191.85134 -36 
L 194.212339 -36 
L 196.573338 -36 
L 198.934338 -36 
L 201.295337 -36 
L 203.656336 -36 
L 206.017336 -36 
L 208.378335 -36 
L 210.739334 -36 
L 213.100334 -36 
L 215.461333 -36 
L 217.822332 -36 
L 220.183331 -36 
L 222.544331 -36 
L 224.90533 -36 
L 227.266329 -36 
L 229.627329 -36 
L 231.988328 -36 
L 234.349327 -36 
L 236.710326 -36 
L 239.071326 -36 
L 241.432325 -36 
L 243.793324 -36 
L 246.154324 -36 
L 248.515323 -36 
L 250.876322 -36 
L 253.237322 -36 
L 255.598321 -36 
L 257.95932 -36 
L 260.320319 -36 
L 262.681319 -36 
L 265.042318 -36 
L 267.403317 -36 
L 269.764317 -36 
L 272.125316 -36 
L 274.486315 -36 
L 276.847315 -36 
L 279.208314 -36 
L 281.569313 -36 
L 283.930312 -36 
L 286.291312 -36 
L 288.652311 -36 
L 291.01331 -36 
L 293.37431 -36 
L 295.735309 -36 
L 298.096308 -36 
L 300.457307 -36 
L 302.818307 -36 
L 305.179306 -36 
L 307.540305 -36 
L 309.901305 -36 
L 312.262304 -36 
L 314.623303 -36 
L 316.984303 -36 
L 319.345302 -36 
L 321.706301 -36 
L 324.0673 -36 
L 326.4283 -36 
L 328.789299 -36 
L 331.150298 -36 
L 333.511298 -36 
L 335.872297 -36 
L 338.233296 -36 
L 340.594295 -36 
L 342.955295 -36 
L 345.316294 -36 
L 347.677293 -36 
L 350.038293 -36 
L 352.399292 -36 
L 352.399292 -36.001433 
L 352.399292 -36.001433 
L 350.038293 -36.006344 
L 347.677293 -36.02088 
L 345.316294 -36.051163 
L 342.955295 -36.09396 
L 340.594295 -36.132248 
L 338.233296 -36.15288 
L 335.872297 -36.170062 
L 333.511298 -36.214754 
L 331.150298 -36.301574 
L 328.789299 -36.43223 
L 326.4283 -36.628775 
L 324.0673 -36.92272 
L 321.706301 -37.317853 
L 319.345302 -37.820442 
L 316.984303 -38.483642 
L 314.623303 -39.335309 
L 312.262304 -40.281427 
L 309.901305 -41.186835 
L 307.540305 -42.059695 
L 305.179306 -43.068896 
L 302.818307 -44.371174 
L 300.457307 -45.997156 
L 298.096308 -47.910236 
L 295.735309 -50.112569 
L 293.37431 -52.672034 
L 291.01331 -55.671933 
L 288.652311 -59.184337 
L 286.291312 -63.286132 
L 283.930312 -67.991255 
L 281.569313 -73.196762 
L 279.208314 -78.922974 
L 276.847315 -85.553879 
L 274.486315 -93.465791 
L 272.125316 -102.394901 
L 269.764317 -111.489997 
L 267.403317 -120.004641 
L 265.042318 -127.862275 
L 262.681319 -135.764106 
L 260.320319 -144.72142 
L 257.95932 -155.153898 
L 255.598321 -166.501968 
L 253.237322 -177.856975 
L 250.876322 -188.567965 
L 248.515323 -198.086549 
L 246.154324 -205.981251 
L 243.793324 -212.563919 
L 241.432325 -218.904076 
L 239.071326 -225.792292 
L 236.710326 -232.930484 
L 234.349327 -239.089254 
L 231.988328 -242.771148 
L 229.627329 -243.085714 
L 227.266329 -240.465714 
L 224.90533 -236.234523 
L 222.544331 -231.177821 
L 220.183331 -225.009377 
L 217.822332 -217.492005 
L 215.461333 -209.384413 
L 213.100334 -201.62247 
L 210.739334 -193.94056 
L 208.378335 -185.106201 
L 206.017336 -174.507739 
L 203.656336 -162.884289 
L 201.295337 -151.468821 
L 198.934338 -140.92963 
L 196.573338 -131.226039 
L 194.212339 -122.033593 
L 191.85134 -112.980769 
L 189.490341 -103.754636 
L 187.129341 -94.445157 
L 184.768342 -85.699324 
L 182.407343 -78.203985 
L 180.046343 -72.046879 
L 177.685344 -66.702314 
L 175.324345 -61.601807 
L 172.963346 -56.665382 
L 170.602346 -52.254253 
L 168.241347 -48.714601 
L 165.880348 -46.096746 
L 163.519348 -44.220312 
L 161.158349 -42.850203 
L 158.79735 -41.783149 
L 156.43635 -40.84161 
L 154.075351 -39.909737 
L 151.714352 -39.014123 
L 149.353353 -38.272999 
L 146.992353 -37.734284 
L 144.631354 -37.332063 
L 142.270355 -36.989714 
L 139.909355 -36.69602 
L 137.548356 -36.478692 
L 135.187357 -36.343475 
L 132.826358 -36.258161 
L 130.465358 -36.185716 
L 128.104359 -36.1152 
L 125.74336 -36.057557 
L 123.38236 -36.02232 
L 121.021361 -36.006586 
L 118.660362 -36.001463 
z
" id="m5168c5f81c" style="stroke:#ffffff;stroke-opacity:0.25;"/>
    </defs>
    <g clip-path="url(#pe6694f8b3b)">
     <use style="fill:#268bd2;fill-opacity:0.25;stroke:#ffffff;stroke-opacity:0.25;" x="0" xlink:href="#m5168c5f81c" y="288"/>
    </g>
   </g>
   <g id="PolyCollection_2">
    <defs>
     <path d="M 69.218182 -36.001085 
L 69.218182 -36 
L 72.292562 -36 
L 75.366942 -36 
L 78.441322 -36 
L 81.515702 -36 
L 84.590083 -36 
L 87.664463 -36 
L 90.738843 -36 
L 93.813223 -36 
L 96.887603 -36 
L 99.961983 -36 
L 103.036364 -36 
L 106.110744 -36 
L 109.185124 -36 
L 112.259504 -36 
L 115.333884 -36 
L 118.408264 -36 
L 121.482645 -36 
L 124.557025 -36 
L 127.631405 -36 
L 130.705785 -36 
L 133.780165 -36 
L 136.854545 -36 
L 139.928926 -36 
L 143.003306 -36 
L 146.077686 -36 
L 149.152066 -36 
L 152.226446 -36 
L 155.300826 -36 
L 158.375207 -36 
L 161.449587 -36 
L 164.523967 -36 
L 167.598347 -36 
L 170.672727 -36 
L 173.747107 -36 
L 176.821488 -36 
L 179.895868 -36 
L 182.970248 -36 
L 186.044628 -36 
L 189.119008 -36 
L 192.193388 -36 
L 195.267769 -36 
L 198.342149 -36 
L 201.416529 -36 
L 204.490909 -36 
L 207.565289 -36 
L 210.639669 -36 
L 213.71405 -36 
L 216.78843 -36 
L 219.86281 -36 
L 222.93719 -36 
L 226.01157 -36 
L 229.08595 -36 
L 232.160331 -36 
L 235.234711 -36 
L 238.309091 -36 
L 241.383471 -36 
L 244.457851 -36 
L 247.532231 -36 
L 250.606612 -36 
L 253.680992 -36 
L 256.755372 -36 
L 259.829752 -36 
L 262.904132 -36 
L 265.978512 -36 
L 269.052893 -36 
L 272.127273 -36 
L 275.201653 -36 
L 278.276033 -36 
L 281.350413 -36 
L 284.424793 -36 
L 287.499174 -36 
L 290.573554 -36 
L 293.647934 -36 
L 296.722314 -36 
L 299.796694 -36 
L 302.871074 -36 
L 305.945455 -36 
L 309.019835 -36 
L 312.094215 -36 
L 315.168595 -36 
L 318.242975 -36 
L 321.317355 -36 
L 324.391736 -36 
L 327.466116 -36 
L 330.540496 -36 
L 333.614876 -36 
L 336.689256 -36 
L 339.763636 -36 
L 342.838017 -36 
L 345.912397 -36 
L 348.986777 -36 
L 352.061157 -36 
L 355.135537 -36 
L 358.209917 -36 
L 361.284298 -36 
L 364.358678 -36 
L 367.433058 -36 
L 370.507438 -36 
L 373.581818 -36 
L 373.581818 -36.002277 
L 373.581818 -36.002277 
L 370.507438 -36.01053 
L 367.433058 -36.038802 
L 364.358678 -36.115038 
L 361.284298 -36.27833 
L 358.209917 -36.560951 
L 355.135537 -36.9678 
L 352.061157 -37.473557 
L 348.986777 -38.032173 
L 345.912397 -38.581772 
L 342.838017 -39.064454 
L 339.763636 -39.478686 
L 336.689256 -39.913365 
L 333.614876 -40.506454 
L 330.540496 -41.354923 
L 327.466116 -42.460544 
L 324.391736 -43.77547 
L 321.317355 -45.314715 
L 318.242975 -47.21291 
L 315.168595 -49.652917 
L 312.094215 -52.712063 
L 309.019835 -56.24214 
L 305.945455 -59.930589 
L 302.871074 -63.544296 
L 299.796694 -67.097656 
L 296.722314 -70.777128 
L 293.647934 -74.783564 
L 290.573554 -79.25865 
L 287.499174 -84.288754 
L 284.424793 -89.935459 
L 281.350413 -96.203425 
L 278.276033 -102.951828 
L 275.201653 -109.930533 
L 272.127273 -116.918359 
L 269.052893 -123.715499 
L 265.978512 -130.044284 
L 262.904132 -135.656371 
L 259.829752 -140.606312 
L 256.755372 -145.324852 
L 253.680992 -150.3583 
L 250.606612 -156.042752 
L 247.532231 -162.351965 
L 244.457851 -168.849383 
L 241.383471 -174.727991 
L 238.309091 -179.171077 
L 235.234711 -181.913069 
L 232.160331 -183.352089 
L 229.08595 -184.012831 
L 226.01157 -184.011671 
L 222.93719 -183.057159 
L 219.86281 -180.767317 
L 216.78843 -176.897087 
L 213.71405 -171.442779 
L 210.639669 -164.747712 
L 207.565289 -157.524014 
L 204.490909 -150.584124 
L 201.416529 -144.35123 
L 198.342149 -138.591783 
L 195.267769 -132.640939 
L 192.193388 -125.865507 
L 189.119008 -118.05086 
L 186.044628 -109.602576 
L 182.970248 -101.356103 
L 179.895868 -93.961635 
L 176.821488 -87.450894 
L 173.747107 -81.512375 
L 170.672727 -76.044867 
L 167.598347 -71.243926 
L 164.523967 -67.225604 
L 161.449587 -63.76199 
L 158.375207 -60.437431 
L 155.300826 -57.011487 
L 152.226446 -53.604996 
L 149.152066 -50.549993 
L 146.077686 -48.091938 
L 143.003306 -46.248308 
L 139.928926 -44.878902 
L 136.854545 -43.789488 
L 133.780165 -42.787037 
L 130.705785 -41.742725 
L 127.631405 -40.64825 
L 124.557025 -39.592316 
L 121.482645 -38.676395 
L 118.408264 -37.958941 
L 115.333884 -37.456065 
L 112.259504 -37.153291 
L 109.185124 -37.003258 
L 106.110744 -36.929116 
L 103.036364 -36.850951 
L 99.961983 -36.725657 
L 96.887603 -36.56613 
L 93.813223 -36.414599 
L 90.738843 -36.297187 
L 87.664463 -36.209601 
L 84.590083 -36.138246 
L 81.515702 -36.079684 
L 78.441322 -36.03816 
L 75.366942 -36.014736 
L 72.292562 -36.004513 
L 69.218182 -36.001085 
z
" id="mfc3c672438" style="stroke:#ffffff;stroke-opacity:0.25;"/>
    </defs>
    <g clip-path="url(#pe6694f8b3b)">
     <use style="fill:#2aa198;fill-opacity:0.25;stroke:#ffffff;stroke-opacity:0.25;" x="0" xlink:href="#mfc3c672438" y="288"/>
    </g>
   </g>
   <g id="line2d_16">
    <path clip-path="url(#pe6694f8b3b)" d="M 118.660362 251.998537 
L 121.021361 251.993414 
L 123.38236 251.97768 
L 125.74336 251.942443 
L 128.104359 251.8848 
L 130.465358 251.814284 
L 132.826358 251.741839 
L 135.187357 251.656525 
L 137.548356 251.521308 
L 139.909355 251.30398 
L 142.270355 251.010286 
L 144.631354 250.667937 
L 146.992353 250.265716 
L 149.353353 249.727001 
L 151.714352 248.985877 
L 154.075351 248.090263 
L 156.43635 247.15839 
L 158.79735 246.216851 
L 161.158349 245.149797 
L 163.519348 243.779688 
L 165.880348 241.903254 
L 168.241347 239.285399 
L 170.602346 235.745747 
L 172.963346 231.334618 
L 175.324345 226.398193 
L 177.685344 221.297686 
L 180.046343 215.953121 
L 182.407343 209.796015 
L 184.768342 202.300676 
L 187.129341 193.554843 
L 189.490341 184.245364 
L 191.85134 175.019231 
L 194.212339 165.966407 
L 196.573338 156.773961 
L 198.934338 147.07037 
L 201.295337 136.531179 
L 203.656336 125.115711 
L 206.017336 113.492261 
L 208.378335 102.893799 
L 210.739334 94.05944 
L 213.100334 86.37753 
L 215.461333 78.615587 
L 217.822332 70.507995 
L 220.183331 62.990623 
L 222.544331 56.822179 
L 224.90533 51.765477 
L 227.266329 47.534286 
L 229.627329 44.914286 
L 231.988328 45.228852 
L 234.349327 48.910746 
L 236.710326 55.069516 
L 239.071326 62.207708 
L 241.432325 69.095924 
L 243.793324 75.436081 
L 246.154324 82.018749 
L 248.515323 89.913451 
L 250.876322 99.432035 
L 253.237322 110.143025 
L 255.598321 121.498032 
L 257.95932 132.846102 
L 260.320319 143.27858 
L 262.681319 152.235894 
L 265.042318 160.137725 
L 267.403317 167.995359 
L 269.764317 176.510003 
L 272.125316 185.605099 
L 274.486315 194.534209 
L 276.847315 202.446121 
L 279.208314 209.077026 
L 281.569313 214.803238 
L 283.930312 220.008745 
L 286.291312 224.713868 
L 288.652311 228.815663 
L 291.01331 232.328067 
L 293.37431 235.327966 
L 295.735309 237.887431 
L 298.096308 240.089764 
L 300.457307 242.002844 
L 302.818307 243.628826 
L 305.179306 244.931104 
L 307.540305 245.940305 
L 309.901305 246.813165 
L 312.262304 247.718573 
L 314.623303 248.664691 
L 316.984303 249.516358 
L 319.345302 250.179558 
L 321.706301 250.682147 
L 324.0673 251.07728 
L 326.4283 251.371225 
L 328.789299 251.56777 
L 331.150298 251.698426 
L 333.511298 251.785246 
L 335.872297 251.829938 
L 338.233296 251.84712 
L 340.594295 251.867752 
L 342.955295 251.90604 
L 345.316294 251.948837 
L 347.677293 251.97912 
L 350.038293 251.993656 
L 352.399292 251.998567 
" style="fill:none;stroke:#268bd2;stroke-width:2;"/>
   </g>
   <g id="line2d_17">
    <path clip-path="url(#pe6694f8b3b)" d="M 69.218182 251.998915 
L 72.292562 251.995487 
L 75.366942 251.985264 
L 78.441322 251.96184 
L 81.515702 251.920316 
L 84.590083 251.861754 
L 87.664463 251.790399 
L 90.738843 251.702813 
L 93.813223 251.585401 
L 96.887603 251.43387 
L 99.961983 251.274343 
L 103.036364 251.149049 
L 106.110744 251.070884 
L 109.185124 250.996742 
L 112.259504 250.846709 
L 115.333884 250.543935 
L 118.408264 250.041059 
L 121.482645 249.323605 
L 124.557025 248.407684 
L 127.631405 247.35175 
L 130.705785 246.257275 
L 133.780165 245.212963 
L 136.854545 244.210512 
L 139.928926 243.121098 
L 143.003306 241.751692 
L 146.077686 239.908062 
L 149.152066 237.450007 
L 152.226446 234.395004 
L 155.300826 230.988513 
L 158.375207 227.562569 
L 161.449587 224.23801 
L 164.523967 220.774396 
L 167.598347 216.756074 
L 170.672727 211.955133 
L 173.747107 206.487625 
L 176.821488 200.549106 
L 179.895868 194.038365 
L 182.970248 186.643897 
L 186.044628 178.397424 
L 189.119008 169.94914 
L 192.193388 162.134493 
L 195.267769 155.359061 
L 198.342149 149.408217 
L 201.416529 143.64877 
L 204.490909 137.415876 
L 207.565289 130.475986 
L 210.639669 123.252288 
L 213.71405 116.557221 
L 216.78843 111.102913 
L 219.86281 107.232683 
L 222.93719 104.942841 
L 226.01157 103.988329 
L 229.08595 103.987169 
L 232.160331 104.647911 
L 235.234711 106.086931 
L 238.309091 108.828923 
L 241.383471 113.272009 
L 244.457851 119.150617 
L 247.532231 125.648035 
L 250.606612 131.957248 
L 253.680992 137.6417 
L 256.755372 142.675148 
L 259.829752 147.393688 
L 262.904132 152.343629 
L 265.978512 157.955716 
L 269.052893 164.284501 
L 272.127273 171.081641 
L 275.201653 178.069467 
L 278.276033 185.048172 
L 281.350413 191.796575 
L 284.424793 198.064541 
L 287.499174 203.711246 
L 290.573554 208.74135 
L 293.647934 213.216436 
L 296.722314 217.222872 
L 299.796694 220.902344 
L 302.871074 224.455704 
L 305.945455 228.069411 
L 309.019835 231.75786 
L 312.094215 235.287937 
L 315.168595 238.347083 
L 318.242975 240.78709 
L 321.317355 242.685285 
L 324.391736 244.22453 
L 327.466116 245.539456 
L 330.540496 246.645077 
L 333.614876 247.493546 
L 336.689256 248.086635 
L 339.763636 248.521314 
L 342.838017 248.935546 
L 345.912397 249.418228 
L 348.986777 249.967827 
L 352.061157 250.526443 
L 355.135537 251.0322 
L 358.209917 251.439049 
L 361.284298 251.72167 
L 364.358678 251.884962 
L 367.433058 251.961198 
L 370.507438 251.98947 
L 373.581818 251.997723 
" style="fill:none;stroke:#2aa198;stroke-width:2;"/>
   </g>
   <g id="patch_3">
    <path d="M 54 252 
L 54 34.56 
" style="fill:none;stroke:#eee8d5;stroke-linecap:square;stroke-linejoin:miter;stroke-width:1.25;"/>
   </g>
   <g id="patch_4">
    <path d="M 388.8 252 
L 388.8 34.56 
" style="fill:none;stroke:#eee8d5;stroke-linecap:square;stroke-linejoin:miter;stroke-width:1.25;"/>
   </g>
   <g id="patch_5">
    <path d="M 54 252 
L 388.8 252 
" style="fill:none;stroke:#eee8d5;stroke-linecap:square;stroke-linejoin:miter;stroke-width:1.25;"/>
   </g>
   <g id="patch_6">
    <path d="M 54 34.56 
L 388.8 34.56 
" style="fill:none;stroke:#eee8d5;stroke-linecap:square;stroke-linejoin:miter;stroke-width:1.25;"/>
   </g>
   <g id="text_18">
    <!-- $\Delta U = 0.1\, \mathrm{k_BT}$ -->
    <defs>
     <path d="M 34.1875 63.1875 
L 14.15625 8.203125 
L 54.25 8.203125 
z
M 0.78125 0 
L 28.609375 72.90625 
L 39.796875 72.90625 
L 67.578125 0 
z
" id="DejaVuSans-916"/>
     <path d="M 15.484375 72.90625 
L 25.390625 72.90625 
L 16.796875 28.609375 
Q 16.265625 25.640625 16.046875 23.703125 
Q 15.828125 21.78125 15.828125 20.3125 
Q 15.828125 13.578125 19.578125 10.078125 
Q 23.34375 6.59375 30.609375 6.59375 
Q 40.046875 6.59375 45.28125 11.765625 
Q 50.53125 16.9375 52.78125 28.609375 
L 61.375 72.90625 
L 71.296875 72.90625 
L 62.5 27.390625 
Q 59.625 12.640625 51.5625 5.609375 
Q 43.5 -1.421875 29.5 -1.421875 
Q 18.5625 -1.421875 12.1875 4.078125 
Q 5.8125 9.578125 5.8125 19 
Q 5.8125 20.703125 6.046875 22.828125 
Q 6.296875 24.953125 6.78125 27.390625 
z
" id="DejaVuSans-Oblique-85"/>
     <path d="M 10.59375 45.40625 
L 73.1875 45.40625 
L 73.1875 37.203125 
L 10.59375 37.203125 
z
M 10.59375 25.484375 
L 73.1875 25.484375 
L 73.1875 17.1875 
L 10.59375 17.1875 
z
" id="DejaVuSans-61"/>
     <path d="M 31.78125 66.40625 
Q 24.171875 66.40625 20.328125 58.90625 
Q 16.5 51.421875 16.5 36.375 
Q 16.5 21.390625 20.328125 13.890625 
Q 24.171875 6.390625 31.78125 6.390625 
Q 39.453125 6.390625 43.28125 13.890625 
Q 47.125 21.390625 47.125 36.375 
Q 47.125 51.421875 43.28125 58.90625 
Q 39.453125 66.40625 31.78125 66.40625 
z
M 31.78125 74.21875 
Q 44.046875 74.21875 50.515625 64.515625 
Q 56.984375 54.828125 56.984375 36.375 
Q 56.984375 17.96875 50.515625 8.265625 
Q 44.046875 -1.421875 31.78125 -1.421875 
Q 19.53125 -1.421875 13.0625 8.265625 
Q 6.59375 17.96875 6.59375 36.375 
Q 6.59375 54.828125 13.0625 64.515625 
Q 19.53125 74.21875 31.78125 74.21875 
z
" id="DejaVuSans-48"/>
     <path d="M 10.6875 12.40625 
L 21 12.40625 
L 21 0 
L 10.6875 0 
z
" id="DejaVuSans-46"/>
     <path d="M 12.40625 8.296875 
L 28.515625 8.296875 
L 28.515625 63.921875 
L 10.984375 60.40625 
L 10.984375 69.390625 
L 28.421875 72.90625 
L 38.28125 72.90625 
L 38.28125 8.296875 
L 54.390625 8.296875 
L 54.390625 0 
L 12.40625 0 
z
" id="DejaVuSans-49"/>
     <path d="M 9.078125 75.984375 
L 18.109375 75.984375 
L 18.109375 31.109375 
L 44.921875 54.6875 
L 56.390625 54.6875 
L 27.390625 29.109375 
L 57.625 0 
L 45.90625 0 
L 18.109375 26.703125 
L 18.109375 0 
L 9.078125 0 
z
" id="DejaVuSans-107"/>
     <path d="M 19.671875 34.8125 
L 19.671875 8.109375 
L 35.5 8.109375 
Q 43.453125 8.109375 47.28125 11.40625 
Q 51.125 14.703125 51.125 21.484375 
Q 51.125 28.328125 47.28125 31.5625 
Q 43.453125 34.8125 35.5 34.8125 
z
M 19.671875 64.796875 
L 19.671875 42.828125 
L 34.28125 42.828125 
Q 41.5 42.828125 45.03125 45.53125 
Q 48.578125 48.25 48.578125 53.8125 
Q 48.578125 59.328125 45.03125 62.0625 
Q 41.5 64.796875 34.28125 64.796875 
z
M 9.8125 72.90625 
L 35.015625 72.90625 
Q 46.296875 72.90625 52.390625 68.21875 
Q 58.5 63.53125 58.5 54.890625 
Q 58.5 48.1875 55.375 44.234375 
Q 52.25 40.28125 46.1875 39.3125 
Q 53.46875 37.75 57.5 32.78125 
Q 61.53125 27.828125 61.53125 20.40625 
Q 61.53125 10.640625 54.890625 5.3125 
Q 48.25 0 35.984375 0 
L 9.8125 0 
z
" id="DejaVuSans-66"/>
     <path d="M -0.296875 72.90625 
L 61.375 72.90625 
L 61.375 64.59375 
L 35.5 64.59375 
L 35.5 0 
L 25.59375 0 
L 25.59375 64.59375 
L -0.296875 64.59375 
z
" id="DejaVuSans-84"/>
    </defs>
    <g style="fill:#262626;" transform="translate(172.52 28.56)scale(0.16 -0.16)">
     <use transform="translate(0 0.015625)" xlink:href="#DejaVuSans-916"/>
     <use transform="translate(68.408203 0.015625)" xlink:href="#DejaVuSans-Oblique-85"/>
     <use transform="translate(161.083984 0.015625)" xlink:href="#DejaVuSans-61"/>
     <use transform="translate(264.355469 0.015625)" xlink:href="#DejaVuSans-48"/>
     <use transform="translate(327.978516 0.015625)" xlink:href="#DejaVuSans-46"/>
     <use transform="translate(359.765625 0.015625)" xlink:href="#DejaVuSans-49"/>
     <use transform="translate(439.624348 0.015625)" xlink:href="#DejaVuSans-107"/>
     <use transform="translate(498.491536 -16.390625)scale(0.7)" xlink:href="#DejaVuSans-66"/>
     <use transform="translate(549.248372 0.015625)" xlink:href="#DejaVuSans-84"/>
    </g>
   </g>
   <g id="legend_1">
    <g id="patch_7">
     <path d="M 253.8 94.26 
L 378.3 94.26 
Q 381.3 94.26 381.3 91.26 
L 381.3 45.06 
Q 381.3 42.06 378.3 42.06 
L 253.8 42.06 
Q 250.8 42.06 250.8 45.06 
L 250.8 91.26 
Q 250.8 94.26 253.8 94.26 
z
" style="fill:#eee8d5;opacity:0.8;stroke:#cccccc;stroke-linejoin:miter;"/>
    </g>
    <g id="line2d_18">
     <path d="M 256.8 56.17875 
L 286.8 56.17875 
" style="fill:none;stroke:#268bd2;stroke-width:2;"/>
    </g>
    <g id="line2d_19"/>
    <g id="text_19">
     <!-- $\hat t$ = 0.9999s -->
     <defs>
      <path d="M -28.609375 79.984375 
L -21.390625 79.984375 
L -9.421875 61.625 
L -16.21875 61.625 
L -25 73.578125 
L -33.796875 61.625 
L -40.578125 61.625 
z
M -25 56 
z
" id="DejaVuSans-770"/>
      <path d="M 42.28125 54.6875 
L 40.921875 47.703125 
L 23 47.703125 
L 17.1875 18.015625 
Q 16.890625 16.359375 16.75 15.234375 
Q 16.609375 14.109375 16.609375 13.484375 
Q 16.609375 10.359375 18.484375 8.9375 
Q 20.359375 7.515625 24.515625 7.515625 
L 33.59375 7.515625 
L 32.078125 0 
L 23.484375 0 
Q 15.484375 0 11.546875 3.125 
Q 7.625 6.25 7.625 12.59375 
Q 7.625 13.71875 7.765625 15.0625 
Q 7.90625 16.40625 8.203125 18.015625 
L 14.015625 47.703125 
L 6.390625 47.703125 
L 7.8125 54.6875 
L 15.28125 54.6875 
L 18.3125 70.21875 
L 27.296875 70.21875 
L 24.3125 54.6875 
z
" id="DejaVuSans-Oblique-116"/>
      <path id="ArialMT-32"/>
      <path d="M 52.828125 42.09375 
L 5.5625 42.09375 
L 5.5625 50.296875 
L 52.828125 50.296875 
z
M 52.828125 20.359375 
L 5.5625 20.359375 
L 5.5625 28.5625 
L 52.828125 28.5625 
z
" id="ArialMT-61"/>
      <path d="M 5.46875 16.546875 
L 13.921875 17.328125 
Q 14.984375 11.375 18.015625 8.6875 
Q 21.046875 6 25.78125 6 
Q 29.828125 6 32.875 7.859375 
Q 35.9375 9.71875 37.890625 12.8125 
Q 39.84375 15.921875 41.15625 21.1875 
Q 42.484375 26.46875 42.484375 31.9375 
Q 42.484375 32.515625 42.4375 33.6875 
Q 39.796875 29.5 35.234375 26.875 
Q 30.671875 24.265625 25.34375 24.265625 
Q 16.453125 24.265625 10.296875 30.703125 
Q 4.15625 37.15625 4.15625 47.703125 
Q 4.15625 58.59375 10.578125 65.234375 
Q 17 71.875 26.65625 71.875 
Q 33.640625 71.875 39.421875 68.109375 
Q 45.21875 64.359375 48.21875 57.390625 
Q 51.21875 50.4375 51.21875 37.25 
Q 51.21875 23.53125 48.234375 15.40625 
Q 45.265625 7.28125 39.375 3.03125 
Q 33.5 -1.21875 25.59375 -1.21875 
Q 17.1875 -1.21875 11.859375 3.4375 
Q 6.546875 8.109375 5.46875 16.546875 
z
M 41.453125 48.140625 
Q 41.453125 55.71875 37.421875 60.15625 
Q 33.40625 64.59375 27.734375 64.59375 
Q 21.875 64.59375 17.53125 59.8125 
Q 13.1875 55.03125 13.1875 47.40625 
Q 13.1875 40.578125 17.3125 36.296875 
Q 21.4375 32.03125 27.484375 32.03125 
Q 33.59375 32.03125 37.515625 36.296875 
Q 41.453125 40.578125 41.453125 48.140625 
z
" id="ArialMT-57"/>
     </defs>
     <g style="fill:#262626;" transform="translate(298.8 61.42875)scale(0.15 -0.15)">
      <use transform="translate(47.546875 27.015625)" xlink:href="#DejaVuSans-770"/>
      <use transform="translate(0 0.296875)" xlink:href="#DejaVuSans-Oblique-116"/>
      <use transform="translate(39.208984 0.296875)" xlink:href="#ArialMT-32"/>
      <use transform="translate(66.992188 0.296875)" xlink:href="#ArialMT-61"/>
      <use transform="translate(125.390625 0.296875)" xlink:href="#ArialMT-32"/>
      <use transform="translate(153.173828 0.296875)" xlink:href="#ArialMT-48"/>
      <use transform="translate(208.789062 0.296875)" xlink:href="#ArialMT-46"/>
      <use transform="translate(236.572266 0.296875)" xlink:href="#ArialMT-57"/>
      <use transform="translate(292.1875 0.296875)" xlink:href="#ArialMT-57"/>
      <use transform="translate(347.802734 0.296875)" xlink:href="#ArialMT-57"/>
      <use transform="translate(403.417969 0.296875)" xlink:href="#ArialMT-57"/>
      <use transform="translate(459.033203 0.296875)" xlink:href="#ArialMT-115"/>
     </g>
    </g>
    <g id="line2d_20">
     <path d="M 256.8 80.02875 
L 286.8 80.02875 
" style="fill:none;stroke:#2aa198;stroke-width:2;"/>
    </g>
    <g id="line2d_21"/>
    <g id="text_20">
     <!-- $\hat t$ = 2.0000s -->
     <g style="fill:#262626;" transform="translate(298.8 85.27875)scale(0.15 -0.15)">
      <use transform="translate(47.546875 27.015625)" xlink:href="#DejaVuSans-770"/>
      <use transform="translate(0 0.296875)" xlink:href="#DejaVuSans-Oblique-116"/>
      <use transform="translate(39.208984 0.296875)" xlink:href="#ArialMT-32"/>
      <use transform="translate(66.992188 0.296875)" xlink:href="#ArialMT-61"/>
      <use transform="translate(125.390625 0.296875)" xlink:href="#ArialMT-32"/>
      <use transform="translate(153.173828 0.296875)" xlink:href="#ArialMT-50"/>
      <use transform="translate(208.789062 0.296875)" xlink:href="#ArialMT-46"/>
      <use transform="translate(236.572266 0.296875)" xlink:href="#ArialMT-48"/>
      <use transform="translate(292.1875 0.296875)" xlink:href="#ArialMT-48"/>
      <use transform="translate(347.802734 0.296875)" xlink:href="#ArialMT-48"/>
      <use transform="translate(403.417969 0.296875)" xlink:href="#ArialMT-48"/>
      <use transform="translate(459.033203 0.296875)" xlink:href="#ArialMT-115"/>
     </g>
    </g>
   </g>
  </g>
 </g>
 <defs>
  <clipPath id="pe6694f8b3b">
   <rect height="217.44" width="334.8" x="54" y="34.56"/>
  </clipPath>
 </defs>
</svg>
