<?xml version="1.0" encoding="utf-8" standalone="no"?>
<!DOCTYPE svg PUBLIC "-//W3C//DTD SVG 1.1//EN"
  "http://www.w3.org/Graphics/SVG/1.1/DTD/svg11.dtd">
<!-- Created with matplotlib (https://matplotlib.org/) -->
<svg height="288pt" version="1.1" viewBox="0 0 432 288" width="432pt" xmlns="http://www.w3.org/2000/svg" xmlns:xlink="http://www.w3.org/1999/xlink">
 <defs>
  <style type="text/css">
*{stroke-linecap:butt;stroke-linejoin:round;}
  </style>
 </defs>
 <g id="figure_1">
  <g id="patch_1">
   <path d="M 0 288 
L 432 288 
L 432 0 
L 0 0 
z
" style="fill:#ffffff;"/>
  </g>
  <g id="axes_1">
   <g id="patch_2">
    <path d="M 54 252 
L 388.8 252 
L 388.8 34.56 
L 54 34.56 
z
" style="fill:#eee8d5;"/>
   </g>
   <g id="matplotlib.axis_1">
    <g id="xtick_1">
     <g id="line2d_1">
      <path clip-path="url(#p6c4349c960)" d="M 87.916879 252 
L 87.916879 34.56 
" style="fill:none;stroke:#fdf6e3;"/>
     </g>
     <g id="text_1">
      <!-- −1.0 -->
      <defs>
       <path d="M 52.828125 31.203125 
L 5.5625 31.203125 
L 5.5625 39.40625 
L 52.828125 39.40625 
z
" id="ArialMT-8722"/>
       <path d="M 37.25 0 
L 28.46875 0 
L 28.46875 56 
Q 25.296875 52.984375 20.140625 49.953125 
Q 14.984375 46.921875 10.890625 45.40625 
L 10.890625 53.90625 
Q 18.265625 57.375 23.78125 62.296875 
Q 29.296875 67.234375 31.59375 71.875 
L 37.25 71.875 
z
" id="ArialMT-49"/>
       <path d="M 9.078125 0 
L 9.078125 10.015625 
L 19.09375 10.015625 
L 19.09375 0 
z
" id="ArialMT-46"/>
       <path d="M 4.15625 35.296875 
Q 4.15625 48 6.765625 55.734375 
Q 9.375 63.484375 14.515625 67.671875 
Q 19.671875 71.875 27.484375 71.875 
Q 33.25 71.875 37.59375 69.546875 
Q 41.9375 67.234375 44.765625 62.859375 
Q 47.609375 58.5 49.21875 52.21875 
Q 50.828125 45.953125 50.828125 35.296875 
Q 50.828125 22.703125 48.234375 14.96875 
Q 45.65625 7.234375 40.5 3 
Q 35.359375 -1.21875 27.484375 -1.21875 
Q 17.140625 -1.21875 11.234375 6.203125 
Q 4.15625 15.140625 4.15625 35.296875 
z
M 13.1875 35.296875 
Q 13.1875 17.671875 17.3125 11.828125 
Q 21.4375 6 27.484375 6 
Q 33.546875 6 37.671875 11.859375 
Q 41.796875 17.71875 41.796875 35.296875 
Q 41.796875 52.984375 37.671875 58.78125 
Q 33.546875 64.59375 27.390625 64.59375 
Q 21.34375 64.59375 17.71875 59.46875 
Q 13.1875 52.9375 13.1875 35.296875 
z
" id="ArialMT-48"/>
      </defs>
      <g style="fill:#657b83;" transform="translate(77.059535 269.373594)scale(0.11 -0.11)">
       <use xlink:href="#ArialMT-8722"/>
       <use x="58.398438" xlink:href="#ArialMT-49"/>
       <use x="114.013672" xlink:href="#ArialMT-46"/>
       <use x="141.796875" xlink:href="#ArialMT-48"/>
      </g>
     </g>
    </g>
    <g id="xtick_2">
     <g id="line2d_2">
      <path clip-path="url(#p6c4349c960)" d="M 157.302947 252 
L 157.302947 34.56 
" style="fill:none;stroke:#fdf6e3;"/>
     </g>
     <g id="text_2">
      <!-- −0.5 -->
      <defs>
       <path d="M 4.15625 18.75 
L 13.375 19.53125 
Q 14.40625 12.796875 18.140625 9.390625 
Q 21.875 6 27.15625 6 
Q 33.5 6 37.890625 10.78125 
Q 42.28125 15.578125 42.28125 23.484375 
Q 42.28125 31 38.0625 35.34375 
Q 33.84375 39.703125 27 39.703125 
Q 22.75 39.703125 19.328125 37.765625 
Q 15.921875 35.84375 13.96875 32.765625 
L 5.71875 33.84375 
L 12.640625 70.609375 
L 48.25 70.609375 
L 48.25 62.203125 
L 19.671875 62.203125 
L 15.828125 42.96875 
Q 22.265625 47.46875 29.34375 47.46875 
Q 38.71875 47.46875 45.15625 40.96875 
Q 51.609375 34.46875 51.609375 24.265625 
Q 51.609375 14.546875 45.953125 7.46875 
Q 39.0625 -1.21875 27.15625 -1.21875 
Q 17.390625 -1.21875 11.203125 4.25 
Q 5.03125 9.71875 4.15625 18.75 
z
" id="ArialMT-53"/>
      </defs>
      <g style="fill:#657b83;" transform="translate(146.445604 269.373594)scale(0.11 -0.11)">
       <use xlink:href="#ArialMT-8722"/>
       <use x="58.398438" xlink:href="#ArialMT-48"/>
       <use x="114.013672" xlink:href="#ArialMT-46"/>
       <use x="141.796875" xlink:href="#ArialMT-53"/>
      </g>
     </g>
    </g>
    <g id="xtick_3">
     <g id="line2d_3">
      <path clip-path="url(#p6c4349c960)" d="M 226.689016 252 
L 226.689016 34.56 
" style="fill:none;stroke:#fdf6e3;"/>
     </g>
     <g id="text_3">
      <!-- 0.0 -->
      <g style="fill:#657b83;" transform="translate(219.044016 269.373594)scale(0.11 -0.11)">
       <use xlink:href="#ArialMT-48"/>
       <use x="55.615234" xlink:href="#ArialMT-46"/>
       <use x="83.398438" xlink:href="#ArialMT-48"/>
      </g>
     </g>
    </g>
    <g id="xtick_4">
     <g id="line2d_4">
      <path clip-path="url(#p6c4349c960)" d="M 296.075084 252 
L 296.075084 34.56 
" style="fill:none;stroke:#fdf6e3;"/>
     </g>
     <g id="text_4">
      <!-- 0.5 -->
      <g style="fill:#657b83;" transform="translate(288.430084 269.373594)scale(0.11 -0.11)">
       <use xlink:href="#ArialMT-48"/>
       <use x="55.615234" xlink:href="#ArialMT-46"/>
       <use x="83.398438" xlink:href="#ArialMT-53"/>
      </g>
     </g>
    </g>
    <g id="xtick_5">
     <g id="line2d_5">
      <path clip-path="url(#p6c4349c960)" d="M 365.461152 252 
L 365.461152 34.56 
" style="fill:none;stroke:#fdf6e3;"/>
     </g>
     <g id="text_5">
      <!-- 1.0 -->
      <g style="fill:#657b83;" transform="translate(357.816152 269.373594)scale(0.11 -0.11)">
       <use xlink:href="#ArialMT-49"/>
       <use x="55.615234" xlink:href="#ArialMT-46"/>
       <use x="83.398438" xlink:href="#ArialMT-48"/>
      </g>
     </g>
    </g>
    <g id="text_6">
     <!-- $\frac{x}{L}$ -->
     <defs>
      <path d="M 60.015625 54.6875 
L 34.90625 27.875 
L 50.296875 0 
L 39.984375 0 
L 28.421875 21.6875 
L 8.296875 0 
L -2.59375 0 
L 24.3125 28.8125 
L 10.015625 54.6875 
L 20.3125 54.6875 
L 30.8125 34.90625 
L 49.125 54.6875 
z
" id="DejaVuSans-Oblique-120"/>
      <path d="M 16.796875 72.90625 
L 26.703125 72.90625 
L 14.203125 8.203125 
L 49.703125 8.203125 
L 48.09375 0 
L 2.6875 0 
z
" id="DejaVuSans-Oblique-76"/>
     </defs>
     <g style="fill:#657b83;" transform="translate(216 292.159844)scale(0.2 -0.2)">
      <use transform="translate(0 44.71875)scale(0.7)" xlink:href="#DejaVuSans-Oblique-120"/>
      <use transform="translate(1 -37.565625)scale(0.7)" xlink:href="#DejaVuSans-Oblique-76"/>
      <path d="M 0 19.71875 
L 0 25.96875 
L 41.425781 25.96875 
L 41.425781 19.71875 
L 0 19.71875 
z
"/>
     </g>
    </g>
   </g>
   <g id="matplotlib.axis_2">
    <g id="ytick_1">
     <g id="line2d_6">
      <path clip-path="url(#p6c4349c960)" d="M 54 252 
L 388.8 252 
" style="fill:none;stroke:#fdf6e3;"/>
     </g>
     <g id="text_7">
      <!-- 0 -->
      <g style="fill:#657b83;" transform="translate(38.382969 255.936797)scale(0.11 -0.11)">
       <use xlink:href="#ArialMT-48"/>
      </g>
     </g>
    </g>
    <g id="ytick_2">
     <g id="line2d_7">
      <path clip-path="url(#p6c4349c960)" d="M 54 226.022109 
L 388.8 226.022109 
" style="fill:none;stroke:#fdf6e3;"/>
     </g>
     <g id="text_8">
      <!-- 1 -->
      <g style="fill:#657b83;" transform="translate(38.382969 229.958906)scale(0.11 -0.11)">
       <use xlink:href="#ArialMT-49"/>
      </g>
     </g>
    </g>
    <g id="ytick_3">
     <g id="line2d_8">
      <path clip-path="url(#p6c4349c960)" d="M 54 200.044217 
L 388.8 200.044217 
" style="fill:none;stroke:#fdf6e3;"/>
     </g>
     <g id="text_9">
      <!-- 2 -->
      <defs>
       <path d="M 50.34375 8.453125 
L 50.34375 0 
L 3.03125 0 
Q 2.9375 3.171875 4.046875 6.109375 
Q 5.859375 10.9375 9.828125 15.625 
Q 13.8125 20.3125 21.34375 26.46875 
Q 33.015625 36.03125 37.109375 41.625 
Q 41.21875 47.21875 41.21875 52.203125 
Q 41.21875 57.421875 37.46875 61 
Q 33.734375 64.59375 27.734375 64.59375 
Q 21.390625 64.59375 17.578125 60.78125 
Q 13.765625 56.984375 13.71875 50.25 
L 4.6875 51.171875 
Q 5.609375 61.28125 11.65625 66.578125 
Q 17.71875 71.875 27.9375 71.875 
Q 38.234375 71.875 44.234375 66.15625 
Q 50.25 60.453125 50.25 52 
Q 50.25 47.703125 48.484375 43.546875 
Q 46.734375 39.40625 42.65625 34.8125 
Q 38.578125 30.21875 29.109375 22.21875 
Q 21.1875 15.578125 18.9375 13.203125 
Q 16.703125 10.84375 15.234375 8.453125 
z
" id="ArialMT-50"/>
      </defs>
      <g style="fill:#657b83;" transform="translate(38.382969 203.981014)scale(0.11 -0.11)">
       <use xlink:href="#ArialMT-50"/>
      </g>
     </g>
    </g>
    <g id="ytick_4">
     <g id="line2d_9">
      <path clip-path="url(#p6c4349c960)" d="M 54 174.066326 
L 388.8 174.066326 
" style="fill:none;stroke:#fdf6e3;"/>
     </g>
     <g id="text_10">
      <!-- 3 -->
      <defs>
       <path d="M 4.203125 18.890625 
L 12.984375 20.0625 
Q 14.5 12.59375 18.140625 9.296875 
Q 21.78125 6 27 6 
Q 33.203125 6 37.46875 10.296875 
Q 41.75 14.59375 41.75 20.953125 
Q 41.75 27 37.796875 30.921875 
Q 33.84375 34.859375 27.734375 34.859375 
Q 25.25 34.859375 21.53125 33.890625 
L 22.515625 41.609375 
Q 23.390625 41.5 23.921875 41.5 
Q 29.546875 41.5 34.03125 44.421875 
Q 38.53125 47.359375 38.53125 53.46875 
Q 38.53125 58.296875 35.25 61.46875 
Q 31.984375 64.65625 26.8125 64.65625 
Q 21.6875 64.65625 18.265625 61.421875 
Q 14.84375 58.203125 13.875 51.765625 
L 5.078125 53.328125 
Q 6.6875 62.15625 12.390625 67.015625 
Q 18.109375 71.875 26.609375 71.875 
Q 32.46875 71.875 37.390625 69.359375 
Q 42.328125 66.84375 44.9375 62.5 
Q 47.5625 58.15625 47.5625 53.265625 
Q 47.5625 48.640625 45.0625 44.828125 
Q 42.578125 41.015625 37.703125 38.765625 
Q 44.046875 37.3125 47.5625 32.6875 
Q 51.078125 28.078125 51.078125 21.140625 
Q 51.078125 11.765625 44.234375 5.25 
Q 37.40625 -1.265625 26.953125 -1.265625 
Q 17.53125 -1.265625 11.296875 4.34375 
Q 5.078125 9.96875 4.203125 18.890625 
z
" id="ArialMT-51"/>
      </defs>
      <g style="fill:#657b83;" transform="translate(38.382969 178.003123)scale(0.11 -0.11)">
       <use xlink:href="#ArialMT-51"/>
      </g>
     </g>
    </g>
    <g id="ytick_5">
     <g id="line2d_10">
      <path clip-path="url(#p6c4349c960)" d="M 54 148.088435 
L 388.8 148.088435 
" style="fill:none;stroke:#fdf6e3;"/>
     </g>
     <g id="text_11">
      <!-- 4 -->
      <defs>
       <path d="M 32.328125 0 
L 32.328125 17.140625 
L 1.265625 17.140625 
L 1.265625 25.203125 
L 33.9375 71.578125 
L 41.109375 71.578125 
L 41.109375 25.203125 
L 50.78125 25.203125 
L 50.78125 17.140625 
L 41.109375 17.140625 
L 41.109375 0 
z
M 32.328125 25.203125 
L 32.328125 57.46875 
L 9.90625 25.203125 
z
" id="ArialMT-52"/>
      </defs>
      <g style="fill:#657b83;" transform="translate(38.382969 152.025232)scale(0.11 -0.11)">
       <use xlink:href="#ArialMT-52"/>
      </g>
     </g>
    </g>
    <g id="ytick_6">
     <g id="line2d_11">
      <path clip-path="url(#p6c4349c960)" d="M 54 122.110543 
L 388.8 122.110543 
" style="fill:none;stroke:#fdf6e3;"/>
     </g>
     <g id="text_12">
      <!-- 5 -->
      <g style="fill:#657b83;" transform="translate(38.382969 126.04734)scale(0.11 -0.11)">
       <use xlink:href="#ArialMT-53"/>
      </g>
     </g>
    </g>
    <g id="ytick_7">
     <g id="line2d_12">
      <path clip-path="url(#p6c4349c960)" d="M 54 96.132652 
L 388.8 96.132652 
" style="fill:none;stroke:#fdf6e3;"/>
     </g>
     <g id="text_13">
      <!-- 6 -->
      <defs>
       <path d="M 49.75 54.046875 
L 41.015625 53.375 
Q 39.84375 58.546875 37.703125 60.890625 
Q 34.125 64.65625 28.90625 64.65625 
Q 24.703125 64.65625 21.53125 62.3125 
Q 17.390625 59.28125 14.984375 53.46875 
Q 12.59375 47.65625 12.5 36.921875 
Q 15.671875 41.75 20.265625 44.09375 
Q 24.859375 46.4375 29.890625 46.4375 
Q 38.671875 46.4375 44.84375 39.96875 
Q 51.03125 33.5 51.03125 23.25 
Q 51.03125 16.5 48.125 10.71875 
Q 45.21875 4.9375 40.140625 1.859375 
Q 35.0625 -1.21875 28.609375 -1.21875 
Q 17.625 -1.21875 10.6875 6.859375 
Q 3.765625 14.9375 3.765625 33.5 
Q 3.765625 54.25 11.421875 63.671875 
Q 18.109375 71.875 29.4375 71.875 
Q 37.890625 71.875 43.28125 67.140625 
Q 48.6875 62.40625 49.75 54.046875 
z
M 13.875 23.1875 
Q 13.875 18.65625 15.796875 14.5 
Q 17.71875 10.359375 21.1875 8.171875 
Q 24.65625 6 28.46875 6 
Q 34.03125 6 38.03125 10.484375 
Q 42.046875 14.984375 42.046875 22.703125 
Q 42.046875 30.125 38.078125 34.390625 
Q 34.125 38.671875 28.125 38.671875 
Q 22.171875 38.671875 18.015625 34.390625 
Q 13.875 30.125 13.875 23.1875 
z
" id="ArialMT-54"/>
      </defs>
      <g style="fill:#657b83;" transform="translate(38.382969 100.069449)scale(0.11 -0.11)">
       <use xlink:href="#ArialMT-54"/>
      </g>
     </g>
    </g>
    <g id="ytick_8">
     <g id="line2d_13">
      <path clip-path="url(#p6c4349c960)" d="M 54 70.154761 
L 388.8 70.154761 
" style="fill:none;stroke:#fdf6e3;"/>
     </g>
     <g id="text_14">
      <!-- 7 -->
      <defs>
       <path d="M 4.734375 62.203125 
L 4.734375 70.65625 
L 51.078125 70.65625 
L 51.078125 63.8125 
Q 44.234375 56.546875 37.515625 44.484375 
Q 30.8125 32.421875 27.15625 19.671875 
Q 24.515625 10.6875 23.78125 0 
L 14.75 0 
Q 14.890625 8.453125 18.0625 20.40625 
Q 21.234375 32.375 27.171875 43.484375 
Q 33.109375 54.59375 39.796875 62.203125 
z
" id="ArialMT-55"/>
      </defs>
      <g style="fill:#657b83;" transform="translate(38.382969 74.091558)scale(0.11 -0.11)">
       <use xlink:href="#ArialMT-55"/>
      </g>
     </g>
    </g>
    <g id="ytick_9">
     <g id="line2d_14">
      <path clip-path="url(#p6c4349c960)" d="M 54 44.176869 
L 388.8 44.176869 
" style="fill:none;stroke:#fdf6e3;"/>
     </g>
     <g id="text_15">
      <!-- 8 -->
      <defs>
       <path d="M 17.671875 38.8125 
Q 12.203125 40.828125 9.5625 44.53125 
Q 6.9375 48.25 6.9375 53.421875 
Q 6.9375 61.234375 12.546875 66.546875 
Q 18.171875 71.875 27.484375 71.875 
Q 36.859375 71.875 42.578125 66.421875 
Q 48.296875 60.984375 48.296875 53.171875 
Q 48.296875 48.1875 45.671875 44.5 
Q 43.0625 40.828125 37.75 38.8125 
Q 44.34375 36.671875 47.78125 31.875 
Q 51.21875 27.09375 51.21875 20.453125 
Q 51.21875 11.28125 44.71875 5.03125 
Q 38.234375 -1.21875 27.640625 -1.21875 
Q 17.046875 -1.21875 10.546875 5.046875 
Q 4.046875 11.328125 4.046875 20.703125 
Q 4.046875 27.6875 7.59375 32.390625 
Q 11.140625 37.109375 17.671875 38.8125 
z
M 15.921875 53.71875 
Q 15.921875 48.640625 19.1875 45.40625 
Q 22.46875 42.1875 27.6875 42.1875 
Q 32.765625 42.1875 36.015625 45.375 
Q 39.265625 48.578125 39.265625 53.21875 
Q 39.265625 58.0625 35.90625 61.359375 
Q 32.5625 64.65625 27.59375 64.65625 
Q 22.5625 64.65625 19.234375 61.421875 
Q 15.921875 58.203125 15.921875 53.71875 
z
M 13.09375 20.65625 
Q 13.09375 16.890625 14.875 13.375 
Q 16.65625 9.859375 20.171875 7.921875 
Q 23.6875 6 27.734375 6 
Q 34.03125 6 38.125 10.046875 
Q 42.234375 14.109375 42.234375 20.359375 
Q 42.234375 26.703125 38.015625 30.859375 
Q 33.796875 35.015625 27.4375 35.015625 
Q 21.234375 35.015625 17.15625 30.90625 
Q 13.09375 26.8125 13.09375 20.65625 
z
" id="ArialMT-56"/>
      </defs>
      <g style="fill:#657b83;" transform="translate(38.382969 48.113666)scale(0.11 -0.11)">
       <use xlink:href="#ArialMT-56"/>
      </g>
     </g>
    </g>
    <g id="text_16">
     <!-- Density -->
     <defs>
      <path d="M 7.71875 0 
L 7.71875 71.578125 
L 32.375 71.578125 
Q 40.71875 71.578125 45.125 70.5625 
Q 51.265625 69.140625 55.609375 65.4375 
Q 61.28125 60.640625 64.078125 53.1875 
Q 66.890625 45.75 66.890625 36.1875 
Q 66.890625 28.03125 64.984375 21.734375 
Q 63.09375 15.4375 60.109375 11.296875 
Q 57.125 7.171875 53.578125 4.796875 
Q 50.046875 2.4375 45.046875 1.21875 
Q 40.046875 0 33.546875 0 
z
M 17.1875 8.453125 
L 32.46875 8.453125 
Q 39.546875 8.453125 43.578125 9.765625 
Q 47.609375 11.078125 50 13.484375 
Q 53.375 16.84375 55.25 22.53125 
Q 57.125 28.21875 57.125 36.328125 
Q 57.125 47.5625 53.4375 53.59375 
Q 49.75 59.625 44.484375 61.671875 
Q 40.671875 63.140625 32.234375 63.140625 
L 17.1875 63.140625 
z
" id="ArialMT-68"/>
      <path d="M 42.09375 16.703125 
L 51.171875 15.578125 
Q 49.03125 7.625 43.21875 3.21875 
Q 37.40625 -1.171875 28.375 -1.171875 
Q 17 -1.171875 10.328125 5.828125 
Q 3.65625 12.84375 3.65625 25.484375 
Q 3.65625 38.578125 10.390625 45.796875 
Q 17.140625 53.03125 27.875 53.03125 
Q 38.28125 53.03125 44.875 45.953125 
Q 51.46875 38.875 51.46875 26.03125 
Q 51.46875 25.25 51.421875 23.6875 
L 12.75 23.6875 
Q 13.234375 15.140625 17.578125 10.59375 
Q 21.921875 6.0625 28.421875 6.0625 
Q 33.25 6.0625 36.671875 8.59375 
Q 40.09375 11.140625 42.09375 16.703125 
z
M 13.234375 30.90625 
L 42.1875 30.90625 
Q 41.609375 37.453125 38.875 40.71875 
Q 34.671875 45.796875 27.984375 45.796875 
Q 21.921875 45.796875 17.796875 41.75 
Q 13.671875 37.703125 13.234375 30.90625 
z
" id="ArialMT-101"/>
      <path d="M 6.59375 0 
L 6.59375 51.859375 
L 14.5 51.859375 
L 14.5 44.484375 
Q 20.21875 53.03125 31 53.03125 
Q 35.6875 53.03125 39.625 51.34375 
Q 43.5625 49.65625 45.515625 46.921875 
Q 47.46875 44.1875 48.25 40.4375 
Q 48.734375 37.984375 48.734375 31.890625 
L 48.734375 0 
L 39.9375 0 
L 39.9375 31.546875 
Q 39.9375 36.921875 38.90625 39.578125 
Q 37.890625 42.234375 35.28125 43.8125 
Q 32.671875 45.40625 29.15625 45.40625 
Q 23.53125 45.40625 19.453125 41.84375 
Q 15.375 38.28125 15.375 28.328125 
L 15.375 0 
z
" id="ArialMT-110"/>
      <path d="M 3.078125 15.484375 
L 11.765625 16.84375 
Q 12.5 11.625 15.84375 8.84375 
Q 19.1875 6.0625 25.203125 6.0625 
Q 31.25 6.0625 34.171875 8.515625 
Q 37.109375 10.984375 37.109375 14.3125 
Q 37.109375 17.28125 34.515625 19 
Q 32.71875 20.171875 25.53125 21.96875 
Q 15.875 24.421875 12.140625 26.203125 
Q 8.40625 27.984375 6.46875 31.125 
Q 4.546875 34.28125 4.546875 38.09375 
Q 4.546875 41.546875 6.125 44.5 
Q 7.71875 47.46875 10.453125 49.421875 
Q 12.5 50.921875 16.03125 51.96875 
Q 19.578125 53.03125 23.640625 53.03125 
Q 29.734375 53.03125 34.34375 51.265625 
Q 38.96875 49.515625 41.15625 46.5 
Q 43.359375 43.5 44.1875 38.484375 
L 35.59375 37.3125 
Q 35.015625 41.3125 32.203125 43.546875 
Q 29.390625 45.796875 24.265625 45.796875 
Q 18.21875 45.796875 15.625 43.796875 
Q 13.03125 41.796875 13.03125 39.109375 
Q 13.03125 37.40625 14.109375 36.03125 
Q 15.1875 34.625 17.484375 33.6875 
Q 18.796875 33.203125 25.25 31.453125 
Q 34.578125 28.953125 38.25 27.359375 
Q 41.9375 25.78125 44.03125 22.75 
Q 46.140625 19.734375 46.140625 15.234375 
Q 46.140625 10.84375 43.578125 6.953125 
Q 41.015625 3.078125 36.171875 0.953125 
Q 31.34375 -1.171875 25.25 -1.171875 
Q 15.140625 -1.171875 9.84375 3.03125 
Q 4.546875 7.234375 3.078125 15.484375 
z
" id="ArialMT-115"/>
      <path d="M 6.640625 61.46875 
L 6.640625 71.578125 
L 15.4375 71.578125 
L 15.4375 61.46875 
z
M 6.640625 0 
L 6.640625 51.859375 
L 15.4375 51.859375 
L 15.4375 0 
z
" id="ArialMT-105"/>
      <path d="M 25.78125 7.859375 
L 27.046875 0.09375 
Q 23.34375 -0.6875 20.40625 -0.6875 
Q 15.625 -0.6875 12.984375 0.828125 
Q 10.359375 2.34375 9.28125 4.8125 
Q 8.203125 7.28125 8.203125 15.1875 
L 8.203125 45.015625 
L 1.765625 45.015625 
L 1.765625 51.859375 
L 8.203125 51.859375 
L 8.203125 64.703125 
L 16.9375 69.96875 
L 16.9375 51.859375 
L 25.78125 51.859375 
L 25.78125 45.015625 
L 16.9375 45.015625 
L 16.9375 14.703125 
Q 16.9375 10.9375 17.40625 9.859375 
Q 17.875 8.796875 18.921875 8.15625 
Q 19.96875 7.515625 21.921875 7.515625 
Q 23.390625 7.515625 25.78125 7.859375 
z
" id="ArialMT-116"/>
      <path d="M 6.203125 -19.96875 
L 5.21875 -11.71875 
Q 8.109375 -12.5 10.25 -12.5 
Q 13.1875 -12.5 14.9375 -11.515625 
Q 16.703125 -10.546875 17.828125 -8.796875 
Q 18.65625 -7.46875 20.515625 -2.25 
Q 20.75 -1.515625 21.296875 -0.09375 
L 1.609375 51.859375 
L 11.078125 51.859375 
L 21.875 21.828125 
Q 23.96875 16.109375 25.640625 9.8125 
Q 27.15625 15.875 29.25 21.625 
L 40.328125 51.859375 
L 49.125 51.859375 
L 29.390625 -0.875 
Q 26.21875 -9.421875 24.46875 -12.640625 
Q 22.125 -17 19.09375 -19.015625 
Q 16.0625 -21.046875 11.859375 -21.046875 
Q 9.328125 -21.046875 6.203125 -19.96875 
z
" id="ArialMT-121"/>
     </defs>
     <g style="fill:#657b83;" transform="translate(31.225938 168.287813)rotate(-90)scale(0.15 -0.15)">
      <use xlink:href="#ArialMT-68"/>
      <use x="72.216797" xlink:href="#ArialMT-101"/>
      <use x="127.832031" xlink:href="#ArialMT-110"/>
      <use x="183.447266" xlink:href="#ArialMT-115"/>
      <use x="233.447266" xlink:href="#ArialMT-105"/>
      <use x="255.664062" xlink:href="#ArialMT-116"/>
      <use x="283.447266" xlink:href="#ArialMT-121"/>
     </g>
    </g>
   </g>
   <g id="PolyCollection_1">
    <defs>
     <path d="M 84.509122 -36.000887 
L 84.509122 -36 
L 87.401205 -36 
L 90.293288 -36 
L 93.185371 -36 
L 96.077453 -36 
L 98.969536 -36 
L 101.861619 -36 
L 104.753702 -36 
L 107.645785 -36 
L 110.537868 -36 
L 113.42995 -36 
L 116.322033 -36 
L 119.214116 -36 
L 122.106199 -36 
L 124.998282 -36 
L 127.890365 -36 
L 130.782447 -36 
L 133.67453 -36 
L 136.566613 -36 
L 139.458696 -36 
L 142.350779 -36 
L 145.242862 -36 
L 148.134944 -36 
L 151.027027 -36 
L 153.91911 -36 
L 156.811193 -36 
L 159.703276 -36 
L 162.595359 -36 
L 165.487441 -36 
L 168.379524 -36 
L 171.271607 -36 
L 174.16369 -36 
L 177.055773 -36 
L 179.947856 -36 
L 182.839938 -36 
L 185.732021 -36 
L 188.624104 -36 
L 191.516187 -36 
L 194.40827 -36 
L 197.300353 -36 
L 200.192435 -36 
L 203.084518 -36 
L 205.976601 -36 
L 208.868684 -36 
L 211.760767 -36 
L 214.652849 -36 
L 217.544932 -36 
L 220.437015 -36 
L 223.329098 -36 
L 226.221181 -36 
L 229.113264 -36 
L 232.005346 -36 
L 234.897429 -36 
L 237.789512 -36 
L 240.681595 -36 
L 243.573678 -36 
L 246.465761 -36 
L 249.357843 -36 
L 252.249926 -36 
L 255.142009 -36 
L 258.034092 -36 
L 260.926175 -36 
L 263.818258 -36 
L 266.71034 -36 
L 269.602423 -36 
L 272.494506 -36 
L 275.386589 -36 
L 278.278672 -36 
L 281.170755 -36 
L 284.062837 -36 
L 286.95492 -36 
L 289.847003 -36 
L 292.739086 -36 
L 295.631169 -36 
L 298.523252 -36 
L 301.415334 -36 
L 304.307417 -36 
L 307.1995 -36 
L 310.091583 -36 
L 312.983666 -36 
L 315.875749 -36 
L 318.767831 -36 
L 321.659914 -36 
L 324.551997 -36 
L 327.44408 -36 
L 330.336163 -36 
L 333.228246 -36 
L 336.120328 -36 
L 339.012411 -36 
L 341.904494 -36 
L 344.796577 -36 
L 347.68866 -36 
L 350.580743 -36 
L 353.472825 -36 
L 356.364908 -36 
L 359.256991 -36 
L 362.149074 -36 
L 365.041157 -36 
L 367.93324 -36 
L 370.825322 -36 
L 370.825322 -36.000887 
L 370.825322 -36.000887 
L 367.93324 -36.030214 
L 365.041157 -36.078082 
L 362.149074 -36.015317 
L 359.256991 -36.000228 
L 356.364908 -36 
L 353.472825 -36 
L 350.580743 -36 
L 347.68866 -36 
L 344.796577 -36.000001 
L 341.904494 -36.000608 
L 339.012411 -36.025248 
L 336.120328 -36.079539 
L 333.228246 -36.01902 
L 330.336163 -36.000345 
L 327.44408 -36 
L 324.551997 -36 
L 321.659914 -36 
L 318.767831 -36 
L 315.875749 -36 
L 312.983666 -36 
L 310.091583 -36 
L 307.1995 -36 
L 304.307417 -36.000018 
L 301.415334 -36.003633 
L 298.523252 -36.054198 
L 295.631169 -36.061378 
L 292.739086 -36.005276 
L 289.847003 -36.000034 
L 286.95492 -36 
L 284.062837 -36 
L 281.170755 -36 
L 278.278672 -36 
L 275.386589 -36 
L 272.494506 -36 
L 269.602423 -36 
L 266.71034 -36 
L 263.818258 -36 
L 260.926175 -36 
L 258.034092 -36.000001 
L 255.142009 -36.00063 
L 252.249926 -36.025721 
L 249.357843 -36.087431 
L 246.465761 -36.194998 
L 243.573678 -36.751305 
L 240.681595 -38.356805 
L 237.789512 -42.895992 
L 234.897429 -54.272718 
L 232.005346 -84.690085 
L 229.113264 -158.132924 
L 226.221181 -240.668434 
L 223.329098 -226.457849 
L 220.437015 -184.789568 
L 217.544932 -147.636238 
L 214.652849 -123.397602 
L 211.760767 -105.841947 
L 208.868684 -89.708803 
L 205.976601 -80.141203 
L 203.084518 -70.040227 
L 200.192435 -63.276021 
L 197.300353 -55.776845 
L 194.40827 -49.244171 
L 191.516187 -45.236426 
L 188.624104 -43.388302 
L 185.732021 -42.210461 
L 182.839938 -40.460091 
L 179.947856 -39.226193 
L 177.055773 -38.618543 
L 174.16369 -38.166711 
L 171.271607 -37.630016 
L 168.379524 -37.367957 
L 165.487441 -37.289926 
L 162.595359 -36.695623 
L 159.703276 -36.462641 
L 156.811193 -36.263 
L 153.91911 -36.140905 
L 151.027027 -36.081269 
L 148.134944 -36.044909 
L 145.242862 -36.076114 
L 142.350779 -36.013067 
L 139.458696 -36.02121 
L 136.566613 -36.079819 
L 133.67453 -36.022976 
L 130.782447 -36.001195 
L 127.890365 -36.026892 
L 124.998282 -36.079173 
L 122.106199 -36.017694 
L 119.214116 -36.0003 
L 116.322033 -36 
L 113.42995 -36 
L 110.537868 -36 
L 107.645785 -36 
L 104.753702 -36 
L 101.861619 -36 
L 98.969536 -36 
L 96.077453 -36.000228 
L 93.185371 -36.015317 
L 90.293288 -36.078082 
L 87.401205 -36.030214 
L 84.509122 -36.000887 
z
" id="mac9bda39d5" style="stroke:#ffffff;stroke-opacity:0.25;"/>
    </defs>
    <g clip-path="url(#p6c4349c960)">
     <use style="fill:#268bd2;fill-opacity:0.25;stroke:#ffffff;stroke-opacity:0.25;" x="0" xlink:href="#mac9bda39d5" y="288"/>
    </g>
   </g>
   <g id="PolyCollection_2">
    <defs>
     <path d="M 69.218182 -36.000856 
L 69.218182 -36 
L 72.292562 -36 
L 75.366942 -36 
L 78.441322 -36 
L 81.515702 -36 
L 84.590083 -36 
L 87.664463 -36 
L 90.738843 -36 
L 93.813223 -36 
L 96.887603 -36 
L 99.961983 -36 
L 103.036364 -36 
L 106.110744 -36 
L 109.185124 -36 
L 112.259504 -36 
L 115.333884 -36 
L 118.408264 -36 
L 121.482645 -36 
L 124.557025 -36 
L 127.631405 -36 
L 130.705785 -36 
L 133.780165 -36 
L 136.854545 -36 
L 139.928926 -36 
L 143.003306 -36 
L 146.077686 -36 
L 149.152066 -36 
L 152.226446 -36 
L 155.300826 -36 
L 158.375207 -36 
L 161.449587 -36 
L 164.523967 -36 
L 167.598347 -36 
L 170.672727 -36 
L 173.747107 -36 
L 176.821488 -36 
L 179.895868 -36 
L 182.970248 -36 
L 186.044628 -36 
L 189.119008 -36 
L 192.193388 -36 
L 195.267769 -36 
L 198.342149 -36 
L 201.416529 -36 
L 204.490909 -36 
L 207.565289 -36 
L 210.639669 -36 
L 213.71405 -36 
L 216.78843 -36 
L 219.86281 -36 
L 222.93719 -36 
L 226.01157 -36 
L 229.08595 -36 
L 232.160331 -36 
L 235.234711 -36 
L 238.309091 -36 
L 241.383471 -36 
L 244.457851 -36 
L 247.532231 -36 
L 250.606612 -36 
L 253.680992 -36 
L 256.755372 -36 
L 259.829752 -36 
L 262.904132 -36 
L 265.978512 -36 
L 269.052893 -36 
L 272.127273 -36 
L 275.201653 -36 
L 278.276033 -36 
L 281.350413 -36 
L 284.424793 -36 
L 287.499174 -36 
L 290.573554 -36 
L 293.647934 -36 
L 296.722314 -36 
L 299.796694 -36 
L 302.871074 -36 
L 305.945455 -36 
L 309.019835 -36 
L 312.094215 -36 
L 315.168595 -36 
L 318.242975 -36 
L 321.317355 -36 
L 324.391736 -36 
L 327.466116 -36 
L 330.540496 -36 
L 333.614876 -36 
L 336.689256 -36 
L 339.763636 -36 
L 342.838017 -36 
L 345.912397 -36 
L 348.986777 -36 
L 352.061157 -36 
L 355.135537 -36 
L 358.209917 -36 
L 361.284298 -36 
L 364.358678 -36 
L 367.433058 -36 
L 370.507438 -36 
L 373.581818 -36 
L 373.581818 -36.000856 
L 373.581818 -36.000856 
L 370.507438 -36.03078 
L 367.433058 -36.075314 
L 364.358678 -36.051384 
L 361.284298 -36.068318 
L 358.209917 -36.007828 
L 355.135537 -36.000152 
L 352.061157 -36.009933 
L 348.986777 -36.071676 
L 345.912397 -36.034472 
L 342.838017 -36.001105 
L 339.763636 -36.000002 
L 336.689256 -36 
L 333.614876 -36 
L 330.540496 -36 
L 327.466116 -36 
L 324.391736 -36 
L 321.317355 -36 
L 318.242975 -36 
L 315.168595 -36 
L 312.094215 -36 
L 309.019835 -36 
L 305.945455 -36 
L 302.871074 -36.000202 
L 299.796694 -36.015184 
L 296.722314 -36.076052 
L 293.647934 -36.025388 
L 290.573554 -36.000565 
L 287.499174 -36.000003 
L 284.424793 -36.001094 
L 281.350413 -36.034316 
L 278.276033 -36.071772 
L 275.201653 -36.010005 
L 272.127273 -36.000093 
L 269.052893 -36 
L 265.978512 -36 
L 262.904132 -36 
L 259.829752 -36 
L 256.755372 -36 
L 253.680992 -36.000389 
L 250.606612 -36.035544 
L 247.532231 -36.327523 
L 244.457851 -36.773676 
L 241.383471 -38.216628 
L 238.309091 -41.934392 
L 235.234711 -50.407953 
L 232.160331 -80.214862 
L 229.08595 -161.915741 
L 226.01157 -243.085714 
L 222.93719 -223.040159 
L 219.86281 -177.662305 
L 216.78843 -143.694601 
L 213.71405 -117.451514 
L 210.639669 -96.678459 
L 207.565289 -83.981463 
L 204.490909 -71.979149 
L 201.416529 -62.869836 
L 198.342149 -55.447836 
L 195.267769 -51.084752 
L 192.193388 -47.981021 
L 189.119008 -45.075655 
L 186.044628 -42.537455 
L 182.970248 -40.328473 
L 179.895868 -39.563834 
L 176.821488 -38.684156 
L 173.747107 -37.772807 
L 170.672727 -37.784451 
L 167.598347 -37.650577 
L 164.523967 -36.837648 
L 161.449587 -36.743352 
L 158.375207 -36.583296 
L 155.300826 -36.46382 
L 152.226446 -36.183711 
L 149.152066 -36.081649 
L 146.077686 -36.028304 
L 143.003306 -36.092389 
L 139.928926 -36.10077 
L 136.854545 -36.076929 
L 133.780165 -36.140951 
L 130.705785 -36.069638 
L 127.631405 -36.078797 
L 124.557025 -36.065094 
L 121.482645 -36.057421 
L 118.408264 -36.004171 
L 115.333884 -36.00002 
L 112.259504 -36 
L 109.185124 -36 
L 106.110744 -36 
L 103.036364 -36 
L 99.961983 -36.000001 
L 96.887603 -36.000649 
L 93.813223 -36.027109 
L 90.738843 -36.075447 
L 87.664463 -36.013995 
L 84.590083 -36.000173 
L 81.515702 -36.000126 
L 78.441322 -36.01179 
L 75.366942 -36.073782 
L 72.292562 -36.030776 
L 69.218182 -36.000856 
z
" id="m9c00cc7f10" style="stroke:#ffffff;stroke-opacity:0.25;"/>
    </defs>
    <g clip-path="url(#p6c4349c960)">
     <use style="fill:#2aa198;fill-opacity:0.25;stroke:#ffffff;stroke-opacity:0.25;" x="0" xlink:href="#m9c00cc7f10" y="288"/>
    </g>
   </g>
   <g id="line2d_15">
    <path clip-path="url(#p6c4349c960)" d="M 84.509122 251.999113 
L 87.401205 251.969786 
L 90.293288 251.921918 
L 93.185371 251.984683 
L 96.077453 251.999772 
L 98.969536 252 
L 101.861619 252 
L 104.753702 252 
L 107.645785 252 
L 110.537868 252 
L 113.42995 252 
L 116.322033 252 
L 119.214116 251.9997 
L 122.106199 251.982306 
L 124.998282 251.920827 
L 127.890365 251.973108 
L 130.782447 251.998805 
L 133.67453 251.977024 
L 136.566613 251.920181 
L 139.458696 251.97879 
L 142.350779 251.986933 
L 145.242862 251.923886 
L 148.134944 251.955091 
L 151.027027 251.918731 
L 153.91911 251.859095 
L 156.811193 251.737 
L 159.703276 251.537359 
L 162.595359 251.304377 
L 165.487441 250.710074 
L 168.379524 250.632043 
L 171.271607 250.369984 
L 174.16369 249.833289 
L 177.055773 249.381457 
L 179.947856 248.773807 
L 182.839938 247.539909 
L 185.732021 245.789539 
L 188.624104 244.611698 
L 191.516187 242.763574 
L 194.40827 238.755829 
L 197.300353 232.223155 
L 200.192435 224.723979 
L 203.084518 217.959773 
L 205.976601 207.858797 
L 208.868684 198.291197 
L 211.760767 182.158053 
L 214.652849 164.602398 
L 217.544932 140.363762 
L 220.437015 103.210432 
L 223.329098 61.542151 
L 226.221181 47.331566 
L 229.113264 129.867076 
L 232.005346 203.309915 
L 234.897429 233.727282 
L 237.789512 245.104008 
L 240.681595 249.643195 
L 243.573678 251.248695 
L 246.465761 251.805002 
L 249.357843 251.912569 
L 252.249926 251.974279 
L 255.142009 251.99937 
L 258.034092 251.999999 
L 260.926175 252 
L 263.818258 252 
L 266.71034 252 
L 269.602423 252 
L 272.494506 252 
L 275.386589 252 
L 278.278672 252 
L 281.170755 252 
L 284.062837 252 
L 286.95492 252 
L 289.847003 251.999966 
L 292.739086 251.994724 
L 295.631169 251.938622 
L 298.523252 251.945802 
L 301.415334 251.996367 
L 304.307417 251.999982 
L 307.1995 252 
L 310.091583 252 
L 312.983666 252 
L 315.875749 252 
L 318.767831 252 
L 321.659914 252 
L 324.551997 252 
L 327.44408 252 
L 330.336163 251.999655 
L 333.228246 251.98098 
L 336.120328 251.920461 
L 339.012411 251.974752 
L 341.904494 251.999392 
L 344.796577 251.999999 
L 347.68866 252 
L 350.580743 252 
L 353.472825 252 
L 356.364908 252 
L 359.256991 251.999772 
L 362.149074 251.984683 
L 365.041157 251.921918 
L 367.93324 251.969786 
L 370.825322 251.999113 
" style="fill:none;stroke:#268bd2;stroke-width:2;"/>
   </g>
   <g id="line2d_16">
    <path clip-path="url(#p6c4349c960)" d="M 69.218182 251.999144 
L 72.292562 251.969224 
L 75.366942 251.926218 
L 78.441322 251.98821 
L 81.515702 251.999874 
L 84.590083 251.999827 
L 87.664463 251.986005 
L 90.738843 251.924553 
L 93.813223 251.972891 
L 96.887603 251.999351 
L 99.961983 251.999999 
L 103.036364 252 
L 106.110744 252 
L 109.185124 252 
L 112.259504 252 
L 115.333884 251.99998 
L 118.408264 251.995829 
L 121.482645 251.942579 
L 124.557025 251.934906 
L 127.631405 251.921203 
L 130.705785 251.930362 
L 133.780165 251.859049 
L 136.854545 251.923071 
L 139.928926 251.89923 
L 143.003306 251.907611 
L 146.077686 251.971696 
L 149.152066 251.918351 
L 152.226446 251.816289 
L 155.300826 251.53618 
L 158.375207 251.416704 
L 161.449587 251.256648 
L 164.523967 251.162352 
L 167.598347 250.349423 
L 170.672727 250.215549 
L 173.747107 250.227193 
L 176.821488 249.315844 
L 179.895868 248.436166 
L 182.970248 247.671527 
L 186.044628 245.462545 
L 189.119008 242.924345 
L 192.193388 240.018979 
L 195.267769 236.915248 
L 198.342149 232.552164 
L 201.416529 225.130164 
L 204.490909 216.020851 
L 207.565289 204.018537 
L 210.639669 191.321541 
L 213.71405 170.548486 
L 216.78843 144.305399 
L 219.86281 110.337695 
L 222.93719 64.959841 
L 226.01157 44.914286 
L 229.08595 126.084259 
L 232.160331 207.785138 
L 235.234711 237.592047 
L 238.309091 246.065608 
L 241.383471 249.783372 
L 244.457851 251.226324 
L 247.532231 251.672477 
L 250.606612 251.964456 
L 253.680992 251.999611 
L 256.755372 252 
L 259.829752 252 
L 262.904132 252 
L 265.978512 252 
L 269.052893 252 
L 272.127273 251.999907 
L 275.201653 251.989995 
L 278.276033 251.928228 
L 281.350413 251.965684 
L 284.424793 251.998906 
L 287.499174 251.999997 
L 290.573554 251.999435 
L 293.647934 251.974612 
L 296.722314 251.923948 
L 299.796694 251.984816 
L 302.871074 251.999798 
L 305.945455 252 
L 309.019835 252 
L 312.094215 252 
L 315.168595 252 
L 318.242975 252 
L 321.317355 252 
L 324.391736 252 
L 327.466116 252 
L 330.540496 252 
L 333.614876 252 
L 336.689256 252 
L 339.763636 251.999998 
L 342.838017 251.998895 
L 345.912397 251.965528 
L 348.986777 251.928324 
L 352.061157 251.990067 
L 355.135537 251.999848 
L 358.209917 251.992172 
L 361.284298 251.931682 
L 364.358678 251.948616 
L 367.433058 251.924686 
L 370.507438 251.96922 
L 373.581818 251.999144 
" style="fill:none;stroke:#2aa198;stroke-width:2;"/>
   </g>
   <g id="patch_3">
    <path d="M 54 252 
L 54 34.56 
" style="fill:none;stroke:#eee8d5;stroke-linecap:square;stroke-linejoin:miter;stroke-width:1.25;"/>
   </g>
   <g id="patch_4">
    <path d="M 388.8 252 
L 388.8 34.56 
" style="fill:none;stroke:#eee8d5;stroke-linecap:square;stroke-linejoin:miter;stroke-width:1.25;"/>
   </g>
   <g id="patch_5">
    <path d="M 54 252 
L 388.8 252 
" style="fill:none;stroke:#eee8d5;stroke-linecap:square;stroke-linejoin:miter;stroke-width:1.25;"/>
   </g>
   <g id="patch_6">
    <path d="M 54 34.56 
L 388.8 34.56 
" style="fill:none;stroke:#eee8d5;stroke-linecap:square;stroke-linejoin:miter;stroke-width:1.25;"/>
   </g>
   <g id="text_17">
    <!-- $\Delta U = 10.0\, \mathrm{k_BT}$ -->
    <defs>
     <path d="M 34.1875 63.1875 
L 14.15625 8.203125 
L 54.25 8.203125 
z
M 0.78125 0 
L 28.609375 72.90625 
L 39.796875 72.90625 
L 67.578125 0 
z
" id="DejaVuSans-916"/>
     <path d="M 15.484375 72.90625 
L 25.390625 72.90625 
L 16.796875 28.609375 
Q 16.265625 25.640625 16.046875 23.703125 
Q 15.828125 21.78125 15.828125 20.3125 
Q 15.828125 13.578125 19.578125 10.078125 
Q 23.34375 6.59375 30.609375 6.59375 
Q 40.046875 6.59375 45.28125 11.765625 
Q 50.53125 16.9375 52.78125 28.609375 
L 61.375 72.90625 
L 71.296875 72.90625 
L 62.5 27.390625 
Q 59.625 12.640625 51.5625 5.609375 
Q 43.5 -1.421875 29.5 -1.421875 
Q 18.5625 -1.421875 12.1875 4.078125 
Q 5.8125 9.578125 5.8125 19 
Q 5.8125 20.703125 6.046875 22.828125 
Q 6.296875 24.953125 6.78125 27.390625 
z
" id="DejaVuSans-Oblique-85"/>
     <path d="M 10.59375 45.40625 
L 73.1875 45.40625 
L 73.1875 37.203125 
L 10.59375 37.203125 
z
M 10.59375 25.484375 
L 73.1875 25.484375 
L 73.1875 17.1875 
L 10.59375 17.1875 
z
" id="DejaVuSans-61"/>
     <path d="M 12.40625 8.296875 
L 28.515625 8.296875 
L 28.515625 63.921875 
L 10.984375 60.40625 
L 10.984375 69.390625 
L 28.421875 72.90625 
L 38.28125 72.90625 
L 38.28125 8.296875 
L 54.390625 8.296875 
L 54.390625 0 
L 12.40625 0 
z
" id="DejaVuSans-49"/>
     <path d="M 31.78125 66.40625 
Q 24.171875 66.40625 20.328125 58.90625 
Q 16.5 51.421875 16.5 36.375 
Q 16.5 21.390625 20.328125 13.890625 
Q 24.171875 6.390625 31.78125 6.390625 
Q 39.453125 6.390625 43.28125 13.890625 
Q 47.125 21.390625 47.125 36.375 
Q 47.125 51.421875 43.28125 58.90625 
Q 39.453125 66.40625 31.78125 66.40625 
z
M 31.78125 74.21875 
Q 44.046875 74.21875 50.515625 64.515625 
Q 56.984375 54.828125 56.984375 36.375 
Q 56.984375 17.96875 50.515625 8.265625 
Q 44.046875 -1.421875 31.78125 -1.421875 
Q 19.53125 -1.421875 13.0625 8.265625 
Q 6.59375 17.96875 6.59375 36.375 
Q 6.59375 54.828125 13.0625 64.515625 
Q 19.53125 74.21875 31.78125 74.21875 
z
" id="DejaVuSans-48"/>
     <path d="M 10.6875 12.40625 
L 21 12.40625 
L 21 0 
L 10.6875 0 
z
" id="DejaVuSans-46"/>
     <path d="M 9.078125 75.984375 
L 18.109375 75.984375 
L 18.109375 31.109375 
L 44.921875 54.6875 
L 56.390625 54.6875 
L 27.390625 29.109375 
L 57.625 0 
L 45.90625 0 
L 18.109375 26.703125 
L 18.109375 0 
L 9.078125 0 
z
" id="DejaVuSans-107"/>
     <path d="M 19.671875 34.8125 
L 19.671875 8.109375 
L 35.5 8.109375 
Q 43.453125 8.109375 47.28125 11.40625 
Q 51.125 14.703125 51.125 21.484375 
Q 51.125 28.328125 47.28125 31.5625 
Q 43.453125 34.8125 35.5 34.8125 
z
M 19.671875 64.796875 
L 19.671875 42.828125 
L 34.28125 42.828125 
Q 41.5 42.828125 45.03125 45.53125 
Q 48.578125 48.25 48.578125 53.8125 
Q 48.578125 59.328125 45.03125 62.0625 
Q 41.5 64.796875 34.28125 64.796875 
z
M 9.8125 72.90625 
L 35.015625 72.90625 
Q 46.296875 72.90625 52.390625 68.21875 
Q 58.5 63.53125 58.5 54.890625 
Q 58.5 48.1875 55.375 44.234375 
Q 52.25 40.28125 46.1875 39.3125 
Q 53.46875 37.75 57.5 32.78125 
Q 61.53125 27.828125 61.53125 20.40625 
Q 61.53125 10.640625 54.890625 5.3125 
Q 48.25 0 35.984375 0 
L 9.8125 0 
z
" id="DejaVuSans-66"/>
     <path d="M -0.296875 72.90625 
L 61.375 72.90625 
L 61.375 64.59375 
L 35.5 64.59375 
L 35.5 0 
L 25.59375 0 
L 25.59375 64.59375 
L -0.296875 64.59375 
z
" id="DejaVuSans-84"/>
    </defs>
    <g style="fill:#262626;" transform="translate(167.48 28.56)scale(0.16 -0.16)">
     <use transform="translate(0 0.015625)" xlink:href="#DejaVuSans-916"/>
     <use transform="translate(68.408203 0.015625)" xlink:href="#DejaVuSans-Oblique-85"/>
     <use transform="translate(161.083984 0.015625)" xlink:href="#DejaVuSans-61"/>
     <use transform="translate(264.355469 0.015625)" xlink:href="#DejaVuSans-49"/>
     <use transform="translate(327.978516 0.015625)" xlink:href="#DejaVuSans-48"/>
     <use transform="translate(391.601562 0.015625)" xlink:href="#DejaVuSans-46"/>
     <use transform="translate(423.388672 0.015625)" xlink:href="#DejaVuSans-48"/>
     <use transform="translate(503.247395 0.015625)" xlink:href="#DejaVuSans-107"/>
     <use transform="translate(562.114583 -16.390625)scale(0.7)" xlink:href="#DejaVuSans-66"/>
     <use transform="translate(612.871418 0.015625)" xlink:href="#DejaVuSans-84"/>
    </g>
   </g>
   <g id="legend_1">
    <g id="patch_7">
     <path d="M 253.8 94.26 
L 378.3 94.26 
Q 381.3 94.26 381.3 91.26 
L 381.3 45.06 
Q 381.3 42.06 378.3 42.06 
L 253.8 42.06 
Q 250.8 42.06 250.8 45.06 
L 250.8 91.26 
Q 250.8 94.26 253.8 94.26 
z
" style="fill:#eee8d5;opacity:0.8;stroke:#cccccc;stroke-linejoin:miter;"/>
    </g>
    <g id="line2d_17">
     <path d="M 256.8 56.17875 
L 286.8 56.17875 
" style="fill:none;stroke:#268bd2;stroke-width:2;"/>
    </g>
    <g id="line2d_18"/>
    <g id="text_18">
     <!-- $\hat t$ = 0.9999s -->
     <defs>
      <path d="M -28.609375 79.984375 
L -21.390625 79.984375 
L -9.421875 61.625 
L -16.21875 61.625 
L -25 73.578125 
L -33.796875 61.625 
L -40.578125 61.625 
z
M -25 56 
z
" id="DejaVuSans-770"/>
      <path d="M 42.28125 54.6875 
L 40.921875 47.703125 
L 23 47.703125 
L 17.1875 18.015625 
Q 16.890625 16.359375 16.75 15.234375 
Q 16.609375 14.109375 16.609375 13.484375 
Q 16.609375 10.359375 18.484375 8.9375 
Q 20.359375 7.515625 24.515625 7.515625 
L 33.59375 7.515625 
L 32.078125 0 
L 23.484375 0 
Q 15.484375 0 11.546875 3.125 
Q 7.625 6.25 7.625 12.59375 
Q 7.625 13.71875 7.765625 15.0625 
Q 7.90625 16.40625 8.203125 18.015625 
L 14.015625 47.703125 
L 6.390625 47.703125 
L 7.8125 54.6875 
L 15.28125 54.6875 
L 18.3125 70.21875 
L 27.296875 70.21875 
L 24.3125 54.6875 
z
" id="DejaVuSans-Oblique-116"/>
      <path id="ArialMT-32"/>
      <path d="M 52.828125 42.09375 
L 5.5625 42.09375 
L 5.5625 50.296875 
L 52.828125 50.296875 
z
M 52.828125 20.359375 
L 5.5625 20.359375 
L 5.5625 28.5625 
L 52.828125 28.5625 
z
" id="ArialMT-61"/>
      <path d="M 5.46875 16.546875 
L 13.921875 17.328125 
Q 14.984375 11.375 18.015625 8.6875 
Q 21.046875 6 25.78125 6 
Q 29.828125 6 32.875 7.859375 
Q 35.9375 9.71875 37.890625 12.8125 
Q 39.84375 15.921875 41.15625 21.1875 
Q 42.484375 26.46875 42.484375 31.9375 
Q 42.484375 32.515625 42.4375 33.6875 
Q 39.796875 29.5 35.234375 26.875 
Q 30.671875 24.265625 25.34375 24.265625 
Q 16.453125 24.265625 10.296875 30.703125 
Q 4.15625 37.15625 4.15625 47.703125 
Q 4.15625 58.59375 10.578125 65.234375 
Q 17 71.875 26.65625 71.875 
Q 33.640625 71.875 39.421875 68.109375 
Q 45.21875 64.359375 48.21875 57.390625 
Q 51.21875 50.4375 51.21875 37.25 
Q 51.21875 23.53125 48.234375 15.40625 
Q 45.265625 7.28125 39.375 3.03125 
Q 33.5 -1.21875 25.59375 -1.21875 
Q 17.1875 -1.21875 11.859375 3.4375 
Q 6.546875 8.109375 5.46875 16.546875 
z
M 41.453125 48.140625 
Q 41.453125 55.71875 37.421875 60.15625 
Q 33.40625 64.59375 27.734375 64.59375 
Q 21.875 64.59375 17.53125 59.8125 
Q 13.1875 55.03125 13.1875 47.40625 
Q 13.1875 40.578125 17.3125 36.296875 
Q 21.4375 32.03125 27.484375 32.03125 
Q 33.59375 32.03125 37.515625 36.296875 
Q 41.453125 40.578125 41.453125 48.140625 
z
" id="ArialMT-57"/>
     </defs>
     <g style="fill:#262626;" transform="translate(298.8 61.42875)scale(0.15 -0.15)">
      <use transform="translate(47.546875 27.015625)" xlink:href="#DejaVuSans-770"/>
      <use transform="translate(0 0.296875)" xlink:href="#DejaVuSans-Oblique-116"/>
      <use transform="translate(39.208984 0.296875)" xlink:href="#ArialMT-32"/>
      <use transform="translate(66.992188 0.296875)" xlink:href="#ArialMT-61"/>
      <use transform="translate(125.390625 0.296875)" xlink:href="#ArialMT-32"/>
      <use transform="translate(153.173828 0.296875)" xlink:href="#ArialMT-48"/>
      <use transform="translate(208.789062 0.296875)" xlink:href="#ArialMT-46"/>
      <use transform="translate(236.572266 0.296875)" xlink:href="#ArialMT-57"/>
      <use transform="translate(292.1875 0.296875)" xlink:href="#ArialMT-57"/>
      <use transform="translate(347.802734 0.296875)" xlink:href="#ArialMT-57"/>
      <use transform="translate(403.417969 0.296875)" xlink:href="#ArialMT-57"/>
      <use transform="translate(459.033203 0.296875)" xlink:href="#ArialMT-115"/>
     </g>
    </g>
    <g id="line2d_19">
     <path d="M 256.8 80.02875 
L 286.8 80.02875 
" style="fill:none;stroke:#2aa198;stroke-width:2;"/>
    </g>
    <g id="line2d_20"/>
    <g id="text_19">
     <!-- $\hat t$ = 2.0000s -->
     <g style="fill:#262626;" transform="translate(298.8 85.27875)scale(0.15 -0.15)">
      <use transform="translate(47.546875 27.015625)" xlink:href="#DejaVuSans-770"/>
      <use transform="translate(0 0.296875)" xlink:href="#DejaVuSans-Oblique-116"/>
      <use transform="translate(39.208984 0.296875)" xlink:href="#ArialMT-32"/>
      <use transform="translate(66.992188 0.296875)" xlink:href="#ArialMT-61"/>
      <use transform="translate(125.390625 0.296875)" xlink:href="#ArialMT-32"/>
      <use transform="translate(153.173828 0.296875)" xlink:href="#ArialMT-50"/>
      <use transform="translate(208.789062 0.296875)" xlink:href="#ArialMT-46"/>
      <use transform="translate(236.572266 0.296875)" xlink:href="#ArialMT-48"/>
      <use transform="translate(292.1875 0.296875)" xlink:href="#ArialMT-48"/>
      <use transform="translate(347.802734 0.296875)" xlink:href="#ArialMT-48"/>
      <use transform="translate(403.417969 0.296875)" xlink:href="#ArialMT-48"/>
      <use transform="translate(459.033203 0.296875)" xlink:href="#ArialMT-115"/>
     </g>
    </g>
   </g>
  </g>
 </g>
 <defs>
  <clipPath id="p6c4349c960">
   <rect height="217.44" width="334.8" x="54" y="34.56"/>
  </clipPath>
 </defs>
</svg>
