<?xml version="1.0" encoding="utf-8" standalone="no"?>
<!DOCTYPE svg PUBLIC "-//W3C//DTD SVG 1.1//EN"
  "http://www.w3.org/Graphics/SVG/1.1/DTD/svg11.dtd">
<!-- Created with matplotlib (https://matplotlib.org/) -->
<svg height="288pt" version="1.1" viewBox="0 0 432 288" width="432pt" xmlns="http://www.w3.org/2000/svg" xmlns:xlink="http://www.w3.org/1999/xlink">
 <defs>
  <style type="text/css">
*{stroke-linecap:butt;stroke-linejoin:round;}
  </style>
 </defs>
 <g id="figure_1">
  <g id="patch_1">
   <path d="M 0 288 
L 432 288 
L 432 0 
L 0 0 
z
" style="fill:#ffffff;"/>
  </g>
  <g id="axes_1">
   <g id="patch_2">
    <path d="M 54 252 
L 388.8 252 
L 388.8 34.56 
L 54 34.56 
z
" style="fill:#eee8d5;"/>
   </g>
   <g id="matplotlib.axis_1">
    <g id="xtick_1">
     <g id="line2d_1">
      <path clip-path="url(#p60dbf90fef)" d="M 57.692367 252 
L 57.692367 34.56 
" style="fill:none;stroke:#fdf6e3;"/>
     </g>
     <g id="text_1">
      <!-- −2.0 -->
      <defs>
       <path d="M 52.828125 31.203125 
L 5.5625 31.203125 
L 5.5625 39.40625 
L 52.828125 39.40625 
z
" id="ArialMT-8722"/>
       <path d="M 50.34375 8.453125 
L 50.34375 0 
L 3.03125 0 
Q 2.9375 3.171875 4.046875 6.109375 
Q 5.859375 10.9375 9.828125 15.625 
Q 13.8125 20.3125 21.34375 26.46875 
Q 33.015625 36.03125 37.109375 41.625 
Q 41.21875 47.21875 41.21875 52.203125 
Q 41.21875 57.421875 37.46875 61 
Q 33.734375 64.59375 27.734375 64.59375 
Q 21.390625 64.59375 17.578125 60.78125 
Q 13.765625 56.984375 13.71875 50.25 
L 4.6875 51.171875 
Q 5.609375 61.28125 11.65625 66.578125 
Q 17.71875 71.875 27.9375 71.875 
Q 38.234375 71.875 44.234375 66.15625 
Q 50.25 60.453125 50.25 52 
Q 50.25 47.703125 48.484375 43.546875 
Q 46.734375 39.40625 42.65625 34.8125 
Q 38.578125 30.21875 29.109375 22.21875 
Q 21.1875 15.578125 18.9375 13.203125 
Q 16.703125 10.84375 15.234375 8.453125 
z
" id="ArialMT-50"/>
       <path d="M 9.078125 0 
L 9.078125 10.015625 
L 19.09375 10.015625 
L 19.09375 0 
z
" id="ArialMT-46"/>
       <path d="M 4.15625 35.296875 
Q 4.15625 48 6.765625 55.734375 
Q 9.375 63.484375 14.515625 67.671875 
Q 19.671875 71.875 27.484375 71.875 
Q 33.25 71.875 37.59375 69.546875 
Q 41.9375 67.234375 44.765625 62.859375 
Q 47.609375 58.5 49.21875 52.21875 
Q 50.828125 45.953125 50.828125 35.296875 
Q 50.828125 22.703125 48.234375 14.96875 
Q 45.65625 7.234375 40.5 3 
Q 35.359375 -1.21875 27.484375 -1.21875 
Q 17.140625 -1.21875 11.234375 6.203125 
Q 4.15625 15.140625 4.15625 35.296875 
z
M 13.1875 35.296875 
Q 13.1875 17.671875 17.3125 11.828125 
Q 21.4375 6 27.484375 6 
Q 33.546875 6 37.671875 11.859375 
Q 41.796875 17.71875 41.796875 35.296875 
Q 41.796875 52.984375 37.671875 58.78125 
Q 33.546875 64.59375 27.390625 64.59375 
Q 21.34375 64.59375 17.71875 59.46875 
Q 13.1875 52.9375 13.1875 35.296875 
z
" id="ArialMT-48"/>
      </defs>
      <g style="fill:#657b83;" transform="translate(46.835023 269.373594)scale(0.11 -0.11)">
       <use xlink:href="#ArialMT-8722"/>
       <use x="58.398438" xlink:href="#ArialMT-50"/>
       <use x="114.013672" xlink:href="#ArialMT-46"/>
       <use x="141.796875" xlink:href="#ArialMT-48"/>
      </g>
     </g>
    </g>
    <g id="xtick_2">
     <g id="line2d_2">
      <path clip-path="url(#p60dbf90fef)" d="M 98.896705 252 
L 98.896705 34.56 
" style="fill:none;stroke:#fdf6e3;"/>
     </g>
     <g id="text_2">
      <!-- −1.5 -->
      <defs>
       <path d="M 37.25 0 
L 28.46875 0 
L 28.46875 56 
Q 25.296875 52.984375 20.140625 49.953125 
Q 14.984375 46.921875 10.890625 45.40625 
L 10.890625 53.90625 
Q 18.265625 57.375 23.78125 62.296875 
Q 29.296875 67.234375 31.59375 71.875 
L 37.25 71.875 
z
" id="ArialMT-49"/>
       <path d="M 4.15625 18.75 
L 13.375 19.53125 
Q 14.40625 12.796875 18.140625 9.390625 
Q 21.875 6 27.15625 6 
Q 33.5 6 37.890625 10.78125 
Q 42.28125 15.578125 42.28125 23.484375 
Q 42.28125 31 38.0625 35.34375 
Q 33.84375 39.703125 27 39.703125 
Q 22.75 39.703125 19.328125 37.765625 
Q 15.921875 35.84375 13.96875 32.765625 
L 5.71875 33.84375 
L 12.640625 70.609375 
L 48.25 70.609375 
L 48.25 62.203125 
L 19.671875 62.203125 
L 15.828125 42.96875 
Q 22.265625 47.46875 29.34375 47.46875 
Q 38.71875 47.46875 45.15625 40.96875 
Q 51.609375 34.46875 51.609375 24.265625 
Q 51.609375 14.546875 45.953125 7.46875 
Q 39.0625 -1.21875 27.15625 -1.21875 
Q 17.390625 -1.21875 11.203125 4.25 
Q 5.03125 9.71875 4.15625 18.75 
z
" id="ArialMT-53"/>
      </defs>
      <g style="fill:#657b83;" transform="translate(88.039362 269.373594)scale(0.11 -0.11)">
       <use xlink:href="#ArialMT-8722"/>
       <use x="58.398438" xlink:href="#ArialMT-49"/>
       <use x="114.013672" xlink:href="#ArialMT-46"/>
       <use x="141.796875" xlink:href="#ArialMT-53"/>
      </g>
     </g>
    </g>
    <g id="xtick_3">
     <g id="line2d_3">
      <path clip-path="url(#p60dbf90fef)" d="M 140.101044 252 
L 140.101044 34.56 
" style="fill:none;stroke:#fdf6e3;"/>
     </g>
     <g id="text_3">
      <!-- −1.0 -->
      <g style="fill:#657b83;" transform="translate(129.2437 269.373594)scale(0.11 -0.11)">
       <use xlink:href="#ArialMT-8722"/>
       <use x="58.398438" xlink:href="#ArialMT-49"/>
       <use x="114.013672" xlink:href="#ArialMT-46"/>
       <use x="141.796875" xlink:href="#ArialMT-48"/>
      </g>
     </g>
    </g>
    <g id="xtick_4">
     <g id="line2d_4">
      <path clip-path="url(#p60dbf90fef)" d="M 181.305383 252 
L 181.305383 34.56 
" style="fill:none;stroke:#fdf6e3;"/>
     </g>
     <g id="text_4">
      <!-- −0.5 -->
      <g style="fill:#657b83;" transform="translate(170.448039 269.373594)scale(0.11 -0.11)">
       <use xlink:href="#ArialMT-8722"/>
       <use x="58.398438" xlink:href="#ArialMT-48"/>
       <use x="114.013672" xlink:href="#ArialMT-46"/>
       <use x="141.796875" xlink:href="#ArialMT-53"/>
      </g>
     </g>
    </g>
    <g id="xtick_5">
     <g id="line2d_5">
      <path clip-path="url(#p60dbf90fef)" d="M 222.509721 252 
L 222.509721 34.56 
" style="fill:none;stroke:#fdf6e3;"/>
     </g>
     <g id="text_5">
      <!-- 0.0 -->
      <g style="fill:#657b83;" transform="translate(214.864721 269.373594)scale(0.11 -0.11)">
       <use xlink:href="#ArialMT-48"/>
       <use x="55.615234" xlink:href="#ArialMT-46"/>
       <use x="83.398438" xlink:href="#ArialMT-48"/>
      </g>
     </g>
    </g>
    <g id="xtick_6">
     <g id="line2d_6">
      <path clip-path="url(#p60dbf90fef)" d="M 263.71406 252 
L 263.71406 34.56 
" style="fill:none;stroke:#fdf6e3;"/>
     </g>
     <g id="text_6">
      <!-- 0.5 -->
      <g style="fill:#657b83;" transform="translate(256.06906 269.373594)scale(0.11 -0.11)">
       <use xlink:href="#ArialMT-48"/>
       <use x="55.615234" xlink:href="#ArialMT-46"/>
       <use x="83.398438" xlink:href="#ArialMT-53"/>
      </g>
     </g>
    </g>
    <g id="xtick_7">
     <g id="line2d_7">
      <path clip-path="url(#p60dbf90fef)" d="M 304.918398 252 
L 304.918398 34.56 
" style="fill:none;stroke:#fdf6e3;"/>
     </g>
     <g id="text_7">
      <!-- 1.0 -->
      <g style="fill:#657b83;" transform="translate(297.273398 269.373594)scale(0.11 -0.11)">
       <use xlink:href="#ArialMT-49"/>
       <use x="55.615234" xlink:href="#ArialMT-46"/>
       <use x="83.398438" xlink:href="#ArialMT-48"/>
      </g>
     </g>
    </g>
    <g id="xtick_8">
     <g id="line2d_8">
      <path clip-path="url(#p60dbf90fef)" d="M 346.122737 252 
L 346.122737 34.56 
" style="fill:none;stroke:#fdf6e3;"/>
     </g>
     <g id="text_8">
      <!-- 1.5 -->
      <g style="fill:#657b83;" transform="translate(338.477737 269.373594)scale(0.11 -0.11)">
       <use xlink:href="#ArialMT-49"/>
       <use x="55.615234" xlink:href="#ArialMT-46"/>
       <use x="83.398438" xlink:href="#ArialMT-53"/>
      </g>
     </g>
    </g>
    <g id="xtick_9">
     <g id="line2d_9">
      <path clip-path="url(#p60dbf90fef)" d="M 387.327076 252 
L 387.327076 34.56 
" style="fill:none;stroke:#fdf6e3;"/>
     </g>
     <g id="text_9">
      <!-- 2.0 -->
      <g style="fill:#657b83;" transform="translate(379.682076 269.373594)scale(0.11 -0.11)">
       <use xlink:href="#ArialMT-50"/>
       <use x="55.615234" xlink:href="#ArialMT-46"/>
       <use x="83.398438" xlink:href="#ArialMT-48"/>
      </g>
     </g>
    </g>
    <g id="text_10">
     <!-- $\frac{x}{L}$ -->
     <defs>
      <path d="M 60.015625 54.6875 
L 34.90625 27.875 
L 50.296875 0 
L 39.984375 0 
L 28.421875 21.6875 
L 8.296875 0 
L -2.59375 0 
L 24.3125 28.8125 
L 10.015625 54.6875 
L 20.3125 54.6875 
L 30.8125 34.90625 
L 49.125 54.6875 
z
" id="DejaVuSans-Oblique-120"/>
      <path d="M 16.796875 72.90625 
L 26.703125 72.90625 
L 14.203125 8.203125 
L 49.703125 8.203125 
L 48.09375 0 
L 2.6875 0 
z
" id="DejaVuSans-Oblique-76"/>
     </defs>
     <g style="fill:#657b83;" transform="translate(216 292.159844)scale(0.2 -0.2)">
      <use transform="translate(0 44.71875)scale(0.7)" xlink:href="#DejaVuSans-Oblique-120"/>
      <use transform="translate(1 -37.565625)scale(0.7)" xlink:href="#DejaVuSans-Oblique-76"/>
      <path d="M 0 19.71875 
L 0 25.96875 
L 41.425781 25.96875 
L 41.425781 19.71875 
L 0 19.71875 
z
"/>
     </g>
    </g>
   </g>
   <g id="matplotlib.axis_2">
    <g id="ytick_1">
     <g id="line2d_10">
      <path clip-path="url(#p60dbf90fef)" d="M 54 252 
L 388.8 252 
" style="fill:none;stroke:#fdf6e3;"/>
     </g>
     <g id="text_11">
      <!-- 0.00 -->
      <g style="fill:#657b83;" transform="translate(23.092969 255.936797)scale(0.11 -0.11)">
       <use xlink:href="#ArialMT-48"/>
       <use x="55.615234" xlink:href="#ArialMT-46"/>
       <use x="83.398438" xlink:href="#ArialMT-48"/>
       <use x="139.013672" xlink:href="#ArialMT-48"/>
      </g>
     </g>
    </g>
    <g id="ytick_2">
     <g id="line2d_11">
      <path clip-path="url(#p60dbf90fef)" d="M 54 224.546473 
L 388.8 224.546473 
" style="fill:none;stroke:#fdf6e3;"/>
     </g>
     <g id="text_12">
      <!-- 0.25 -->
      <g style="fill:#657b83;" transform="translate(23.092969 228.483269)scale(0.11 -0.11)">
       <use xlink:href="#ArialMT-48"/>
       <use x="55.615234" xlink:href="#ArialMT-46"/>
       <use x="83.398438" xlink:href="#ArialMT-50"/>
       <use x="139.013672" xlink:href="#ArialMT-53"/>
      </g>
     </g>
    </g>
    <g id="ytick_3">
     <g id="line2d_12">
      <path clip-path="url(#p60dbf90fef)" d="M 54 197.092945 
L 388.8 197.092945 
" style="fill:none;stroke:#fdf6e3;"/>
     </g>
     <g id="text_13">
      <!-- 0.50 -->
      <g style="fill:#657b83;" transform="translate(23.092969 201.029742)scale(0.11 -0.11)">
       <use xlink:href="#ArialMT-48"/>
       <use x="55.615234" xlink:href="#ArialMT-46"/>
       <use x="83.398438" xlink:href="#ArialMT-53"/>
       <use x="139.013672" xlink:href="#ArialMT-48"/>
      </g>
     </g>
    </g>
    <g id="ytick_4">
     <g id="line2d_13">
      <path clip-path="url(#p60dbf90fef)" d="M 54 169.639418 
L 388.8 169.639418 
" style="fill:none;stroke:#fdf6e3;"/>
     </g>
     <g id="text_14">
      <!-- 0.75 -->
      <defs>
       <path d="M 4.734375 62.203125 
L 4.734375 70.65625 
L 51.078125 70.65625 
L 51.078125 63.8125 
Q 44.234375 56.546875 37.515625 44.484375 
Q 30.8125 32.421875 27.15625 19.671875 
Q 24.515625 10.6875 23.78125 0 
L 14.75 0 
Q 14.890625 8.453125 18.0625 20.40625 
Q 21.234375 32.375 27.171875 43.484375 
Q 33.109375 54.59375 39.796875 62.203125 
z
" id="ArialMT-55"/>
      </defs>
      <g style="fill:#657b83;" transform="translate(23.092969 173.576215)scale(0.11 -0.11)">
       <use xlink:href="#ArialMT-48"/>
       <use x="55.615234" xlink:href="#ArialMT-46"/>
       <use x="83.398438" xlink:href="#ArialMT-55"/>
       <use x="139.013672" xlink:href="#ArialMT-53"/>
      </g>
     </g>
    </g>
    <g id="ytick_5">
     <g id="line2d_14">
      <path clip-path="url(#p60dbf90fef)" d="M 54 142.18589 
L 388.8 142.18589 
" style="fill:none;stroke:#fdf6e3;"/>
     </g>
     <g id="text_15">
      <!-- 1.00 -->
      <g style="fill:#657b83;" transform="translate(23.092969 146.122687)scale(0.11 -0.11)">
       <use xlink:href="#ArialMT-49"/>
       <use x="55.615234" xlink:href="#ArialMT-46"/>
       <use x="83.398438" xlink:href="#ArialMT-48"/>
       <use x="139.013672" xlink:href="#ArialMT-48"/>
      </g>
     </g>
    </g>
    <g id="ytick_6">
     <g id="line2d_15">
      <path clip-path="url(#p60dbf90fef)" d="M 54 114.732363 
L 388.8 114.732363 
" style="fill:none;stroke:#fdf6e3;"/>
     </g>
     <g id="text_16">
      <!-- 1.25 -->
      <g style="fill:#657b83;" transform="translate(23.092969 118.66916)scale(0.11 -0.11)">
       <use xlink:href="#ArialMT-49"/>
       <use x="55.615234" xlink:href="#ArialMT-46"/>
       <use x="83.398438" xlink:href="#ArialMT-50"/>
       <use x="139.013672" xlink:href="#ArialMT-53"/>
      </g>
     </g>
    </g>
    <g id="ytick_7">
     <g id="line2d_16">
      <path clip-path="url(#p60dbf90fef)" d="M 54 87.278835 
L 388.8 87.278835 
" style="fill:none;stroke:#fdf6e3;"/>
     </g>
     <g id="text_17">
      <!-- 1.50 -->
      <g style="fill:#657b83;" transform="translate(23.092969 91.215632)scale(0.11 -0.11)">
       <use xlink:href="#ArialMT-49"/>
       <use x="55.615234" xlink:href="#ArialMT-46"/>
       <use x="83.398438" xlink:href="#ArialMT-53"/>
       <use x="139.013672" xlink:href="#ArialMT-48"/>
      </g>
     </g>
    </g>
    <g id="ytick_8">
     <g id="line2d_17">
      <path clip-path="url(#p60dbf90fef)" d="M 54 59.825308 
L 388.8 59.825308 
" style="fill:none;stroke:#fdf6e3;"/>
     </g>
     <g id="text_18">
      <!-- 1.75 -->
      <g style="fill:#657b83;" transform="translate(23.092969 63.762105)scale(0.11 -0.11)">
       <use xlink:href="#ArialMT-49"/>
       <use x="55.615234" xlink:href="#ArialMT-46"/>
       <use x="83.398438" xlink:href="#ArialMT-55"/>
       <use x="139.013672" xlink:href="#ArialMT-53"/>
      </g>
     </g>
    </g>
    <g id="text_19">
     <!-- Density -->
     <defs>
      <path d="M 7.71875 0 
L 7.71875 71.578125 
L 32.375 71.578125 
Q 40.71875 71.578125 45.125 70.5625 
Q 51.265625 69.140625 55.609375 65.4375 
Q 61.28125 60.640625 64.078125 53.1875 
Q 66.890625 45.75 66.890625 36.1875 
Q 66.890625 28.03125 64.984375 21.734375 
Q 63.09375 15.4375 60.109375 11.296875 
Q 57.125 7.171875 53.578125 4.796875 
Q 50.046875 2.4375 45.046875 1.21875 
Q 40.046875 0 33.546875 0 
z
M 17.1875 8.453125 
L 32.46875 8.453125 
Q 39.546875 8.453125 43.578125 9.765625 
Q 47.609375 11.078125 50 13.484375 
Q 53.375 16.84375 55.25 22.53125 
Q 57.125 28.21875 57.125 36.328125 
Q 57.125 47.5625 53.4375 53.59375 
Q 49.75 59.625 44.484375 61.671875 
Q 40.671875 63.140625 32.234375 63.140625 
L 17.1875 63.140625 
z
" id="ArialMT-68"/>
      <path d="M 42.09375 16.703125 
L 51.171875 15.578125 
Q 49.03125 7.625 43.21875 3.21875 
Q 37.40625 -1.171875 28.375 -1.171875 
Q 17 -1.171875 10.328125 5.828125 
Q 3.65625 12.84375 3.65625 25.484375 
Q 3.65625 38.578125 10.390625 45.796875 
Q 17.140625 53.03125 27.875 53.03125 
Q 38.28125 53.03125 44.875 45.953125 
Q 51.46875 38.875 51.46875 26.03125 
Q 51.46875 25.25 51.421875 23.6875 
L 12.75 23.6875 
Q 13.234375 15.140625 17.578125 10.59375 
Q 21.921875 6.0625 28.421875 6.0625 
Q 33.25 6.0625 36.671875 8.59375 
Q 40.09375 11.140625 42.09375 16.703125 
z
M 13.234375 30.90625 
L 42.1875 30.90625 
Q 41.609375 37.453125 38.875 40.71875 
Q 34.671875 45.796875 27.984375 45.796875 
Q 21.921875 45.796875 17.796875 41.75 
Q 13.671875 37.703125 13.234375 30.90625 
z
" id="ArialMT-101"/>
      <path d="M 6.59375 0 
L 6.59375 51.859375 
L 14.5 51.859375 
L 14.5 44.484375 
Q 20.21875 53.03125 31 53.03125 
Q 35.6875 53.03125 39.625 51.34375 
Q 43.5625 49.65625 45.515625 46.921875 
Q 47.46875 44.1875 48.25 40.4375 
Q 48.734375 37.984375 48.734375 31.890625 
L 48.734375 0 
L 39.9375 0 
L 39.9375 31.546875 
Q 39.9375 36.921875 38.90625 39.578125 
Q 37.890625 42.234375 35.28125 43.8125 
Q 32.671875 45.40625 29.15625 45.40625 
Q 23.53125 45.40625 19.453125 41.84375 
Q 15.375 38.28125 15.375 28.328125 
L 15.375 0 
z
" id="ArialMT-110"/>
      <path d="M 3.078125 15.484375 
L 11.765625 16.84375 
Q 12.5 11.625 15.84375 8.84375 
Q 19.1875 6.0625 25.203125 6.0625 
Q 31.25 6.0625 34.171875 8.515625 
Q 37.109375 10.984375 37.109375 14.3125 
Q 37.109375 17.28125 34.515625 19 
Q 32.71875 20.171875 25.53125 21.96875 
Q 15.875 24.421875 12.140625 26.203125 
Q 8.40625 27.984375 6.46875 31.125 
Q 4.546875 34.28125 4.546875 38.09375 
Q 4.546875 41.546875 6.125 44.5 
Q 7.71875 47.46875 10.453125 49.421875 
Q 12.5 50.921875 16.03125 51.96875 
Q 19.578125 53.03125 23.640625 53.03125 
Q 29.734375 53.03125 34.34375 51.265625 
Q 38.96875 49.515625 41.15625 46.5 
Q 43.359375 43.5 44.1875 38.484375 
L 35.59375 37.3125 
Q 35.015625 41.3125 32.203125 43.546875 
Q 29.390625 45.796875 24.265625 45.796875 
Q 18.21875 45.796875 15.625 43.796875 
Q 13.03125 41.796875 13.03125 39.109375 
Q 13.03125 37.40625 14.109375 36.03125 
Q 15.1875 34.625 17.484375 33.6875 
Q 18.796875 33.203125 25.25 31.453125 
Q 34.578125 28.953125 38.25 27.359375 
Q 41.9375 25.78125 44.03125 22.75 
Q 46.140625 19.734375 46.140625 15.234375 
Q 46.140625 10.84375 43.578125 6.953125 
Q 41.015625 3.078125 36.171875 0.953125 
Q 31.34375 -1.171875 25.25 -1.171875 
Q 15.140625 -1.171875 9.84375 3.03125 
Q 4.546875 7.234375 3.078125 15.484375 
z
" id="ArialMT-115"/>
      <path d="M 6.640625 61.46875 
L 6.640625 71.578125 
L 15.4375 71.578125 
L 15.4375 61.46875 
z
M 6.640625 0 
L 6.640625 51.859375 
L 15.4375 51.859375 
L 15.4375 0 
z
" id="ArialMT-105"/>
      <path d="M 25.78125 7.859375 
L 27.046875 0.09375 
Q 23.34375 -0.6875 20.40625 -0.6875 
Q 15.625 -0.6875 12.984375 0.828125 
Q 10.359375 2.34375 9.28125 4.8125 
Q 8.203125 7.28125 8.203125 15.1875 
L 8.203125 45.015625 
L 1.765625 45.015625 
L 1.765625 51.859375 
L 8.203125 51.859375 
L 8.203125 64.703125 
L 16.9375 69.96875 
L 16.9375 51.859375 
L 25.78125 51.859375 
L 25.78125 45.015625 
L 16.9375 45.015625 
L 16.9375 14.703125 
Q 16.9375 10.9375 17.40625 9.859375 
Q 17.875 8.796875 18.921875 8.15625 
Q 19.96875 7.515625 21.921875 7.515625 
Q 23.390625 7.515625 25.78125 7.859375 
z
" id="ArialMT-116"/>
      <path d="M 6.203125 -19.96875 
L 5.21875 -11.71875 
Q 8.109375 -12.5 10.25 -12.5 
Q 13.1875 -12.5 14.9375 -11.515625 
Q 16.703125 -10.546875 17.828125 -8.796875 
Q 18.65625 -7.46875 20.515625 -2.25 
Q 20.75 -1.515625 21.296875 -0.09375 
L 1.609375 51.859375 
L 11.078125 51.859375 
L 21.875 21.828125 
Q 23.96875 16.109375 25.640625 9.8125 
Q 27.15625 15.875 29.25 21.625 
L 40.328125 51.859375 
L 49.125 51.859375 
L 29.390625 -0.875 
Q 26.21875 -9.421875 24.46875 -12.640625 
Q 22.125 -17 19.09375 -19.015625 
Q 16.0625 -21.046875 11.859375 -21.046875 
Q 9.328125 -21.046875 6.203125 -19.96875 
z
" id="ArialMT-121"/>
     </defs>
     <g style="fill:#657b83;" transform="translate(15.935937 168.287813)rotate(-90)scale(0.15 -0.15)">
      <use xlink:href="#ArialMT-68"/>
      <use x="72.216797" xlink:href="#ArialMT-101"/>
      <use x="127.832031" xlink:href="#ArialMT-110"/>
      <use x="183.447266" xlink:href="#ArialMT-115"/>
      <use x="233.447266" xlink:href="#ArialMT-105"/>
      <use x="255.664062" xlink:href="#ArialMT-116"/>
      <use x="283.447266" xlink:href="#ArialMT-121"/>
     </g>
    </g>
   </g>
   <g id="PolyCollection_1">
    <defs>
     <path d="M 118.166211 -36.001125 
L 118.166211 -36 
L 120.231793 -36 
L 122.297375 -36 
L 124.362956 -36 
L 126.428538 -36 
L 128.49412 -36 
L 130.559702 -36 
L 132.625283 -36 
L 134.690865 -36 
L 136.756447 -36 
L 138.822028 -36 
L 140.88761 -36 
L 142.953192 -36 
L 145.018773 -36 
L 147.084355 -36 
L 149.149937 -36 
L 151.215518 -36 
L 153.2811 -36 
L 155.346682 -36 
L 157.412263 -36 
L 159.477845 -36 
L 161.543427 -36 
L 163.609009 -36 
L 165.67459 -36 
L 167.740172 -36 
L 169.805754 -36 
L 171.871335 -36 
L 173.936917 -36 
L 176.002499 -36 
L 178.06808 -36 
L 180.133662 -36 
L 182.199244 -36 
L 184.264825 -36 
L 186.330407 -36 
L 188.395989 -36 
L 190.46157 -36 
L 192.527152 -36 
L 194.592734 -36 
L 196.658316 -36 
L 198.723897 -36 
L 200.789479 -36 
L 202.855061 -36 
L 204.920642 -36 
L 206.986224 -36 
L 209.051806 -36 
L 211.117387 -36 
L 213.182969 -36 
L 215.248551 -36 
L 217.314132 -36 
L 219.379714 -36 
L 221.445296 -36 
L 223.510878 -36 
L 225.576459 -36 
L 227.642041 -36 
L 229.707623 -36 
L 231.773204 -36 
L 233.838786 -36 
L 235.904368 -36 
L 237.969949 -36 
L 240.035531 -36 
L 242.101113 -36 
L 244.166694 -36 
L 246.232276 -36 
L 248.297858 -36 
L 250.363439 -36 
L 252.429021 -36 
L 254.494603 -36 
L 256.560185 -36 
L 258.625766 -36 
L 260.691348 -36 
L 262.75693 -36 
L 264.822511 -36 
L 266.888093 -36 
L 268.953675 -36 
L 271.019256 -36 
L 273.084838 -36 
L 275.15042 -36 
L 277.216001 -36 
L 279.281583 -36 
L 281.347165 -36 
L 283.412747 -36 
L 285.478328 -36 
L 287.54391 -36 
L 289.609492 -36 
L 291.675073 -36 
L 293.740655 -36 
L 295.806237 -36 
L 297.871818 -36 
L 299.9374 -36 
L 302.002982 -36 
L 304.068563 -36 
L 306.134145 -36 
L 308.199727 -36 
L 310.265308 -36 
L 312.33089 -36 
L 314.396472 -36 
L 316.462054 -36 
L 318.527635 -36 
L 320.593217 -36 
L 322.658799 -36 
L 322.658799 -36.001172 
L 322.658799 -36.001172 
L 320.593217 -36.005817 
L 318.527635 -36.021241 
L 316.462054 -36.058388 
L 314.396472 -36.125792 
L 312.33089 -36.226349 
L 310.265308 -36.368384 
L 308.199727 -36.576561 
L 306.134145 -36.874714 
L 304.068563 -37.248152 
L 302.002982 -37.633088 
L 299.9374 -37.959133 
L 297.871818 -38.207656 
L 295.806237 -38.431997 
L 293.740655 -38.729537 
L 291.675073 -39.192926 
L 289.609492 -39.855816 
L 287.54391 -40.681885 
L 285.478328 -41.647245 
L 283.412747 -42.782957 
L 281.347165 -44.08905 
L 279.281583 -45.498271 
L 277.216001 -46.956649 
L 275.15042 -48.464615 
L 273.084838 -50.017856 
L 271.019256 -51.591816 
L 268.953675 -53.317788 
L 266.888093 -55.641431 
L 264.822511 -59.052555 
L 262.75693 -63.510438 
L 260.691348 -68.291754 
L 258.625766 -72.573349 
L 256.560185 -76.045606 
L 254.494603 -78.888794 
L 252.429021 -81.457357 
L 250.363439 -84.152841 
L 248.297858 -87.289855 
L 246.232276 -90.921428 
L 244.166694 -94.971846 
L 242.101113 -99.579868 
L 240.035531 -105.412532 
L 237.969949 -113.565913 
L 235.904368 -124.679081 
L 233.838786 -138.429261 
L 231.773204 -154.41144 
L 229.707623 -172.73606 
L 227.642041 -193.037442 
L 225.576459 -213.373674 
L 223.510878 -230.441851 
L 221.445296 -240.882248 
L 219.379714 -243.085714 
L 217.314132 -238.180656 
L 215.248551 -228.779729 
L 213.182969 -216.974656 
L 211.117387 -204.060458 
L 209.051806 -191.246491 
L 206.986224 -179.431171 
L 204.920642 -168.505539 
L 202.855061 -157.68568 
L 200.789479 -146.595418 
L 198.723897 -135.620498 
L 196.658316 -125.35188 
L 194.592734 -116.128577 
L 192.527152 -107.958832 
L 190.46157 -100.470372 
L 188.395989 -93.095259 
L 186.330407 -85.606513 
L 184.264825 -78.390719 
L 182.199244 -72.076386 
L 180.133662 -66.932745 
L 178.06808 -62.683187 
L 176.002499 -58.855722 
L 173.936917 -55.217363 
L 171.871335 -51.840698 
L 169.805754 -48.832173 
L 167.740172 -46.170515 
L 165.67459 -43.822395 
L 163.609009 -41.850427 
L 161.543427 -40.376361 
L 159.477845 -39.455989 
L 157.412263 -38.96672 
L 155.346682 -38.673514 
L 153.2811 -38.404886 
L 151.215518 -38.101105 
L 149.149937 -37.748512 
L 147.084355 -37.367814 
L 145.018773 -37.0385 
L 142.953192 -36.83398 
L 140.88761 -36.727751 
L 138.822028 -36.627222 
L 136.756447 -36.485323 
L 134.690865 -36.332163 
L 132.625283 -36.218181 
L 130.559702 -36.157216 
L 128.49412 -36.122167 
L 126.428538 -36.085272 
L 124.362956 -36.04647 
L 122.297375 -36.018653 
L 120.231793 -36.005407 
L 118.166211 -36.001125 
z
" id="ma13e073dec" style="stroke:#ffffff;stroke-opacity:0.25;"/>
    </defs>
    <g clip-path="url(#p60dbf90fef)">
     <use style="fill:#268bd2;fill-opacity:0.25;stroke:#ffffff;stroke-opacity:0.25;" x="0" xlink:href="#ma13e073dec" y="288"/>
    </g>
   </g>
   <g id="PolyCollection_2">
    <defs>
     <path d="M 69.218182 -36.00078 
L 69.218182 -36 
L 72.292562 -36 
L 75.366942 -36 
L 78.441322 -36 
L 81.515702 -36 
L 84.590083 -36 
L 87.664463 -36 
L 90.738843 -36 
L 93.813223 -36 
L 96.887603 -36 
L 99.961983 -36 
L 103.036364 -36 
L 106.110744 -36 
L 109.185124 -36 
L 112.259504 -36 
L 115.333884 -36 
L 118.408264 -36 
L 121.482645 -36 
L 124.557025 -36 
L 127.631405 -36 
L 130.705785 -36 
L 133.780165 -36 
L 136.854545 -36 
L 139.928926 -36 
L 143.003306 -36 
L 146.077686 -36 
L 149.152066 -36 
L 152.226446 -36 
L 155.300826 -36 
L 158.375207 -36 
L 161.449587 -36 
L 164.523967 -36 
L 167.598347 -36 
L 170.672727 -36 
L 173.747107 -36 
L 176.821488 -36 
L 179.895868 -36 
L 182.970248 -36 
L 186.044628 -36 
L 189.119008 -36 
L 192.193388 -36 
L 195.267769 -36 
L 198.342149 -36 
L 201.416529 -36 
L 204.490909 -36 
L 207.565289 -36 
L 210.639669 -36 
L 213.71405 -36 
L 216.78843 -36 
L 219.86281 -36 
L 222.93719 -36 
L 226.01157 -36 
L 229.08595 -36 
L 232.160331 -36 
L 235.234711 -36 
L 238.309091 -36 
L 241.383471 -36 
L 244.457851 -36 
L 247.532231 -36 
L 250.606612 -36 
L 253.680992 -36 
L 256.755372 -36 
L 259.829752 -36 
L 262.904132 -36 
L 265.978512 -36 
L 269.052893 -36 
L 272.127273 -36 
L 275.201653 -36 
L 278.276033 -36 
L 281.350413 -36 
L 284.424793 -36 
L 287.499174 -36 
L 290.573554 -36 
L 293.647934 -36 
L 296.722314 -36 
L 299.796694 -36 
L 302.871074 -36 
L 305.945455 -36 
L 309.019835 -36 
L 312.094215 -36 
L 315.168595 -36 
L 318.242975 -36 
L 321.317355 -36 
L 324.391736 -36 
L 327.466116 -36 
L 330.540496 -36 
L 333.614876 -36 
L 336.689256 -36 
L 339.763636 -36 
L 342.838017 -36 
L 345.912397 -36 
L 348.986777 -36 
L 352.061157 -36 
L 355.135537 -36 
L 358.209917 -36 
L 361.284298 -36 
L 364.358678 -36 
L 367.433058 -36 
L 370.507438 -36 
L 373.581818 -36 
L 373.581818 -36.00078 
L 373.581818 -36.00078 
L 370.507438 -36.003919 
L 367.433058 -36.013789 
L 364.358678 -36.034052 
L 361.284298 -36.05966 
L 358.209917 -36.07765 
L 355.135537 -36.08874 
L 352.061157 -36.121866 
L 348.986777 -36.20751 
L 345.912397 -36.336549 
L 342.838017 -36.463741 
L 339.763636 -36.561249 
L 336.689256 -36.649693 
L 333.614876 -36.756896 
L 330.540496 -36.884055 
L 327.466116 -37.048079 
L 324.391736 -37.307322 
L 321.317355 -37.723846 
L 318.242975 -38.344819 
L 315.168595 -39.210561 
L 312.094215 -40.345009 
L 309.019835 -41.706645 
L 305.945455 -43.135108 
L 302.871074 -44.46675 
L 299.796694 -45.7573 
L 296.722314 -47.224721 
L 293.647934 -48.961096 
L 290.573554 -50.865896 
L 287.499174 -52.831341 
L 284.424793 -54.83586 
L 281.350413 -56.842576 
L 278.276033 -58.716597 
L 275.201653 -60.342695 
L 272.127273 -61.877353 
L 269.052893 -63.778543 
L 265.978512 -66.423336 
L 262.904132 -69.772219 
L 259.829752 -73.410434 
L 256.755372 -76.76679 
L 253.680992 -79.515251 
L 250.606612 -81.945505 
L 247.532231 -84.658465 
L 244.457851 -88.068441 
L 241.383471 -92.851416 
L 238.309091 -100.514467 
L 235.234711 -112.511495 
L 232.160331 -128.772357 
L 229.08595 -147.312442 
L 226.01157 -164.813692 
L 222.93719 -177.739406 
L 219.86281 -183.934726 
L 216.78843 -183.655826 
L 213.71405 -178.847503 
L 210.639669 -171.468826 
L 207.565289 -162.649134 
L 204.490909 -152.984249 
L 201.416529 -142.964742 
L 198.342149 -133.042084 
L 195.267769 -123.584769 
L 192.193388 -114.8016 
L 189.119008 -106.7087 
L 186.044628 -99.209208 
L 182.970248 -92.098332 
L 179.895868 -85.119703 
L 176.821488 -78.266294 
L 173.747107 -71.927296 
L 170.672727 -66.480205 
L 167.598347 -61.808989 
L 164.523967 -57.49778 
L 161.449587 -53.42285 
L 158.375207 -49.836865 
L 155.300826 -46.976616 
L 152.226446 -44.93777 
L 149.152066 -43.765901 
L 146.077686 -43.3198 
L 143.003306 -43.163652 
L 139.928926 -42.832221 
L 136.854545 -42.169051 
L 133.780165 -41.326553 
L 130.705785 -40.503174 
L 127.631405 -39.751723 
L 124.557025 -39.010032 
L 121.482645 -38.246022 
L 118.408264 -37.530124 
L 115.333884 -36.97499 
L 112.259504 -36.63051 
L 109.185124 -36.443349 
L 106.110744 -36.319831 
L 103.036364 -36.210053 
L 99.961983 -36.116766 
L 96.887603 -36.05569 
L 93.813223 -36.032161 
L 90.738843 -36.039454 
L 87.664463 -36.059987 
L 84.590083 -36.070289 
L 81.515702 -36.058291 
L 78.441322 -36.033869 
L 75.366942 -36.013771 
L 72.292562 -36.003918 
L 69.218182 -36.00078 
z
" id="m135b26e65c" style="stroke:#ffffff;stroke-opacity:0.25;"/>
    </defs>
    <g clip-path="url(#p60dbf90fef)">
     <use style="fill:#2aa198;fill-opacity:0.25;stroke:#ffffff;stroke-opacity:0.25;" x="0" xlink:href="#m135b26e65c" y="288"/>
    </g>
   </g>
   <g id="line2d_18">
    <path clip-path="url(#p60dbf90fef)" d="M 118.166211 251.998875 
L 120.231793 251.994593 
L 122.297375 251.981347 
L 124.362956 251.95353 
L 126.428538 251.914728 
L 128.49412 251.877833 
L 130.559702 251.842784 
L 132.625283 251.781819 
L 134.690865 251.667837 
L 136.756447 251.514677 
L 138.822028 251.372778 
L 140.88761 251.272249 
L 142.953192 251.16602 
L 145.018773 250.9615 
L 147.084355 250.632186 
L 149.149937 250.251488 
L 151.215518 249.898895 
L 153.2811 249.595114 
L 155.346682 249.326486 
L 157.412263 249.03328 
L 159.477845 248.544011 
L 161.543427 247.623639 
L 163.609009 246.149573 
L 165.67459 244.177605 
L 167.740172 241.829485 
L 169.805754 239.167827 
L 171.871335 236.159302 
L 173.936917 232.782637 
L 176.002499 229.144278 
L 178.06808 225.316813 
L 180.133662 221.067255 
L 182.199244 215.923614 
L 184.264825 209.609281 
L 186.330407 202.393487 
L 188.395989 194.904741 
L 190.46157 187.529628 
L 192.527152 180.041168 
L 194.592734 171.871423 
L 196.658316 162.64812 
L 198.723897 152.379502 
L 200.789479 141.404582 
L 202.855061 130.31432 
L 204.920642 119.494461 
L 206.986224 108.568829 
L 209.051806 96.753509 
L 211.117387 83.939542 
L 213.182969 71.025344 
L 215.248551 59.220271 
L 217.314132 49.819344 
L 219.379714 44.914286 
L 221.445296 47.117752 
L 223.510878 57.558149 
L 225.576459 74.626326 
L 227.642041 94.962558 
L 229.707623 115.26394 
L 231.773204 133.58856 
L 233.838786 149.570739 
L 235.904368 163.320919 
L 237.969949 174.434087 
L 240.035531 182.587468 
L 242.101113 188.420132 
L 244.166694 193.028154 
L 246.232276 197.078572 
L 248.297858 200.710145 
L 250.363439 203.847159 
L 252.429021 206.542643 
L 254.494603 209.111206 
L 256.560185 211.954394 
L 258.625766 215.426651 
L 260.691348 219.708246 
L 262.75693 224.489562 
L 264.822511 228.947445 
L 266.888093 232.358569 
L 268.953675 234.682212 
L 271.019256 236.408184 
L 273.084838 237.982144 
L 275.15042 239.535385 
L 277.216001 241.043351 
L 279.281583 242.501729 
L 281.347165 243.91095 
L 283.412747 245.217043 
L 285.478328 246.352755 
L 287.54391 247.318115 
L 289.609492 248.144184 
L 291.675073 248.807074 
L 293.740655 249.270463 
L 295.806237 249.568003 
L 297.871818 249.792344 
L 299.9374 250.040867 
L 302.002982 250.366912 
L 304.068563 250.751848 
L 306.134145 251.125286 
L 308.199727 251.423439 
L 310.265308 251.631616 
L 312.33089 251.773651 
L 314.396472 251.874208 
L 316.462054 251.941612 
L 318.527635 251.978759 
L 320.593217 251.994183 
L 322.658799 251.998828 
" style="fill:none;stroke:#268bd2;stroke-width:2;"/>
   </g>
   <g id="line2d_19">
    <path clip-path="url(#p60dbf90fef)" d="M 69.218182 251.99922 
L 72.292562 251.996082 
L 75.366942 251.986229 
L 78.441322 251.966131 
L 81.515702 251.941709 
L 84.590083 251.929711 
L 87.664463 251.940013 
L 90.738843 251.960546 
L 93.813223 251.967839 
L 96.887603 251.94431 
L 99.961983 251.883234 
L 103.036364 251.789947 
L 106.110744 251.680169 
L 109.185124 251.556651 
L 112.259504 251.36949 
L 115.333884 251.02501 
L 118.408264 250.469876 
L 121.482645 249.753978 
L 124.557025 248.989968 
L 127.631405 248.248277 
L 130.705785 247.496826 
L 133.780165 246.673447 
L 136.854545 245.830949 
L 139.928926 245.167779 
L 143.003306 244.836348 
L 146.077686 244.6802 
L 149.152066 244.234099 
L 152.226446 243.06223 
L 155.300826 241.023384 
L 158.375207 238.163135 
L 161.449587 234.57715 
L 164.523967 230.50222 
L 167.598347 226.191011 
L 170.672727 221.519795 
L 173.747107 216.072704 
L 176.821488 209.733706 
L 179.895868 202.880297 
L 182.970248 195.901668 
L 186.044628 188.790792 
L 189.119008 181.2913 
L 192.193388 173.1984 
L 195.267769 164.415231 
L 198.342149 154.957916 
L 201.416529 145.035258 
L 204.490909 135.015751 
L 207.565289 125.350866 
L 210.639669 116.531174 
L 213.71405 109.152497 
L 216.78843 104.344174 
L 219.86281 104.065274 
L 222.93719 110.260594 
L 226.01157 123.186308 
L 229.08595 140.687558 
L 232.160331 159.227643 
L 235.234711 175.488505 
L 238.309091 187.485533 
L 241.383471 195.148584 
L 244.457851 199.931559 
L 247.532231 203.341535 
L 250.606612 206.054495 
L 253.680992 208.484749 
L 256.755372 211.23321 
L 259.829752 214.589566 
L 262.904132 218.227781 
L 265.978512 221.576664 
L 269.052893 224.221457 
L 272.127273 226.122647 
L 275.201653 227.657305 
L 278.276033 229.283403 
L 281.350413 231.157424 
L 284.424793 233.16414 
L 287.499174 235.168659 
L 290.573554 237.134104 
L 293.647934 239.038904 
L 296.722314 240.775279 
L 299.796694 242.2427 
L 302.871074 243.53325 
L 305.945455 244.864892 
L 309.019835 246.293355 
L 312.094215 247.654991 
L 315.168595 248.789439 
L 318.242975 249.655181 
L 321.317355 250.276154 
L 324.391736 250.692678 
L 327.466116 250.951921 
L 330.540496 251.115945 
L 333.614876 251.243104 
L 336.689256 251.350307 
L 339.763636 251.438751 
L 342.838017 251.536259 
L 345.912397 251.663451 
L 348.986777 251.79249 
L 352.061157 251.878134 
L 355.135537 251.91126 
L 358.209917 251.92235 
L 361.284298 251.94034 
L 364.358678 251.965948 
L 367.433058 251.986211 
L 370.507438 251.996081 
L 373.581818 251.99922 
" style="fill:none;stroke:#2aa198;stroke-width:2;"/>
   </g>
   <g id="patch_3">
    <path d="M 54 252 
L 54 34.56 
" style="fill:none;stroke:#eee8d5;stroke-linecap:square;stroke-linejoin:miter;stroke-width:1.25;"/>
   </g>
   <g id="patch_4">
    <path d="M 388.8 252 
L 388.8 34.56 
" style="fill:none;stroke:#eee8d5;stroke-linecap:square;stroke-linejoin:miter;stroke-width:1.25;"/>
   </g>
   <g id="patch_5">
    <path d="M 54 252 
L 388.8 252 
" style="fill:none;stroke:#eee8d5;stroke-linecap:square;stroke-linejoin:miter;stroke-width:1.25;"/>
   </g>
   <g id="patch_6">
    <path d="M 54 34.56 
L 388.8 34.56 
" style="fill:none;stroke:#eee8d5;stroke-linecap:square;stroke-linejoin:miter;stroke-width:1.25;"/>
   </g>
   <g id="text_20">
    <!-- $\Delta U = 1.0\, \mathrm{k_BT}$ -->
    <defs>
     <path d="M 34.1875 63.1875 
L 14.15625 8.203125 
L 54.25 8.203125 
z
M 0.78125 0 
L 28.609375 72.90625 
L 39.796875 72.90625 
L 67.578125 0 
z
" id="DejaVuSans-916"/>
     <path d="M 15.484375 72.90625 
L 25.390625 72.90625 
L 16.796875 28.609375 
Q 16.265625 25.640625 16.046875 23.703125 
Q 15.828125 21.78125 15.828125 20.3125 
Q 15.828125 13.578125 19.578125 10.078125 
Q 23.34375 6.59375 30.609375 6.59375 
Q 40.046875 6.59375 45.28125 11.765625 
Q 50.53125 16.9375 52.78125 28.609375 
L 61.375 72.90625 
L 71.296875 72.90625 
L 62.5 27.390625 
Q 59.625 12.640625 51.5625 5.609375 
Q 43.5 -1.421875 29.5 -1.421875 
Q 18.5625 -1.421875 12.1875 4.078125 
Q 5.8125 9.578125 5.8125 19 
Q 5.8125 20.703125 6.046875 22.828125 
Q 6.296875 24.953125 6.78125 27.390625 
z
" id="DejaVuSans-Oblique-85"/>
     <path d="M 10.59375 45.40625 
L 73.1875 45.40625 
L 73.1875 37.203125 
L 10.59375 37.203125 
z
M 10.59375 25.484375 
L 73.1875 25.484375 
L 73.1875 17.1875 
L 10.59375 17.1875 
z
" id="DejaVuSans-61"/>
     <path d="M 12.40625 8.296875 
L 28.515625 8.296875 
L 28.515625 63.921875 
L 10.984375 60.40625 
L 10.984375 69.390625 
L 28.421875 72.90625 
L 38.28125 72.90625 
L 38.28125 8.296875 
L 54.390625 8.296875 
L 54.390625 0 
L 12.40625 0 
z
" id="DejaVuSans-49"/>
     <path d="M 10.6875 12.40625 
L 21 12.40625 
L 21 0 
L 10.6875 0 
z
" id="DejaVuSans-46"/>
     <path d="M 31.78125 66.40625 
Q 24.171875 66.40625 20.328125 58.90625 
Q 16.5 51.421875 16.5 36.375 
Q 16.5 21.390625 20.328125 13.890625 
Q 24.171875 6.390625 31.78125 6.390625 
Q 39.453125 6.390625 43.28125 13.890625 
Q 47.125 21.390625 47.125 36.375 
Q 47.125 51.421875 43.28125 58.90625 
Q 39.453125 66.40625 31.78125 66.40625 
z
M 31.78125 74.21875 
Q 44.046875 74.21875 50.515625 64.515625 
Q 56.984375 54.828125 56.984375 36.375 
Q 56.984375 17.96875 50.515625 8.265625 
Q 44.046875 -1.421875 31.78125 -1.421875 
Q 19.53125 -1.421875 13.0625 8.265625 
Q 6.59375 17.96875 6.59375 36.375 
Q 6.59375 54.828125 13.0625 64.515625 
Q 19.53125 74.21875 31.78125 74.21875 
z
" id="DejaVuSans-48"/>
     <path d="M 9.078125 75.984375 
L 18.109375 75.984375 
L 18.109375 31.109375 
L 44.921875 54.6875 
L 56.390625 54.6875 
L 27.390625 29.109375 
L 57.625 0 
L 45.90625 0 
L 18.109375 26.703125 
L 18.109375 0 
L 9.078125 0 
z
" id="DejaVuSans-107"/>
     <path d="M 19.671875 34.8125 
L 19.671875 8.109375 
L 35.5 8.109375 
Q 43.453125 8.109375 47.28125 11.40625 
Q 51.125 14.703125 51.125 21.484375 
Q 51.125 28.328125 47.28125 31.5625 
Q 43.453125 34.8125 35.5 34.8125 
z
M 19.671875 64.796875 
L 19.671875 42.828125 
L 34.28125 42.828125 
Q 41.5 42.828125 45.03125 45.53125 
Q 48.578125 48.25 48.578125 53.8125 
Q 48.578125 59.328125 45.03125 62.0625 
Q 41.5 64.796875 34.28125 64.796875 
z
M 9.8125 72.90625 
L 35.015625 72.90625 
Q 46.296875 72.90625 52.390625 68.21875 
Q 58.5 63.53125 58.5 54.890625 
Q 58.5 48.1875 55.375 44.234375 
Q 52.25 40.28125 46.1875 39.3125 
Q 53.46875 37.75 57.5 32.78125 
Q 61.53125 27.828125 61.53125 20.40625 
Q 61.53125 10.640625 54.890625 5.3125 
Q 48.25 0 35.984375 0 
L 9.8125 0 
z
" id="DejaVuSans-66"/>
     <path d="M -0.296875 72.90625 
L 61.375 72.90625 
L 61.375 64.59375 
L 35.5 64.59375 
L 35.5 0 
L 25.59375 0 
L 25.59375 64.59375 
L -0.296875 64.59375 
z
" id="DejaVuSans-84"/>
    </defs>
    <g style="fill:#262626;" transform="translate(172.52 28.56)scale(0.16 -0.16)">
     <use transform="translate(0 0.015625)" xlink:href="#DejaVuSans-916"/>
     <use transform="translate(68.408203 0.015625)" xlink:href="#DejaVuSans-Oblique-85"/>
     <use transform="translate(161.083984 0.015625)" xlink:href="#DejaVuSans-61"/>
     <use transform="translate(264.355469 0.015625)" xlink:href="#DejaVuSans-49"/>
     <use transform="translate(327.978516 0.015625)" xlink:href="#DejaVuSans-46"/>
     <use transform="translate(359.765625 0.015625)" xlink:href="#DejaVuSans-48"/>
     <use transform="translate(439.624348 0.015625)" xlink:href="#DejaVuSans-107"/>
     <use transform="translate(498.491536 -16.390625)scale(0.7)" xlink:href="#DejaVuSans-66"/>
     <use transform="translate(549.248372 0.015625)" xlink:href="#DejaVuSans-84"/>
    </g>
   </g>
   <g id="legend_1">
    <g id="patch_7">
     <path d="M 253.8 94.26 
L 378.3 94.26 
Q 381.3 94.26 381.3 91.26 
L 381.3 45.06 
Q 381.3 42.06 378.3 42.06 
L 253.8 42.06 
Q 250.8 42.06 250.8 45.06 
L 250.8 91.26 
Q 250.8 94.26 253.8 94.26 
z
" style="fill:#eee8d5;opacity:0.8;stroke:#cccccc;stroke-linejoin:miter;"/>
    </g>
    <g id="line2d_20">
     <path d="M 256.8 56.17875 
L 286.8 56.17875 
" style="fill:none;stroke:#268bd2;stroke-width:2;"/>
    </g>
    <g id="line2d_21"/>
    <g id="text_21">
     <!-- $\hat t$ = 0.9998s -->
     <defs>
      <path d="M -28.609375 79.984375 
L -21.390625 79.984375 
L -9.421875 61.625 
L -16.21875 61.625 
L -25 73.578125 
L -33.796875 61.625 
L -40.578125 61.625 
z
M -25 56 
z
" id="DejaVuSans-770"/>
      <path d="M 42.28125 54.6875 
L 40.921875 47.703125 
L 23 47.703125 
L 17.1875 18.015625 
Q 16.890625 16.359375 16.75 15.234375 
Q 16.609375 14.109375 16.609375 13.484375 
Q 16.609375 10.359375 18.484375 8.9375 
Q 20.359375 7.515625 24.515625 7.515625 
L 33.59375 7.515625 
L 32.078125 0 
L 23.484375 0 
Q 15.484375 0 11.546875 3.125 
Q 7.625 6.25 7.625 12.59375 
Q 7.625 13.71875 7.765625 15.0625 
Q 7.90625 16.40625 8.203125 18.015625 
L 14.015625 47.703125 
L 6.390625 47.703125 
L 7.8125 54.6875 
L 15.28125 54.6875 
L 18.3125 70.21875 
L 27.296875 70.21875 
L 24.3125 54.6875 
z
" id="DejaVuSans-Oblique-116"/>
      <path id="ArialMT-32"/>
      <path d="M 52.828125 42.09375 
L 5.5625 42.09375 
L 5.5625 50.296875 
L 52.828125 50.296875 
z
M 52.828125 20.359375 
L 5.5625 20.359375 
L 5.5625 28.5625 
L 52.828125 28.5625 
z
" id="ArialMT-61"/>
      <path d="M 5.46875 16.546875 
L 13.921875 17.328125 
Q 14.984375 11.375 18.015625 8.6875 
Q 21.046875 6 25.78125 6 
Q 29.828125 6 32.875 7.859375 
Q 35.9375 9.71875 37.890625 12.8125 
Q 39.84375 15.921875 41.15625 21.1875 
Q 42.484375 26.46875 42.484375 31.9375 
Q 42.484375 32.515625 42.4375 33.6875 
Q 39.796875 29.5 35.234375 26.875 
Q 30.671875 24.265625 25.34375 24.265625 
Q 16.453125 24.265625 10.296875 30.703125 
Q 4.15625 37.15625 4.15625 47.703125 
Q 4.15625 58.59375 10.578125 65.234375 
Q 17 71.875 26.65625 71.875 
Q 33.640625 71.875 39.421875 68.109375 
Q 45.21875 64.359375 48.21875 57.390625 
Q 51.21875 50.4375 51.21875 37.25 
Q 51.21875 23.53125 48.234375 15.40625 
Q 45.265625 7.28125 39.375 3.03125 
Q 33.5 -1.21875 25.59375 -1.21875 
Q 17.1875 -1.21875 11.859375 3.4375 
Q 6.546875 8.109375 5.46875 16.546875 
z
M 41.453125 48.140625 
Q 41.453125 55.71875 37.421875 60.15625 
Q 33.40625 64.59375 27.734375 64.59375 
Q 21.875 64.59375 17.53125 59.8125 
Q 13.1875 55.03125 13.1875 47.40625 
Q 13.1875 40.578125 17.3125 36.296875 
Q 21.4375 32.03125 27.484375 32.03125 
Q 33.59375 32.03125 37.515625 36.296875 
Q 41.453125 40.578125 41.453125 48.140625 
z
" id="ArialMT-57"/>
      <path d="M 17.671875 38.8125 
Q 12.203125 40.828125 9.5625 44.53125 
Q 6.9375 48.25 6.9375 53.421875 
Q 6.9375 61.234375 12.546875 66.546875 
Q 18.171875 71.875 27.484375 71.875 
Q 36.859375 71.875 42.578125 66.421875 
Q 48.296875 60.984375 48.296875 53.171875 
Q 48.296875 48.1875 45.671875 44.5 
Q 43.0625 40.828125 37.75 38.8125 
Q 44.34375 36.671875 47.78125 31.875 
Q 51.21875 27.09375 51.21875 20.453125 
Q 51.21875 11.28125 44.71875 5.03125 
Q 38.234375 -1.21875 27.640625 -1.21875 
Q 17.046875 -1.21875 10.546875 5.046875 
Q 4.046875 11.328125 4.046875 20.703125 
Q 4.046875 27.6875 7.59375 32.390625 
Q 11.140625 37.109375 17.671875 38.8125 
z
M 15.921875 53.71875 
Q 15.921875 48.640625 19.1875 45.40625 
Q 22.46875 42.1875 27.6875 42.1875 
Q 32.765625 42.1875 36.015625 45.375 
Q 39.265625 48.578125 39.265625 53.21875 
Q 39.265625 58.0625 35.90625 61.359375 
Q 32.5625 64.65625 27.59375 64.65625 
Q 22.5625 64.65625 19.234375 61.421875 
Q 15.921875 58.203125 15.921875 53.71875 
z
M 13.09375 20.65625 
Q 13.09375 16.890625 14.875 13.375 
Q 16.65625 9.859375 20.171875 7.921875 
Q 23.6875 6 27.734375 6 
Q 34.03125 6 38.125 10.046875 
Q 42.234375 14.109375 42.234375 20.359375 
Q 42.234375 26.703125 38.015625 30.859375 
Q 33.796875 35.015625 27.4375 35.015625 
Q 21.234375 35.015625 17.15625 30.90625 
Q 13.09375 26.8125 13.09375 20.65625 
z
" id="ArialMT-56"/>
     </defs>
     <g style="fill:#262626;" transform="translate(298.8 61.42875)scale(0.15 -0.15)">
      <use transform="translate(47.546875 27.015625)" xlink:href="#DejaVuSans-770"/>
      <use transform="translate(0 0.296875)" xlink:href="#DejaVuSans-Oblique-116"/>
      <use transform="translate(39.208984 0.296875)" xlink:href="#ArialMT-32"/>
      <use transform="translate(66.992188 0.296875)" xlink:href="#ArialMT-61"/>
      <use transform="translate(125.390625 0.296875)" xlink:href="#ArialMT-32"/>
      <use transform="translate(153.173828 0.296875)" xlink:href="#ArialMT-48"/>
      <use transform="translate(208.789062 0.296875)" xlink:href="#ArialMT-46"/>
      <use transform="translate(236.572266 0.296875)" xlink:href="#ArialMT-57"/>
      <use transform="translate(292.1875 0.296875)" xlink:href="#ArialMT-57"/>
      <use transform="translate(347.802734 0.296875)" xlink:href="#ArialMT-57"/>
      <use transform="translate(403.417969 0.296875)" xlink:href="#ArialMT-56"/>
      <use transform="translate(459.033203 0.296875)" xlink:href="#ArialMT-115"/>
     </g>
    </g>
    <g id="line2d_22">
     <path d="M 256.8 80.02875 
L 286.8 80.02875 
" style="fill:none;stroke:#2aa198;stroke-width:2;"/>
    </g>
    <g id="line2d_23"/>
    <g id="text_22">
     <!-- $\hat t$ = 1.9999s -->
     <g style="fill:#262626;" transform="translate(298.8 85.27875)scale(0.15 -0.15)">
      <use transform="translate(47.546875 27.015625)" xlink:href="#DejaVuSans-770"/>
      <use transform="translate(0 0.296875)" xlink:href="#DejaVuSans-Oblique-116"/>
      <use transform="translate(39.208984 0.296875)" xlink:href="#ArialMT-32"/>
      <use transform="translate(66.992188 0.296875)" xlink:href="#ArialMT-61"/>
      <use transform="translate(125.390625 0.296875)" xlink:href="#ArialMT-32"/>
      <use transform="translate(153.173828 0.296875)" xlink:href="#ArialMT-49"/>
      <use transform="translate(208.789062 0.296875)" xlink:href="#ArialMT-46"/>
      <use transform="translate(236.572266 0.296875)" xlink:href="#ArialMT-57"/>
      <use transform="translate(292.1875 0.296875)" xlink:href="#ArialMT-57"/>
      <use transform="translate(347.802734 0.296875)" xlink:href="#ArialMT-57"/>
      <use transform="translate(403.417969 0.296875)" xlink:href="#ArialMT-57"/>
      <use transform="translate(459.033203 0.296875)" xlink:href="#ArialMT-115"/>
     </g>
    </g>
   </g>
  </g>
 </g>
 <defs>
  <clipPath id="p60dbf90fef">
   <rect height="217.44" width="334.8" x="54" y="34.56"/>
  </clipPath>
 </defs>
</svg>
