<?xml version="1.0" encoding="utf-8" standalone="no"?>
<!DOCTYPE svg PUBLIC "-//W3C//DTD SVG 1.1//EN"
  "http://www.w3.org/Graphics/SVG/1.1/DTD/svg11.dtd">
<!-- Created with matplotlib (https://matplotlib.org/) -->
<svg height="288pt" version="1.1" viewBox="0 0 432 288" width="432pt" xmlns="http://www.w3.org/2000/svg" xmlns:xlink="http://www.w3.org/1999/xlink">
 <defs>
  <style type="text/css">
*{stroke-linecap:butt;stroke-linejoin:round;}
  </style>
 </defs>
 <g id="figure_1">
  <g id="patch_1">
   <path d="M 0 288 
L 432 288 
L 432 0 
L 0 0 
z
" style="fill:#ffffff;"/>
  </g>
  <g id="axes_1">
   <g id="patch_2">
    <path d="M 54 252 
L 388.8 252 
L 388.8 34.56 
L 54 34.56 
z
" style="fill:#eee8d5;"/>
   </g>
   <g id="matplotlib.axis_1">
    <g id="xtick_1">
     <g id="line2d_1">
      <path clip-path="url(#p86b24d2cb2)" d="M 92.983983 252 
L 92.983983 34.56 
" style="fill:none;stroke:#fdf6e3;"/>
     </g>
     <g id="text_1">
      <!-- −1.5 -->
      <defs>
       <path d="M 52.828125 31.203125 
L 5.5625 31.203125 
L 5.5625 39.40625 
L 52.828125 39.40625 
z
" id="ArialMT-8722"/>
       <path d="M 37.25 0 
L 28.46875 0 
L 28.46875 56 
Q 25.296875 52.984375 20.140625 49.953125 
Q 14.984375 46.921875 10.890625 45.40625 
L 10.890625 53.90625 
Q 18.265625 57.375 23.78125 62.296875 
Q 29.296875 67.234375 31.59375 71.875 
L 37.25 71.875 
z
" id="ArialMT-49"/>
       <path d="M 9.078125 0 
L 9.078125 10.015625 
L 19.09375 10.015625 
L 19.09375 0 
z
" id="ArialMT-46"/>
       <path d="M 4.15625 18.75 
L 13.375 19.53125 
Q 14.40625 12.796875 18.140625 9.390625 
Q 21.875 6 27.15625 6 
Q 33.5 6 37.890625 10.78125 
Q 42.28125 15.578125 42.28125 23.484375 
Q 42.28125 31 38.0625 35.34375 
Q 33.84375 39.703125 27 39.703125 
Q 22.75 39.703125 19.328125 37.765625 
Q 15.921875 35.84375 13.96875 32.765625 
L 5.71875 33.84375 
L 12.640625 70.609375 
L 48.25 70.609375 
L 48.25 62.203125 
L 19.671875 62.203125 
L 15.828125 42.96875 
Q 22.265625 47.46875 29.34375 47.46875 
Q 38.71875 47.46875 45.15625 40.96875 
Q 51.609375 34.46875 51.609375 24.265625 
Q 51.609375 14.546875 45.953125 7.46875 
Q 39.0625 -1.21875 27.15625 -1.21875 
Q 17.390625 -1.21875 11.203125 4.25 
Q 5.03125 9.71875 4.15625 18.75 
z
" id="ArialMT-53"/>
      </defs>
      <g style="fill:#657b83;" transform="translate(82.126639 269.373594)scale(0.11 -0.11)">
       <use xlink:href="#ArialMT-8722"/>
       <use x="58.398438" xlink:href="#ArialMT-49"/>
       <use x="114.013672" xlink:href="#ArialMT-46"/>
       <use x="141.796875" xlink:href="#ArialMT-53"/>
      </g>
     </g>
    </g>
    <g id="xtick_2">
     <g id="line2d_2">
      <path clip-path="url(#p86b24d2cb2)" d="M 145.592557 252 
L 145.592557 34.56 
" style="fill:none;stroke:#fdf6e3;"/>
     </g>
     <g id="text_2">
      <!-- −1.0 -->
      <defs>
       <path d="M 4.15625 35.296875 
Q 4.15625 48 6.765625 55.734375 
Q 9.375 63.484375 14.515625 67.671875 
Q 19.671875 71.875 27.484375 71.875 
Q 33.25 71.875 37.59375 69.546875 
Q 41.9375 67.234375 44.765625 62.859375 
Q 47.609375 58.5 49.21875 52.21875 
Q 50.828125 45.953125 50.828125 35.296875 
Q 50.828125 22.703125 48.234375 14.96875 
Q 45.65625 7.234375 40.5 3 
Q 35.359375 -1.21875 27.484375 -1.21875 
Q 17.140625 -1.21875 11.234375 6.203125 
Q 4.15625 15.140625 4.15625 35.296875 
z
M 13.1875 35.296875 
Q 13.1875 17.671875 17.3125 11.828125 
Q 21.4375 6 27.484375 6 
Q 33.546875 6 37.671875 11.859375 
Q 41.796875 17.71875 41.796875 35.296875 
Q 41.796875 52.984375 37.671875 58.78125 
Q 33.546875 64.59375 27.390625 64.59375 
Q 21.34375 64.59375 17.71875 59.46875 
Q 13.1875 52.9375 13.1875 35.296875 
z
" id="ArialMT-48"/>
      </defs>
      <g style="fill:#657b83;" transform="translate(134.735213 269.373594)scale(0.11 -0.11)">
       <use xlink:href="#ArialMT-8722"/>
       <use x="58.398438" xlink:href="#ArialMT-49"/>
       <use x="114.013672" xlink:href="#ArialMT-46"/>
       <use x="141.796875" xlink:href="#ArialMT-48"/>
      </g>
     </g>
    </g>
    <g id="xtick_3">
     <g id="line2d_3">
      <path clip-path="url(#p86b24d2cb2)" d="M 198.20113 252 
L 198.20113 34.56 
" style="fill:none;stroke:#fdf6e3;"/>
     </g>
     <g id="text_3">
      <!-- −0.5 -->
      <g style="fill:#657b83;" transform="translate(187.343787 269.373594)scale(0.11 -0.11)">
       <use xlink:href="#ArialMT-8722"/>
       <use x="58.398438" xlink:href="#ArialMT-48"/>
       <use x="114.013672" xlink:href="#ArialMT-46"/>
       <use x="141.796875" xlink:href="#ArialMT-53"/>
      </g>
     </g>
    </g>
    <g id="xtick_4">
     <g id="line2d_4">
      <path clip-path="url(#p86b24d2cb2)" d="M 250.809704 252 
L 250.809704 34.56 
" style="fill:none;stroke:#fdf6e3;"/>
     </g>
     <g id="text_4">
      <!-- 0.0 -->
      <g style="fill:#657b83;" transform="translate(243.164704 269.373594)scale(0.11 -0.11)">
       <use xlink:href="#ArialMT-48"/>
       <use x="55.615234" xlink:href="#ArialMT-46"/>
       <use x="83.398438" xlink:href="#ArialMT-48"/>
      </g>
     </g>
    </g>
    <g id="xtick_5">
     <g id="line2d_5">
      <path clip-path="url(#p86b24d2cb2)" d="M 303.418278 252 
L 303.418278 34.56 
" style="fill:none;stroke:#fdf6e3;"/>
     </g>
     <g id="text_5">
      <!-- 0.5 -->
      <g style="fill:#657b83;" transform="translate(295.773278 269.373594)scale(0.11 -0.11)">
       <use xlink:href="#ArialMT-48"/>
       <use x="55.615234" xlink:href="#ArialMT-46"/>
       <use x="83.398438" xlink:href="#ArialMT-53"/>
      </g>
     </g>
    </g>
    <g id="xtick_6">
     <g id="line2d_6">
      <path clip-path="url(#p86b24d2cb2)" d="M 356.026851 252 
L 356.026851 34.56 
" style="fill:none;stroke:#fdf6e3;"/>
     </g>
     <g id="text_6">
      <!-- 1.0 -->
      <g style="fill:#657b83;" transform="translate(348.381851 269.373594)scale(0.11 -0.11)">
       <use xlink:href="#ArialMT-49"/>
       <use x="55.615234" xlink:href="#ArialMT-46"/>
       <use x="83.398438" xlink:href="#ArialMT-48"/>
      </g>
     </g>
    </g>
    <g id="text_7">
     <!-- $\frac{x}{L}$ -->
     <defs>
      <path d="M 60.015625 54.6875 
L 34.90625 27.875 
L 50.296875 0 
L 39.984375 0 
L 28.421875 21.6875 
L 8.296875 0 
L -2.59375 0 
L 24.3125 28.8125 
L 10.015625 54.6875 
L 20.3125 54.6875 
L 30.8125 34.90625 
L 49.125 54.6875 
z
" id="DejaVuSans-Oblique-120"/>
      <path d="M 16.796875 72.90625 
L 26.703125 72.90625 
L 14.203125 8.203125 
L 49.703125 8.203125 
L 48.09375 0 
L 2.6875 0 
z
" id="DejaVuSans-Oblique-76"/>
     </defs>
     <g style="fill:#657b83;" transform="translate(216 292.159844)scale(0.2 -0.2)">
      <use transform="translate(0 44.71875)scale(0.7)" xlink:href="#DejaVuSans-Oblique-120"/>
      <use transform="translate(1 -37.565625)scale(0.7)" xlink:href="#DejaVuSans-Oblique-76"/>
      <path d="M 0 19.71875 
L 0 25.96875 
L 41.425781 25.96875 
L 41.425781 19.71875 
L 0 19.71875 
z
"/>
     </g>
    </g>
   </g>
   <g id="matplotlib.axis_2">
    <g id="ytick_1">
     <g id="line2d_7">
      <path clip-path="url(#p86b24d2cb2)" d="M 54 252 
L 388.8 252 
" style="fill:none;stroke:#fdf6e3;"/>
     </g>
     <g id="text_8">
      <!-- 0 -->
      <g style="fill:#657b83;" transform="translate(38.382969 255.936797)scale(0.11 -0.11)">
       <use xlink:href="#ArialMT-48"/>
      </g>
     </g>
    </g>
    <g id="ytick_2">
     <g id="line2d_8">
      <path clip-path="url(#p86b24d2cb2)" d="M 54 204.511648 
L 388.8 204.511648 
" style="fill:none;stroke:#fdf6e3;"/>
     </g>
     <g id="text_9">
      <!-- 1 -->
      <g style="fill:#657b83;" transform="translate(38.382969 208.448445)scale(0.11 -0.11)">
       <use xlink:href="#ArialMT-49"/>
      </g>
     </g>
    </g>
    <g id="ytick_3">
     <g id="line2d_9">
      <path clip-path="url(#p86b24d2cb2)" d="M 54 157.023297 
L 388.8 157.023297 
" style="fill:none;stroke:#fdf6e3;"/>
     </g>
     <g id="text_10">
      <!-- 2 -->
      <defs>
       <path d="M 50.34375 8.453125 
L 50.34375 0 
L 3.03125 0 
Q 2.9375 3.171875 4.046875 6.109375 
Q 5.859375 10.9375 9.828125 15.625 
Q 13.8125 20.3125 21.34375 26.46875 
Q 33.015625 36.03125 37.109375 41.625 
Q 41.21875 47.21875 41.21875 52.203125 
Q 41.21875 57.421875 37.46875 61 
Q 33.734375 64.59375 27.734375 64.59375 
Q 21.390625 64.59375 17.578125 60.78125 
Q 13.765625 56.984375 13.71875 50.25 
L 4.6875 51.171875 
Q 5.609375 61.28125 11.65625 66.578125 
Q 17.71875 71.875 27.9375 71.875 
Q 38.234375 71.875 44.234375 66.15625 
Q 50.25 60.453125 50.25 52 
Q 50.25 47.703125 48.484375 43.546875 
Q 46.734375 39.40625 42.65625 34.8125 
Q 38.578125 30.21875 29.109375 22.21875 
Q 21.1875 15.578125 18.9375 13.203125 
Q 16.703125 10.84375 15.234375 8.453125 
z
" id="ArialMT-50"/>
      </defs>
      <g style="fill:#657b83;" transform="translate(38.382969 160.960094)scale(0.11 -0.11)">
       <use xlink:href="#ArialMT-50"/>
      </g>
     </g>
    </g>
    <g id="ytick_4">
     <g id="line2d_10">
      <path clip-path="url(#p86b24d2cb2)" d="M 54 109.534945 
L 388.8 109.534945 
" style="fill:none;stroke:#fdf6e3;"/>
     </g>
     <g id="text_11">
      <!-- 3 -->
      <defs>
       <path d="M 4.203125 18.890625 
L 12.984375 20.0625 
Q 14.5 12.59375 18.140625 9.296875 
Q 21.78125 6 27 6 
Q 33.203125 6 37.46875 10.296875 
Q 41.75 14.59375 41.75 20.953125 
Q 41.75 27 37.796875 30.921875 
Q 33.84375 34.859375 27.734375 34.859375 
Q 25.25 34.859375 21.53125 33.890625 
L 22.515625 41.609375 
Q 23.390625 41.5 23.921875 41.5 
Q 29.546875 41.5 34.03125 44.421875 
Q 38.53125 47.359375 38.53125 53.46875 
Q 38.53125 58.296875 35.25 61.46875 
Q 31.984375 64.65625 26.8125 64.65625 
Q 21.6875 64.65625 18.265625 61.421875 
Q 14.84375 58.203125 13.875 51.765625 
L 5.078125 53.328125 
Q 6.6875 62.15625 12.390625 67.015625 
Q 18.109375 71.875 26.609375 71.875 
Q 32.46875 71.875 37.390625 69.359375 
Q 42.328125 66.84375 44.9375 62.5 
Q 47.5625 58.15625 47.5625 53.265625 
Q 47.5625 48.640625 45.0625 44.828125 
Q 42.578125 41.015625 37.703125 38.765625 
Q 44.046875 37.3125 47.5625 32.6875 
Q 51.078125 28.078125 51.078125 21.140625 
Q 51.078125 11.765625 44.234375 5.25 
Q 37.40625 -1.265625 26.953125 -1.265625 
Q 17.53125 -1.265625 11.296875 4.34375 
Q 5.078125 9.96875 4.203125 18.890625 
z
" id="ArialMT-51"/>
      </defs>
      <g style="fill:#657b83;" transform="translate(38.382969 113.471742)scale(0.11 -0.11)">
       <use xlink:href="#ArialMT-51"/>
      </g>
     </g>
    </g>
    <g id="ytick_5">
     <g id="line2d_11">
      <path clip-path="url(#p86b24d2cb2)" d="M 54 62.046594 
L 388.8 62.046594 
" style="fill:none;stroke:#fdf6e3;"/>
     </g>
     <g id="text_12">
      <!-- 4 -->
      <defs>
       <path d="M 32.328125 0 
L 32.328125 17.140625 
L 1.265625 17.140625 
L 1.265625 25.203125 
L 33.9375 71.578125 
L 41.109375 71.578125 
L 41.109375 25.203125 
L 50.78125 25.203125 
L 50.78125 17.140625 
L 41.109375 17.140625 
L 41.109375 0 
z
M 32.328125 25.203125 
L 32.328125 57.46875 
L 9.90625 25.203125 
z
" id="ArialMT-52"/>
      </defs>
      <g style="fill:#657b83;" transform="translate(38.382969 65.983391)scale(0.11 -0.11)">
       <use xlink:href="#ArialMT-52"/>
      </g>
     </g>
    </g>
    <g id="text_13">
     <!-- Density -->
     <defs>
      <path d="M 7.71875 0 
L 7.71875 71.578125 
L 32.375 71.578125 
Q 40.71875 71.578125 45.125 70.5625 
Q 51.265625 69.140625 55.609375 65.4375 
Q 61.28125 60.640625 64.078125 53.1875 
Q 66.890625 45.75 66.890625 36.1875 
Q 66.890625 28.03125 64.984375 21.734375 
Q 63.09375 15.4375 60.109375 11.296875 
Q 57.125 7.171875 53.578125 4.796875 
Q 50.046875 2.4375 45.046875 1.21875 
Q 40.046875 0 33.546875 0 
z
M 17.1875 8.453125 
L 32.46875 8.453125 
Q 39.546875 8.453125 43.578125 9.765625 
Q 47.609375 11.078125 50 13.484375 
Q 53.375 16.84375 55.25 22.53125 
Q 57.125 28.21875 57.125 36.328125 
Q 57.125 47.5625 53.4375 53.59375 
Q 49.75 59.625 44.484375 61.671875 
Q 40.671875 63.140625 32.234375 63.140625 
L 17.1875 63.140625 
z
" id="ArialMT-68"/>
      <path d="M 42.09375 16.703125 
L 51.171875 15.578125 
Q 49.03125 7.625 43.21875 3.21875 
Q 37.40625 -1.171875 28.375 -1.171875 
Q 17 -1.171875 10.328125 5.828125 
Q 3.65625 12.84375 3.65625 25.484375 
Q 3.65625 38.578125 10.390625 45.796875 
Q 17.140625 53.03125 27.875 53.03125 
Q 38.28125 53.03125 44.875 45.953125 
Q 51.46875 38.875 51.46875 26.03125 
Q 51.46875 25.25 51.421875 23.6875 
L 12.75 23.6875 
Q 13.234375 15.140625 17.578125 10.59375 
Q 21.921875 6.0625 28.421875 6.0625 
Q 33.25 6.0625 36.671875 8.59375 
Q 40.09375 11.140625 42.09375 16.703125 
z
M 13.234375 30.90625 
L 42.1875 30.90625 
Q 41.609375 37.453125 38.875 40.71875 
Q 34.671875 45.796875 27.984375 45.796875 
Q 21.921875 45.796875 17.796875 41.75 
Q 13.671875 37.703125 13.234375 30.90625 
z
" id="ArialMT-101"/>
      <path d="M 6.59375 0 
L 6.59375 51.859375 
L 14.5 51.859375 
L 14.5 44.484375 
Q 20.21875 53.03125 31 53.03125 
Q 35.6875 53.03125 39.625 51.34375 
Q 43.5625 49.65625 45.515625 46.921875 
Q 47.46875 44.1875 48.25 40.4375 
Q 48.734375 37.984375 48.734375 31.890625 
L 48.734375 0 
L 39.9375 0 
L 39.9375 31.546875 
Q 39.9375 36.921875 38.90625 39.578125 
Q 37.890625 42.234375 35.28125 43.8125 
Q 32.671875 45.40625 29.15625 45.40625 
Q 23.53125 45.40625 19.453125 41.84375 
Q 15.375 38.28125 15.375 28.328125 
L 15.375 0 
z
" id="ArialMT-110"/>
      <path d="M 3.078125 15.484375 
L 11.765625 16.84375 
Q 12.5 11.625 15.84375 8.84375 
Q 19.1875 6.0625 25.203125 6.0625 
Q 31.25 6.0625 34.171875 8.515625 
Q 37.109375 10.984375 37.109375 14.3125 
Q 37.109375 17.28125 34.515625 19 
Q 32.71875 20.171875 25.53125 21.96875 
Q 15.875 24.421875 12.140625 26.203125 
Q 8.40625 27.984375 6.46875 31.125 
Q 4.546875 34.28125 4.546875 38.09375 
Q 4.546875 41.546875 6.125 44.5 
Q 7.71875 47.46875 10.453125 49.421875 
Q 12.5 50.921875 16.03125 51.96875 
Q 19.578125 53.03125 23.640625 53.03125 
Q 29.734375 53.03125 34.34375 51.265625 
Q 38.96875 49.515625 41.15625 46.5 
Q 43.359375 43.5 44.1875 38.484375 
L 35.59375 37.3125 
Q 35.015625 41.3125 32.203125 43.546875 
Q 29.390625 45.796875 24.265625 45.796875 
Q 18.21875 45.796875 15.625 43.796875 
Q 13.03125 41.796875 13.03125 39.109375 
Q 13.03125 37.40625 14.109375 36.03125 
Q 15.1875 34.625 17.484375 33.6875 
Q 18.796875 33.203125 25.25 31.453125 
Q 34.578125 28.953125 38.25 27.359375 
Q 41.9375 25.78125 44.03125 22.75 
Q 46.140625 19.734375 46.140625 15.234375 
Q 46.140625 10.84375 43.578125 6.953125 
Q 41.015625 3.078125 36.171875 0.953125 
Q 31.34375 -1.171875 25.25 -1.171875 
Q 15.140625 -1.171875 9.84375 3.03125 
Q 4.546875 7.234375 3.078125 15.484375 
z
" id="ArialMT-115"/>
      <path d="M 6.640625 61.46875 
L 6.640625 71.578125 
L 15.4375 71.578125 
L 15.4375 61.46875 
z
M 6.640625 0 
L 6.640625 51.859375 
L 15.4375 51.859375 
L 15.4375 0 
z
" id="ArialMT-105"/>
      <path d="M 25.78125 7.859375 
L 27.046875 0.09375 
Q 23.34375 -0.6875 20.40625 -0.6875 
Q 15.625 -0.6875 12.984375 0.828125 
Q 10.359375 2.34375 9.28125 4.8125 
Q 8.203125 7.28125 8.203125 15.1875 
L 8.203125 45.015625 
L 1.765625 45.015625 
L 1.765625 51.859375 
L 8.203125 51.859375 
L 8.203125 64.703125 
L 16.9375 69.96875 
L 16.9375 51.859375 
L 25.78125 51.859375 
L 25.78125 45.015625 
L 16.9375 45.015625 
L 16.9375 14.703125 
Q 16.9375 10.9375 17.40625 9.859375 
Q 17.875 8.796875 18.921875 8.15625 
Q 19.96875 7.515625 21.921875 7.515625 
Q 23.390625 7.515625 25.78125 7.859375 
z
" id="ArialMT-116"/>
      <path d="M 6.203125 -19.96875 
L 5.21875 -11.71875 
Q 8.109375 -12.5 10.25 -12.5 
Q 13.1875 -12.5 14.9375 -11.515625 
Q 16.703125 -10.546875 17.828125 -8.796875 
Q 18.65625 -7.46875 20.515625 -2.25 
Q 20.75 -1.515625 21.296875 -0.09375 
L 1.609375 51.859375 
L 11.078125 51.859375 
L 21.875 21.828125 
Q 23.96875 16.109375 25.640625 9.8125 
Q 27.15625 15.875 29.25 21.625 
L 40.328125 51.859375 
L 49.125 51.859375 
L 29.390625 -0.875 
Q 26.21875 -9.421875 24.46875 -12.640625 
Q 22.125 -17 19.09375 -19.015625 
Q 16.0625 -21.046875 11.859375 -21.046875 
Q 9.328125 -21.046875 6.203125 -19.96875 
z
" id="ArialMT-121"/>
     </defs>
     <g style="fill:#657b83;" transform="translate(31.225938 168.287813)rotate(-90)scale(0.15 -0.15)">
      <use xlink:href="#ArialMT-68"/>
      <use x="72.216797" xlink:href="#ArialMT-101"/>
      <use x="127.832031" xlink:href="#ArialMT-110"/>
      <use x="183.447266" xlink:href="#ArialMT-115"/>
      <use x="233.447266" xlink:href="#ArialMT-105"/>
      <use x="255.664062" xlink:href="#ArialMT-116"/>
      <use x="283.447266" xlink:href="#ArialMT-121"/>
     </g>
    </g>
   </g>
   <g id="PolyCollection_1">
    <defs>
     <path d="M 134.216097 -36.000921 
L 134.216097 -36 
L 136.553308 -36 
L 138.890519 -36 
L 141.22773 -36 
L 143.56494 -36 
L 145.902151 -36 
L 148.239362 -36 
L 150.576573 -36 
L 152.913784 -36 
L 155.250995 -36 
L 157.588205 -36 
L 159.925416 -36 
L 162.262627 -36 
L 164.599838 -36 
L 166.937049 -36 
L 169.27426 -36 
L 171.61147 -36 
L 173.948681 -36 
L 176.285892 -36 
L 178.623103 -36 
L 180.960314 -36 
L 183.297525 -36 
L 185.634735 -36 
L 187.971946 -36 
L 190.309157 -36 
L 192.646368 -36 
L 194.983579 -36 
L 197.32079 -36 
L 199.658 -36 
L 201.995211 -36 
L 204.332422 -36 
L 206.669633 -36 
L 209.006844 -36 
L 211.344055 -36 
L 213.681265 -36 
L 216.018476 -36 
L 218.355687 -36 
L 220.692898 -36 
L 223.030109 -36 
L 225.36732 -36 
L 227.70453 -36 
L 230.041741 -36 
L 232.378952 -36 
L 234.716163 -36 
L 237.053374 -36 
L 239.390585 -36 
L 241.727795 -36 
L 244.065006 -36 
L 246.402217 -36 
L 248.739428 -36 
L 251.076639 -36 
L 253.41385 -36 
L 255.75106 -36 
L 258.088271 -36 
L 260.425482 -36 
L 262.762693 -36 
L 265.099904 -36 
L 267.437115 -36 
L 269.774326 -36 
L 272.111536 -36 
L 274.448747 -36 
L 276.785958 -36 
L 279.123169 -36 
L 281.46038 -36 
L 283.797591 -36 
L 286.134801 -36 
L 288.472012 -36 
L 290.809223 -36 
L 293.146434 -36 
L 295.483645 -36 
L 297.820856 -36 
L 300.158066 -36 
L 302.495277 -36 
L 304.832488 -36 
L 307.169699 -36 
L 309.50691 -36 
L 311.844121 -36 
L 314.181331 -36 
L 316.518542 -36 
L 318.855753 -36 
L 321.192964 -36 
L 323.530175 -36 
L 325.867386 -36 
L 328.204596 -36 
L 330.541807 -36 
L 332.879018 -36 
L 335.216229 -36 
L 337.55344 -36 
L 339.890651 -36 
L 342.227861 -36 
L 344.565072 -36 
L 346.902283 -36 
L 349.239494 -36 
L 351.576705 -36 
L 353.913916 -36 
L 356.251126 -36 
L 358.588337 -36 
L 360.925548 -36 
L 363.262759 -36 
L 365.59997 -36 
L 365.59997 -36.000921 
L 365.59997 -36.000921 
L 363.262759 -36.010607 
L 360.925548 -36.047482 
L 358.588337 -36.082931 
L 356.251126 -36.061466 
L 353.913916 -36.054413 
L 351.576705 -36.123728 
L 349.239494 -36.1816 
L 346.902283 -36.164408 
L 344.565072 -36.1302 
L 342.227861 -36.14989 
L 339.890651 -36.172273 
L 337.55344 -36.135669 
L 335.216229 -36.183532 
L 332.879018 -36.323991 
L 330.541807 -36.438725 
L 328.204596 -36.495066 
L 325.867386 -36.543799 
L 323.530175 -36.65832 
L 321.192964 -36.717532 
L 318.855753 -36.746863 
L 316.518542 -36.756187 
L 314.181331 -36.744427 
L 311.844121 -36.826143 
L 309.50691 -36.913555 
L 307.169699 -36.886692 
L 304.832488 -36.830522 
L 302.495277 -36.824845 
L 300.158066 -36.813464 
L 297.820856 -36.916544 
L 295.483645 -37.00965 
L 293.146434 -36.795485 
L 290.809223 -36.655832 
L 288.472012 -36.913223 
L 286.134801 -37.348646 
L 283.797591 -37.602902 
L 281.46038 -37.58119 
L 279.123169 -37.390354 
L 276.785958 -37.333399 
L 274.448747 -37.601011 
L 272.111536 -38.153598 
L 269.774326 -39.382927 
L 267.437115 -41.937705 
L 265.099904 -46.588707 
L 262.762693 -54.977676 
L 260.425482 -68.687156 
L 258.088271 -90.62543 
L 255.75106 -128.44959 
L 253.41385 -183.467486 
L 251.076639 -231.535091 
L 248.739428 -243.085714 
L 246.402217 -225.545955 
L 244.065006 -201.756824 
L 241.727795 -180.864383 
L 239.390585 -163.688014 
L 237.053374 -147.367049 
L 234.716163 -129.489398 
L 232.378952 -114.399967 
L 230.041741 -102.77835 
L 227.70453 -93.883226 
L 225.36732 -86.971528 
L 223.030109 -80.160655 
L 220.692898 -72.124484 
L 218.355687 -65.594855 
L 216.018476 -61.605885 
L 213.681265 -58.508832 
L 211.344055 -55.471193 
L 209.006844 -52.393542 
L 206.669633 -49.099756 
L 204.332422 -45.988102 
L 201.995211 -43.854562 
L 199.658 -42.280483 
L 197.32079 -41.230825 
L 194.983579 -40.338876 
L 192.646368 -39.46005 
L 190.309157 -38.914694 
L 187.971946 -38.341593 
L 185.634735 -37.654001 
L 183.297525 -36.987092 
L 180.960314 -36.506073 
L 178.623103 -36.346893 
L 176.285892 -36.363267 
L 173.948681 -36.354319 
L 171.61147 -36.231443 
L 169.27426 -36.155797 
L 166.937049 -36.160549 
L 164.599838 -36.199632 
L 162.262627 -36.183314 
L 159.925416 -36.083682 
L 157.588205 -36.016031 
L 155.250995 -36.001554 
L 152.913784 -36.005277 
L 150.576573 -36.032135 
L 148.239362 -36.07784 
L 145.902151 -36.08533 
L 143.56494 -36.081291 
L 141.22773 -36.086161 
L 138.890519 -36.047667 
L 136.553308 -36.010611 
L 134.216097 -36.000921 
z
" id="m244821f806" style="stroke:#ffffff;stroke-opacity:0.25;"/>
    </defs>
    <g clip-path="url(#p86b24d2cb2)">
     <use style="fill:#268bd2;fill-opacity:0.25;stroke:#ffffff;stroke-opacity:0.25;" x="0" xlink:href="#m244821f806" y="288"/>
    </g>
   </g>
   <g id="PolyCollection_2">
    <defs>
     <path d="M 69.218182 -36.000699 
L 69.218182 -36 
L 72.292562 -36 
L 75.366942 -36 
L 78.441322 -36 
L 81.515702 -36 
L 84.590083 -36 
L 87.664463 -36 
L 90.738843 -36 
L 93.813223 -36 
L 96.887603 -36 
L 99.961983 -36 
L 103.036364 -36 
L 106.110744 -36 
L 109.185124 -36 
L 112.259504 -36 
L 115.333884 -36 
L 118.408264 -36 
L 121.482645 -36 
L 124.557025 -36 
L 127.631405 -36 
L 130.705785 -36 
L 133.780165 -36 
L 136.854545 -36 
L 139.928926 -36 
L 143.003306 -36 
L 146.077686 -36 
L 149.152066 -36 
L 152.226446 -36 
L 155.300826 -36 
L 158.375207 -36 
L 161.449587 -36 
L 164.523967 -36 
L 167.598347 -36 
L 170.672727 -36 
L 173.747107 -36 
L 176.821488 -36 
L 179.895868 -36 
L 182.970248 -36 
L 186.044628 -36 
L 189.119008 -36 
L 192.193388 -36 
L 195.267769 -36 
L 198.342149 -36 
L 201.416529 -36 
L 204.490909 -36 
L 207.565289 -36 
L 210.639669 -36 
L 213.71405 -36 
L 216.78843 -36 
L 219.86281 -36 
L 222.93719 -36 
L 226.01157 -36 
L 229.08595 -36 
L 232.160331 -36 
L 235.234711 -36 
L 238.309091 -36 
L 241.383471 -36 
L 244.457851 -36 
L 247.532231 -36 
L 250.606612 -36 
L 253.680992 -36 
L 256.755372 -36 
L 259.829752 -36 
L 262.904132 -36 
L 265.978512 -36 
L 269.052893 -36 
L 272.127273 -36 
L 275.201653 -36 
L 278.276033 -36 
L 281.350413 -36 
L 284.424793 -36 
L 287.499174 -36 
L 290.573554 -36 
L 293.647934 -36 
L 296.722314 -36 
L 299.796694 -36 
L 302.871074 -36 
L 305.945455 -36 
L 309.019835 -36 
L 312.094215 -36 
L 315.168595 -36 
L 318.242975 -36 
L 321.317355 -36 
L 324.391736 -36 
L 327.466116 -36 
L 330.540496 -36 
L 333.614876 -36 
L 336.689256 -36 
L 339.763636 -36 
L 342.838017 -36 
L 345.912397 -36 
L 348.986777 -36 
L 352.061157 -36 
L 355.135537 -36 
L 358.209917 -36 
L 361.284298 -36 
L 364.358678 -36 
L 367.433058 -36 
L 370.507438 -36 
L 373.581818 -36 
L 373.581818 -36.001161 
L 373.581818 -36.001161 
L 370.507438 -36.016808 
L 367.433058 -36.109979 
L 364.358678 -36.360866 
L 361.284298 -36.700183 
L 358.209917 -37.030717 
L 355.135537 -37.258162 
L 352.061157 -37.136502 
L 348.986777 -36.879912 
L 345.912397 -36.783568 
L 342.838017 -36.849576 
L 339.763636 -37.030044 
L 336.689256 -37.2446 
L 333.614876 -37.366208 
L 330.540496 -37.405809 
L 327.466116 -37.371481 
L 324.391736 -37.186226 
L 321.317355 -36.972805 
L 318.242975 -36.930467 
L 315.168595 -37.100748 
L 312.094215 -37.271204 
L 309.019835 -37.486357 
L 305.945455 -37.615921 
L 302.871074 -37.335885 
L 299.796694 -37.014502 
L 296.722314 -37.025714 
L 293.647934 -37.099064 
L 290.573554 -37.075615 
L 287.499174 -37.125671 
L 284.424793 -37.317545 
L 281.350413 -37.487649 
L 278.276033 -37.438836 
L 275.201653 -37.276338 
L 272.127273 -37.514733 
L 269.052893 -39.072229 
L 265.978512 -43.436717 
L 262.904132 -53.165703 
L 259.829752 -72.240011 
L 256.755372 -107.70938 
L 253.680992 -163.159959 
L 250.606612 -213.814503 
L 247.532231 -224.254529 
L 244.457851 -201.429868 
L 241.383471 -172.988483 
L 238.309091 -150.068822 
L 235.234711 -131.580203 
L 232.160331 -115.684122 
L 229.08595 -102.34153 
L 226.01157 -91.654659 
L 222.93719 -83.656149 
L 219.86281 -75.977235 
L 216.78843 -67.370411 
L 213.71405 -60.042119 
L 210.639669 -55.301735 
L 207.565289 -51.998845 
L 204.490909 -48.770705 
L 201.416529 -46.082718 
L 198.342149 -44.146385 
L 195.267769 -42.463671 
L 192.193388 -41.304312 
L 189.119008 -40.409699 
L 186.044628 -39.522715 
L 182.970248 -38.89038 
L 179.895868 -38.355457 
L 176.821488 -37.812101 
L 173.747107 -37.289612 
L 170.672727 -36.855789 
L 167.598347 -36.517116 
L 164.523967 -36.270874 
L 161.449587 -36.185106 
L 158.375207 -36.18365 
L 155.300826 -36.292926 
L 152.226446 -36.55976 
L 149.152066 -37.00139 
L 146.077686 -37.447886 
L 143.003306 -37.422937 
L 139.928926 -36.900509 
L 136.854545 -36.397377 
L 133.780165 -36.211604 
L 130.705785 -36.216267 
L 127.631405 -36.227975 
L 124.557025 -36.186096 
L 121.482645 -36.122199 
L 118.408264 -36.068184 
L 115.333884 -36.022756 
L 112.259504 -36.006819 
L 109.185124 -36.022857 
L 106.110744 -36.056624 
L 103.036364 -36.055187 
L 99.961983 -36.02099 
L 96.887603 -36.003115 
L 93.813223 -36.000181 
L 90.738843 -36.000052 
L 87.664463 -36.001177 
L 84.590083 -36.011348 
L 81.515702 -36.042685 
L 78.441322 -36.062647 
L 75.366942 -36.035877 
L 72.292562 -36.008017 
L 69.218182 -36.000699 
z
" id="mee51db4469" style="stroke:#ffffff;stroke-opacity:0.25;"/>
    </defs>
    <g clip-path="url(#p86b24d2cb2)">
     <use style="fill:#2aa198;fill-opacity:0.25;stroke:#ffffff;stroke-opacity:0.25;" x="0" xlink:href="#mee51db4469" y="288"/>
    </g>
   </g>
   <g id="line2d_12">
    <path clip-path="url(#p86b24d2cb2)" d="M 134.216097 251.999079 
L 136.553308 251.989389 
L 138.890519 251.952333 
L 141.22773 251.913839 
L 143.56494 251.918709 
L 145.902151 251.91467 
L 148.239362 251.92216 
L 150.576573 251.967865 
L 152.913784 251.994723 
L 155.250995 251.998446 
L 157.588205 251.983969 
L 159.925416 251.916318 
L 162.262627 251.816686 
L 164.599838 251.800368 
L 166.937049 251.839451 
L 169.27426 251.844203 
L 171.61147 251.768557 
L 173.948681 251.645681 
L 176.285892 251.636733 
L 178.623103 251.653107 
L 180.960314 251.493927 
L 183.297525 251.012908 
L 185.634735 250.345999 
L 187.971946 249.658407 
L 190.309157 249.085306 
L 192.646368 248.53995 
L 194.983579 247.661124 
L 197.32079 246.769175 
L 199.658 245.719517 
L 201.995211 244.145438 
L 204.332422 242.011898 
L 206.669633 238.900244 
L 209.006844 235.606458 
L 211.344055 232.528807 
L 213.681265 229.491168 
L 216.018476 226.394115 
L 218.355687 222.405145 
L 220.692898 215.875516 
L 223.030109 207.839345 
L 225.36732 201.028472 
L 227.70453 194.116774 
L 230.041741 185.22165 
L 232.378952 173.600033 
L 234.716163 158.510602 
L 237.053374 140.632951 
L 239.390585 124.311986 
L 241.727795 107.135617 
L 244.065006 86.243176 
L 246.402217 62.454045 
L 248.739428 44.914286 
L 251.076639 56.464909 
L 253.41385 104.532514 
L 255.75106 159.55041 
L 258.088271 197.37457 
L 260.425482 219.312844 
L 262.762693 233.022324 
L 265.099904 241.411293 
L 267.437115 246.062295 
L 269.774326 248.617073 
L 272.111536 249.846402 
L 274.448747 250.398989 
L 276.785958 250.666601 
L 279.123169 250.609646 
L 281.46038 250.41881 
L 283.797591 250.397098 
L 286.134801 250.651354 
L 288.472012 251.086777 
L 290.809223 251.344168 
L 293.146434 251.204515 
L 295.483645 250.99035 
L 297.820856 251.083456 
L 300.158066 251.186536 
L 302.495277 251.175155 
L 304.832488 251.169478 
L 307.169699 251.113308 
L 309.50691 251.086445 
L 311.844121 251.173857 
L 314.181331 251.255573 
L 316.518542 251.243813 
L 318.855753 251.253137 
L 321.192964 251.282468 
L 323.530175 251.34168 
L 325.867386 251.456201 
L 328.204596 251.504934 
L 330.541807 251.561275 
L 332.879018 251.676009 
L 335.216229 251.816468 
L 337.55344 251.864331 
L 339.890651 251.827727 
L 342.227861 251.85011 
L 344.565072 251.8698 
L 346.902283 251.835592 
L 349.239494 251.8184 
L 351.576705 251.876272 
L 353.913916 251.945587 
L 356.251126 251.938534 
L 358.588337 251.917069 
L 360.925548 251.952518 
L 363.262759 251.989393 
L 365.59997 251.999079 
" style="fill:none;stroke:#268bd2;stroke-width:2;"/>
   </g>
   <g id="line2d_13">
    <path clip-path="url(#p86b24d2cb2)" d="M 69.218182 251.999301 
L 72.292562 251.991983 
L 75.366942 251.964123 
L 78.441322 251.937353 
L 81.515702 251.957315 
L 84.590083 251.988652 
L 87.664463 251.998823 
L 90.738843 251.999948 
L 93.813223 251.999819 
L 96.887603 251.996885 
L 99.961983 251.97901 
L 103.036364 251.944813 
L 106.110744 251.943376 
L 109.185124 251.977143 
L 112.259504 251.993181 
L 115.333884 251.977244 
L 118.408264 251.931816 
L 121.482645 251.877801 
L 124.557025 251.813904 
L 127.631405 251.772025 
L 130.705785 251.783733 
L 133.780165 251.788396 
L 136.854545 251.602623 
L 139.928926 251.099491 
L 143.003306 250.577063 
L 146.077686 250.552114 
L 149.152066 250.99861 
L 152.226446 251.44024 
L 155.300826 251.707074 
L 158.375207 251.81635 
L 161.449587 251.814894 
L 164.523967 251.729126 
L 167.598347 251.482884 
L 170.672727 251.144211 
L 173.747107 250.710388 
L 176.821488 250.187899 
L 179.895868 249.644543 
L 182.970248 249.10962 
L 186.044628 248.477285 
L 189.119008 247.590301 
L 192.193388 246.695688 
L 195.267769 245.536329 
L 198.342149 243.853615 
L 201.416529 241.917282 
L 204.490909 239.229295 
L 207.565289 236.001155 
L 210.639669 232.698265 
L 213.71405 227.957881 
L 216.78843 220.629589 
L 219.86281 212.022765 
L 222.93719 204.343851 
L 226.01157 196.345341 
L 229.08595 185.65847 
L 232.160331 172.315878 
L 235.234711 156.419797 
L 238.309091 137.931178 
L 241.383471 115.011517 
L 244.457851 86.570132 
L 247.532231 63.745471 
L 250.606612 74.185497 
L 253.680992 124.840041 
L 256.755372 180.29062 
L 259.829752 215.759989 
L 262.904132 234.834297 
L 265.978512 244.563283 
L 269.052893 248.927771 
L 272.127273 250.485267 
L 275.201653 250.723662 
L 278.276033 250.561164 
L 281.350413 250.512351 
L 284.424793 250.682455 
L 287.499174 250.874329 
L 290.573554 250.924385 
L 293.647934 250.900936 
L 296.722314 250.974286 
L 299.796694 250.985498 
L 302.871074 250.664115 
L 305.945455 250.384079 
L 309.019835 250.513643 
L 312.094215 250.728796 
L 315.168595 250.899252 
L 318.242975 251.069533 
L 321.317355 251.027195 
L 324.391736 250.813774 
L 327.466116 250.628519 
L 330.540496 250.594191 
L 333.614876 250.633792 
L 336.689256 250.7554 
L 339.763636 250.969956 
L 342.838017 251.150424 
L 345.912397 251.216432 
L 348.986777 251.120088 
L 352.061157 250.863498 
L 355.135537 250.741838 
L 358.209917 250.969283 
L 361.284298 251.299817 
L 364.358678 251.639134 
L 367.433058 251.890021 
L 370.507438 251.983192 
L 373.581818 251.998839 
" style="fill:none;stroke:#2aa198;stroke-width:2;"/>
   </g>
   <g id="patch_3">
    <path d="M 54 252 
L 54 34.56 
" style="fill:none;stroke:#eee8d5;stroke-linecap:square;stroke-linejoin:miter;stroke-width:1.25;"/>
   </g>
   <g id="patch_4">
    <path d="M 388.8 252 
L 388.8 34.56 
" style="fill:none;stroke:#eee8d5;stroke-linecap:square;stroke-linejoin:miter;stroke-width:1.25;"/>
   </g>
   <g id="patch_5">
    <path d="M 54 252 
L 388.8 252 
" style="fill:none;stroke:#eee8d5;stroke-linecap:square;stroke-linejoin:miter;stroke-width:1.25;"/>
   </g>
   <g id="patch_6">
    <path d="M 54 34.56 
L 388.8 34.56 
" style="fill:none;stroke:#eee8d5;stroke-linecap:square;stroke-linejoin:miter;stroke-width:1.25;"/>
   </g>
   <g id="text_14">
    <!-- $\Delta U = 5.0\, \mathrm{k_BT}$ -->
    <defs>
     <path d="M 34.1875 63.1875 
L 14.15625 8.203125 
L 54.25 8.203125 
z
M 0.78125 0 
L 28.609375 72.90625 
L 39.796875 72.90625 
L 67.578125 0 
z
" id="DejaVuSans-916"/>
     <path d="M 15.484375 72.90625 
L 25.390625 72.90625 
L 16.796875 28.609375 
Q 16.265625 25.640625 16.046875 23.703125 
Q 15.828125 21.78125 15.828125 20.3125 
Q 15.828125 13.578125 19.578125 10.078125 
Q 23.34375 6.59375 30.609375 6.59375 
Q 40.046875 6.59375 45.28125 11.765625 
Q 50.53125 16.9375 52.78125 28.609375 
L 61.375 72.90625 
L 71.296875 72.90625 
L 62.5 27.390625 
Q 59.625 12.640625 51.5625 5.609375 
Q 43.5 -1.421875 29.5 -1.421875 
Q 18.5625 -1.421875 12.1875 4.078125 
Q 5.8125 9.578125 5.8125 19 
Q 5.8125 20.703125 6.046875 22.828125 
Q 6.296875 24.953125 6.78125 27.390625 
z
" id="DejaVuSans-Oblique-85"/>
     <path d="M 10.59375 45.40625 
L 73.1875 45.40625 
L 73.1875 37.203125 
L 10.59375 37.203125 
z
M 10.59375 25.484375 
L 73.1875 25.484375 
L 73.1875 17.1875 
L 10.59375 17.1875 
z
" id="DejaVuSans-61"/>
     <path d="M 10.796875 72.90625 
L 49.515625 72.90625 
L 49.515625 64.59375 
L 19.828125 64.59375 
L 19.828125 46.734375 
Q 21.96875 47.46875 24.109375 47.828125 
Q 26.265625 48.1875 28.421875 48.1875 
Q 40.625 48.1875 47.75 41.5 
Q 54.890625 34.8125 54.890625 23.390625 
Q 54.890625 11.625 47.5625 5.09375 
Q 40.234375 -1.421875 26.90625 -1.421875 
Q 22.3125 -1.421875 17.546875 -0.640625 
Q 12.796875 0.140625 7.71875 1.703125 
L 7.71875 11.625 
Q 12.109375 9.234375 16.796875 8.0625 
Q 21.484375 6.890625 26.703125 6.890625 
Q 35.15625 6.890625 40.078125 11.328125 
Q 45.015625 15.765625 45.015625 23.390625 
Q 45.015625 31 40.078125 35.4375 
Q 35.15625 39.890625 26.703125 39.890625 
Q 22.75 39.890625 18.8125 39.015625 
Q 14.890625 38.140625 10.796875 36.28125 
z
" id="DejaVuSans-53"/>
     <path d="M 10.6875 12.40625 
L 21 12.40625 
L 21 0 
L 10.6875 0 
z
" id="DejaVuSans-46"/>
     <path d="M 31.78125 66.40625 
Q 24.171875 66.40625 20.328125 58.90625 
Q 16.5 51.421875 16.5 36.375 
Q 16.5 21.390625 20.328125 13.890625 
Q 24.171875 6.390625 31.78125 6.390625 
Q 39.453125 6.390625 43.28125 13.890625 
Q 47.125 21.390625 47.125 36.375 
Q 47.125 51.421875 43.28125 58.90625 
Q 39.453125 66.40625 31.78125 66.40625 
z
M 31.78125 74.21875 
Q 44.046875 74.21875 50.515625 64.515625 
Q 56.984375 54.828125 56.984375 36.375 
Q 56.984375 17.96875 50.515625 8.265625 
Q 44.046875 -1.421875 31.78125 -1.421875 
Q 19.53125 -1.421875 13.0625 8.265625 
Q 6.59375 17.96875 6.59375 36.375 
Q 6.59375 54.828125 13.0625 64.515625 
Q 19.53125 74.21875 31.78125 74.21875 
z
" id="DejaVuSans-48"/>
     <path d="M 9.078125 75.984375 
L 18.109375 75.984375 
L 18.109375 31.109375 
L 44.921875 54.6875 
L 56.390625 54.6875 
L 27.390625 29.109375 
L 57.625 0 
L 45.90625 0 
L 18.109375 26.703125 
L 18.109375 0 
L 9.078125 0 
z
" id="DejaVuSans-107"/>
     <path d="M 19.671875 34.8125 
L 19.671875 8.109375 
L 35.5 8.109375 
Q 43.453125 8.109375 47.28125 11.40625 
Q 51.125 14.703125 51.125 21.484375 
Q 51.125 28.328125 47.28125 31.5625 
Q 43.453125 34.8125 35.5 34.8125 
z
M 19.671875 64.796875 
L 19.671875 42.828125 
L 34.28125 42.828125 
Q 41.5 42.828125 45.03125 45.53125 
Q 48.578125 48.25 48.578125 53.8125 
Q 48.578125 59.328125 45.03125 62.0625 
Q 41.5 64.796875 34.28125 64.796875 
z
M 9.8125 72.90625 
L 35.015625 72.90625 
Q 46.296875 72.90625 52.390625 68.21875 
Q 58.5 63.53125 58.5 54.890625 
Q 58.5 48.1875 55.375 44.234375 
Q 52.25 40.28125 46.1875 39.3125 
Q 53.46875 37.75 57.5 32.78125 
Q 61.53125 27.828125 61.53125 20.40625 
Q 61.53125 10.640625 54.890625 5.3125 
Q 48.25 0 35.984375 0 
L 9.8125 0 
z
" id="DejaVuSans-66"/>
     <path d="M -0.296875 72.90625 
L 61.375 72.90625 
L 61.375 64.59375 
L 35.5 64.59375 
L 35.5 0 
L 25.59375 0 
L 25.59375 64.59375 
L -0.296875 64.59375 
z
" id="DejaVuSans-84"/>
    </defs>
    <g style="fill:#262626;" transform="translate(172.52 28.56)scale(0.16 -0.16)">
     <use transform="translate(0 0.015625)" xlink:href="#DejaVuSans-916"/>
     <use transform="translate(68.408203 0.015625)" xlink:href="#DejaVuSans-Oblique-85"/>
     <use transform="translate(161.083984 0.015625)" xlink:href="#DejaVuSans-61"/>
     <use transform="translate(264.355469 0.015625)" xlink:href="#DejaVuSans-53"/>
     <use transform="translate(327.978516 0.015625)" xlink:href="#DejaVuSans-46"/>
     <use transform="translate(359.765625 0.015625)" xlink:href="#DejaVuSans-48"/>
     <use transform="translate(439.624348 0.015625)" xlink:href="#DejaVuSans-107"/>
     <use transform="translate(498.491536 -16.390625)scale(0.7)" xlink:href="#DejaVuSans-66"/>
     <use transform="translate(549.248372 0.015625)" xlink:href="#DejaVuSans-84"/>
    </g>
   </g>
   <g id="legend_1">
    <g id="patch_7">
     <path d="M 64.5 94.26 
L 189 94.26 
Q 192 94.26 192 91.26 
L 192 45.06 
Q 192 42.06 189 42.06 
L 64.5 42.06 
Q 61.5 42.06 61.5 45.06 
L 61.5 91.26 
Q 61.5 94.26 64.5 94.26 
z
" style="fill:#eee8d5;opacity:0.8;stroke:#cccccc;stroke-linejoin:miter;"/>
    </g>
    <g id="line2d_14">
     <path d="M 67.5 56.17875 
L 97.5 56.17875 
" style="fill:none;stroke:#268bd2;stroke-width:2;"/>
    </g>
    <g id="line2d_15"/>
    <g id="text_15">
     <!-- $\hat t$ = 0.9999s -->
     <defs>
      <path d="M -28.609375 79.984375 
L -21.390625 79.984375 
L -9.421875 61.625 
L -16.21875 61.625 
L -25 73.578125 
L -33.796875 61.625 
L -40.578125 61.625 
z
M -25 56 
z
" id="DejaVuSans-770"/>
      <path d="M 42.28125 54.6875 
L 40.921875 47.703125 
L 23 47.703125 
L 17.1875 18.015625 
Q 16.890625 16.359375 16.75 15.234375 
Q 16.609375 14.109375 16.609375 13.484375 
Q 16.609375 10.359375 18.484375 8.9375 
Q 20.359375 7.515625 24.515625 7.515625 
L 33.59375 7.515625 
L 32.078125 0 
L 23.484375 0 
Q 15.484375 0 11.546875 3.125 
Q 7.625 6.25 7.625 12.59375 
Q 7.625 13.71875 7.765625 15.0625 
Q 7.90625 16.40625 8.203125 18.015625 
L 14.015625 47.703125 
L 6.390625 47.703125 
L 7.8125 54.6875 
L 15.28125 54.6875 
L 18.3125 70.21875 
L 27.296875 70.21875 
L 24.3125 54.6875 
z
" id="DejaVuSans-Oblique-116"/>
      <path id="ArialMT-32"/>
      <path d="M 52.828125 42.09375 
L 5.5625 42.09375 
L 5.5625 50.296875 
L 52.828125 50.296875 
z
M 52.828125 20.359375 
L 5.5625 20.359375 
L 5.5625 28.5625 
L 52.828125 28.5625 
z
" id="ArialMT-61"/>
      <path d="M 5.46875 16.546875 
L 13.921875 17.328125 
Q 14.984375 11.375 18.015625 8.6875 
Q 21.046875 6 25.78125 6 
Q 29.828125 6 32.875 7.859375 
Q 35.9375 9.71875 37.890625 12.8125 
Q 39.84375 15.921875 41.15625 21.1875 
Q 42.484375 26.46875 42.484375 31.9375 
Q 42.484375 32.515625 42.4375 33.6875 
Q 39.796875 29.5 35.234375 26.875 
Q 30.671875 24.265625 25.34375 24.265625 
Q 16.453125 24.265625 10.296875 30.703125 
Q 4.15625 37.15625 4.15625 47.703125 
Q 4.15625 58.59375 10.578125 65.234375 
Q 17 71.875 26.65625 71.875 
Q 33.640625 71.875 39.421875 68.109375 
Q 45.21875 64.359375 48.21875 57.390625 
Q 51.21875 50.4375 51.21875 37.25 
Q 51.21875 23.53125 48.234375 15.40625 
Q 45.265625 7.28125 39.375 3.03125 
Q 33.5 -1.21875 25.59375 -1.21875 
Q 17.1875 -1.21875 11.859375 3.4375 
Q 6.546875 8.109375 5.46875 16.546875 
z
M 41.453125 48.140625 
Q 41.453125 55.71875 37.421875 60.15625 
Q 33.40625 64.59375 27.734375 64.59375 
Q 21.875 64.59375 17.53125 59.8125 
Q 13.1875 55.03125 13.1875 47.40625 
Q 13.1875 40.578125 17.3125 36.296875 
Q 21.4375 32.03125 27.484375 32.03125 
Q 33.59375 32.03125 37.515625 36.296875 
Q 41.453125 40.578125 41.453125 48.140625 
z
" id="ArialMT-57"/>
     </defs>
     <g style="fill:#262626;" transform="translate(109.5 61.42875)scale(0.15 -0.15)">
      <use transform="translate(47.546875 27.015625)" xlink:href="#DejaVuSans-770"/>
      <use transform="translate(0 0.296875)" xlink:href="#DejaVuSans-Oblique-116"/>
      <use transform="translate(39.208984 0.296875)" xlink:href="#ArialMT-32"/>
      <use transform="translate(66.992188 0.296875)" xlink:href="#ArialMT-61"/>
      <use transform="translate(125.390625 0.296875)" xlink:href="#ArialMT-32"/>
      <use transform="translate(153.173828 0.296875)" xlink:href="#ArialMT-48"/>
      <use transform="translate(208.789062 0.296875)" xlink:href="#ArialMT-46"/>
      <use transform="translate(236.572266 0.296875)" xlink:href="#ArialMT-57"/>
      <use transform="translate(292.1875 0.296875)" xlink:href="#ArialMT-57"/>
      <use transform="translate(347.802734 0.296875)" xlink:href="#ArialMT-57"/>
      <use transform="translate(403.417969 0.296875)" xlink:href="#ArialMT-57"/>
      <use transform="translate(459.033203 0.296875)" xlink:href="#ArialMT-115"/>
     </g>
    </g>
    <g id="line2d_16">
     <path d="M 67.5 80.02875 
L 97.5 80.02875 
" style="fill:none;stroke:#2aa198;stroke-width:2;"/>
    </g>
    <g id="line2d_17"/>
    <g id="text_16">
     <!-- $\hat t$ = 2.0000s -->
     <g style="fill:#262626;" transform="translate(109.5 85.27875)scale(0.15 -0.15)">
      <use transform="translate(47.546875 27.015625)" xlink:href="#DejaVuSans-770"/>
      <use transform="translate(0 0.296875)" xlink:href="#DejaVuSans-Oblique-116"/>
      <use transform="translate(39.208984 0.296875)" xlink:href="#ArialMT-32"/>
      <use transform="translate(66.992188 0.296875)" xlink:href="#ArialMT-61"/>
      <use transform="translate(125.390625 0.296875)" xlink:href="#ArialMT-32"/>
      <use transform="translate(153.173828 0.296875)" xlink:href="#ArialMT-50"/>
      <use transform="translate(208.789062 0.296875)" xlink:href="#ArialMT-46"/>
      <use transform="translate(236.572266 0.296875)" xlink:href="#ArialMT-48"/>
      <use transform="translate(292.1875 0.296875)" xlink:href="#ArialMT-48"/>
      <use transform="translate(347.802734 0.296875)" xlink:href="#ArialMT-48"/>
      <use transform="translate(403.417969 0.296875)" xlink:href="#ArialMT-48"/>
      <use transform="translate(459.033203 0.296875)" xlink:href="#ArialMT-115"/>
     </g>
    </g>
   </g>
  </g>
 </g>
 <defs>
  <clipPath id="p86b24d2cb2">
   <rect height="217.44" width="334.8" x="54" y="34.56"/>
  </clipPath>
 </defs>
</svg>
